<svg width="949" height="657" viewBox="0 0 949 657" fill="none" xmlns="http://www.w3.org/2000/svg">
<g clip-path="url(#clip0)">
<path d="M767.853 313.789L791.22 366.422L785.597 431.515C783.832 433.011 782.582 435.025 782.025 437.271C781.469 439.517 781.633 441.882 782.496 444.029C783.358 446.176 784.875 447.998 786.83 449.235C788.786 450.472 791.082 451.062 793.391 450.921C795.701 450.781 797.908 449.916 799.699 448.451C801.49 446.986 802.775 444.994 803.37 442.757C803.965 440.521 803.842 438.154 803.016 435.992C802.191 433.83 800.706 431.983 798.772 430.712L799.688 430.551L808.843 365.504L793.743 299.891L767.853 313.789Z" fill="#FFB8B8"/>
<path d="M701.125 656.188C724.157 656.188 742.829 654.243 742.829 651.844C742.829 649.445 724.157 647.5 701.125 647.5C678.092 647.5 659.421 649.445 659.421 651.844C659.421 654.243 678.092 656.188 701.125 656.188Z" fill="#E6E6E6"/>
<path d="M824.498 656.188C847.53 656.188 866.202 654.243 866.202 651.844C866.202 649.445 847.53 647.5 824.498 647.5C801.465 647.5 782.794 649.445 782.794 651.844C782.794 654.243 801.465 656.188 824.498 656.188Z" fill="#E6E6E6"/>
<path d="M920.069 656.188C935.904 656.188 948.74 654.851 948.74 653.201C948.74 651.551 935.904 650.214 920.069 650.214C904.234 650.214 891.398 651.551 891.398 653.201C891.398 654.851 904.234 656.188 920.069 656.188Z" fill="#E6E6E6"/>
<path d="M928.27 630.563C928.072 638.008 926.826 645.387 924.57 652.484C924.518 652.649 924.464 652.811 924.41 652.976H910.586C910.601 652.829 910.616 652.664 910.63 652.484C911.552 641.884 916.866 577.392 910.512 566.363C911.07 567.257 929.346 596.892 928.27 630.563Z" fill="#E6E6E6"/>
<path d="M927.237 652.484C927.121 652.649 927.001 652.813 926.878 652.976H916.507C916.586 652.836 916.677 652.676 916.782 652.484C918.495 649.392 923.566 640.147 928.274 630.563C933.333 620.263 937.974 609.573 937.583 605.704C937.704 606.577 941.204 633.178 927.237 652.484Z" fill="#E6E6E6"/>
<path d="M637.482 415.91H7.58201C5.57187 415.908 3.64474 415.108 2.22335 413.687C0.801966 412.265 0.00238184 410.338 0 408.328V7.58201C0.0021177 5.57179 0.801619 3.6445 2.22306 2.22306C3.6445 0.801619 5.57179 0.0021177 7.58201 0H637.482C639.492 0.0021177 641.42 0.801619 642.841 2.22306C644.262 3.6445 645.062 5.57179 645.064 7.58201V408.328C645.062 410.338 644.262 412.265 642.841 413.687C641.419 415.108 639.492 415.908 637.482 415.91V415.91ZM7.58201 3C6.36719 3.00132 5.2025 3.48449 4.3435 4.3435C3.48449 5.2025 3.00133 6.36719 3.00001 7.58201V408.328C3.00133 409.543 3.48449 410.707 4.3435 411.566C5.2025 412.425 6.36719 412.909 7.58201 412.91H637.482C638.697 412.909 639.862 412.425 640.721 411.566C641.58 410.707 642.063 409.543 642.064 408.328V7.58201C642.063 6.36719 641.58 5.2025 640.721 4.3435C639.862 3.48449 638.697 3.00132 637.482 3H7.58201Z" fill="#E6E6E6"/>
<path d="M474.325 59.0811H140.583C138.944 59.0829 137.373 59.7348 136.214 60.8938C135.055 62.0527 134.403 63.6241 134.401 65.2631V350.646C134.403 352.285 135.055 353.856 136.214 355.015C137.373 356.174 138.944 356.826 140.583 356.828H474.325C475.964 356.826 477.535 356.174 478.694 355.015C479.853 353.856 480.505 352.285 480.507 350.646V65.2631C480.505 63.6241 479.853 62.0527 478.694 60.8938C477.535 59.7348 475.964 59.0829 474.325 59.0811V59.0811ZM478.025 350.647C478.024 351.63 477.635 352.572 476.942 353.268C476.248 353.965 475.307 354.358 474.325 354.363H140.583C139.6 354.36 138.658 353.967 137.964 353.27C137.27 352.574 136.882 351.63 136.883 350.647V65.2631C136.882 64.2799 137.27 63.3363 137.964 62.6396C138.658 61.9429 139.6 61.55 140.583 61.5471H474.325C475.307 61.5518 476.248 61.9453 476.942 62.6417C477.635 63.338 478.024 64.2804 478.025 65.2631V350.647Z" fill="#3F3D56"/>
<path d="M217.619 306.085C217.619 306.525 217.607 306.965 217.584 307.393C217.247 313.833 214.451 319.898 209.773 324.337C205.095 328.776 198.892 331.251 192.444 331.251C185.995 331.251 179.792 328.776 175.114 324.337C170.436 319.898 167.641 313.833 167.303 307.393C167.28 306.965 167.268 306.525 167.268 306.085C167.268 299.408 169.92 293.005 174.642 288.284C179.363 283.562 185.766 280.91 192.443 280.91C199.12 280.91 205.523 283.562 210.244 288.284C214.966 293.005 217.618 299.408 217.618 306.085H217.619Z" fill="#6C63FF"/>
<path d="M448.391 289.298H250.58C249.494 289.339 248.467 289.799 247.713 290.582C246.96 291.364 246.539 292.408 246.539 293.495C246.539 294.581 246.96 295.625 247.713 296.408C248.467 297.191 249.494 297.651 250.58 297.692H448.391C449.503 297.732 450.585 297.329 451.4 296.572C452.215 295.815 452.697 294.765 452.739 293.653C452.781 292.541 452.38 291.458 451.624 290.642C450.868 289.825 449.82 289.342 448.708 289.298C448.602 289.294 448.497 289.294 448.391 289.298Z" fill="#6C63FF"/>
<path d="M335.697 314.478H250.58C249.469 314.478 248.403 314.919 247.617 315.705C246.831 316.491 246.389 317.557 246.389 318.669C246.389 319.78 246.831 320.846 247.617 321.632C248.403 322.418 249.469 322.86 250.58 322.86H335.697C336.809 322.861 337.875 322.422 338.663 321.637C339.45 320.852 339.893 319.787 339.895 318.676C339.897 317.564 339.457 316.497 338.673 315.71C337.888 314.923 336.823 314.479 335.711 314.478H335.697Z" fill="#E6E6E6"/>
<path d="M553.614 258.163H219.87C218.001 258.161 216.209 257.417 214.888 256.096C213.566 254.774 212.823 252.982 212.821 251.114V104.648C212.823 102.779 213.566 100.987 214.888 99.6656C216.209 98.3441 218.001 97.6008 219.87 97.5986H553.61C555.479 97.6008 557.27 98.3441 558.592 99.6656C559.913 100.987 560.657 102.779 560.659 104.648V251.11C560.658 252.978 559.915 254.771 558.595 256.093C557.274 257.415 555.483 258.159 553.614 258.163V258.163Z" fill="#6C63FF"/>
<path d="M287.841 149.518C286.728 149.469 285.641 149.865 284.82 150.617C283.999 151.37 283.51 152.418 283.462 153.53C283.413 154.643 283.808 155.73 284.561 156.551C285.313 157.372 286.361 157.861 287.474 157.91C287.596 157.915 287.719 157.915 287.841 157.91H485.648C486.729 157.862 487.75 157.4 488.498 156.618C489.247 155.836 489.665 154.796 489.665 153.714C489.665 152.631 489.247 151.591 488.498 150.809C487.75 150.028 486.729 149.565 485.648 149.518H287.841Z" fill="white"/>
<path d="M287.841 173.831C286.728 173.783 285.641 174.178 284.82 174.931C283.999 175.683 283.51 176.731 283.462 177.844C283.413 178.957 283.808 180.043 284.561 180.865C285.313 181.686 286.361 182.175 287.474 182.223C287.596 182.228 287.719 182.228 287.841 182.223H485.648C486.729 182.176 487.75 181.713 488.498 180.931C489.247 180.15 489.665 179.109 489.665 178.027C489.665 176.945 489.247 175.905 488.498 175.123C487.75 174.341 486.729 173.878 485.648 173.831H287.841Z" fill="white"/>
<path d="M287.841 197.848C286.76 197.895 285.739 198.358 284.99 199.139C284.242 199.921 283.824 200.962 283.824 202.044C283.824 203.126 284.242 204.166 284.99 204.948C285.739 205.73 286.76 206.193 287.841 206.24H372.958C373.509 206.264 374.059 206.179 374.578 205.99C375.096 205.802 375.572 205.513 375.979 205.14C376.385 204.768 376.715 204.319 376.948 203.819C377.181 203.319 377.313 202.778 377.337 202.227C377.361 201.676 377.277 201.126 377.088 200.607C376.899 200.089 376.61 199.613 376.238 199.206C375.865 198.8 375.416 198.47 374.916 198.237C374.416 198.004 373.876 197.872 373.325 197.848C373.202 197.842 373.08 197.842 372.958 197.848H287.841Z" fill="white"/>
<path d="M26.9132 26.55C29.7923 26.55 32.1262 24.2161 32.1262 21.337C32.1262 18.458 29.7923 16.124 26.9132 16.124C24.0341 16.124 21.7002 18.458 21.7002 21.337C21.7002 24.2161 24.0341 26.55 26.9132 26.55Z" fill="#6C63FF"/>
<path d="M45.1578 26.55C48.0369 26.55 50.3708 24.2161 50.3708 21.337C50.3708 18.458 48.0369 16.124 45.1578 16.124C42.2788 16.124 39.9448 18.458 39.9448 21.337C39.9448 24.2161 42.2788 26.55 45.1578 26.55Z" fill="#6C63FF"/>
<path d="M63.4029 26.55C66.282 26.55 68.6159 24.2161 68.6159 21.337C68.6159 18.458 66.282 16.124 63.4029 16.124C60.5239 16.124 58.1899 18.458 58.1899 21.337C58.1899 24.2161 60.5239 26.55 63.4029 26.55Z" fill="#6C63FF"/>
<path d="M759.876 248.381C772.701 248.381 783.097 237.985 783.097 225.16C783.097 212.336 772.701 201.939 759.876 201.939C747.052 201.939 736.655 212.336 736.655 225.16C736.655 237.985 747.052 248.381 759.876 248.381Z" fill="#FFB8B8"/>
<path d="M713.947 348.997L774.934 360.343C795.495 322.675 806.834 288.662 787.699 266.735L751.532 264.607C728.423 289.319 708.878 313.301 722.158 330.561L713.947 348.997Z" fill="#6C63FF"/>
<path d="M768.256 319.42C782.213 324.76 795.167 320.12 807.056 304.899L789.434 270.899L766.979 275.349L768.256 319.42Z" fill="#6C63FF"/>
<path d="M708.27 631.24L732.381 630L747.981 466.717L827.406 629.117L852.226 628.408L804.718 485.863C802.843 438.307 800.883 390.875 780.607 370.271L773.516 355.379L716.784 343.323L708.984 358.215C690.897 400.448 701.516 521.118 708.27 631.24Z" fill="#2F2E41"/>
<path d="M737.346 304.322L717.49 358.222L681.485 409.459C679.176 409.61 676.973 410.483 675.188 411.956C673.403 413.429 672.127 415.426 671.54 417.665C670.954 419.903 671.088 422.27 671.922 424.428C672.756 426.587 674.249 428.428 676.188 429.691C678.127 430.953 680.415 431.573 682.727 431.463C685.038 431.352 687.256 430.517 689.066 429.075C690.876 427.634 692.187 425.659 692.811 423.431C693.436 421.202 693.343 418.834 692.547 416.661L693.378 417.077L739.473 370.277L766.421 308.577L737.346 304.322Z" fill="#FFB8B8"/>
<path d="M732.385 304.321C742.319 315.485 755.955 317.321 773.516 309.285V270.991L751.532 264.609L732.385 304.321Z" fill="#6C63FF"/>
<path d="M832.703 289.822C829.172 285.405 824.244 282.369 819.466 279.347C814.688 276.325 809.835 273.114 806.588 268.484C801.407 261.096 801.16 251.379 801.933 242.389C802.706 233.399 804.288 224.216 802.097 215.462C799.199 203.882 789.604 194.506 778.268 190.767C766.932 187.028 754.182 188.624 743.518 193.988L746.449 191.221C744.114 191.702 741.982 192.888 740.341 194.618C738.7 196.348 737.629 198.54 737.271 200.897C736.914 203.255 737.288 205.665 738.343 207.804C739.397 209.942 741.082 211.706 743.17 212.858C747.981 215.511 754.535 214.751 758.4 218.651C762.205 222.496 761.408 228.807 760.034 234.039C756.479 247.583 750.841 260.621 748.888 274.483C746.935 288.345 749.404 303.877 759.688 313.377C767.249 320.36 777.991 323.054 788.28 322.848C798.569 322.642 808.609 319.827 818.509 317.027C825.454 315.065 833.289 312.343 836.009 305.655C838.139 300.422 836.234 294.239 832.703 289.822Z" fill="#2F2E41"/>
<path d="M732.989 649.929L681.22 649.927V649.273C681.221 643.929 683.344 638.804 687.122 635.025C690.901 631.246 696.026 629.123 701.37 629.123H701.371L732.99 629.124L732.989 649.929Z" fill="#2F2E41"/>
<path d="M852.989 647.929L801.22 647.927V647.273C801.221 641.929 803.344 636.804 807.122 633.025C810.901 629.246 816.026 627.123 821.37 627.123H821.371L852.99 627.124L852.989 647.929Z" fill="#2F2E41"/>
</g>
<defs>
<clipPath id="clip0">
<rect width="948.74" height="656.188" fill="white"/>
</clipPath>
</defs>
</svg>
