<svg width="634" height="456" viewBox="0 0 634 456" fill="none" xmlns="http://www.w3.org/2000/svg">
<g clip-path="url(#clip0)">
<path d="M144.782 136.522C146.122 137.356 147.438 138.205 148.753 139.083C162.636 174.012 170.563 211.023 172.204 248.575C172.406 252.918 172.508 257.254 172.511 261.584C172.631 294.049 167.906 326.351 158.494 357.422C157.997 359.058 157.489 360.687 156.971 362.309C156.6 363.474 156.222 364.649 155.812 365.804C155.376 366.396 154.946 366.978 154.517 367.559C154.486 367.585 154.46 367.628 154.429 367.654C154.256 367.889 154.083 368.123 153.927 368.353C153.185 369.35 152.431 370.341 151.689 371.337L152.314 371.379L153.882 371.479L153.875 371.49C153.349 371.479 152.812 371.461 152.281 371.433C152.089 371.434 151.878 371.438 151.682 371.421C151.506 371.418 151.32 371.408 151.144 371.404C128.544 370.792 105.414 369.664 84.8481 360.422C63.3217 350.74 45.0615 329.807 45.9895 306.23C46.1201 303.142 46.5886 300.077 47.3866 297.092C47.7198 295.845 48.1135 294.619 48.5352 293.397C51.1022 285.911 55.6166 279.244 61.6141 274.082C67.6116 268.919 74.8759 265.447 82.6601 264.022C90.4443 262.597 98.4675 263.272 105.905 265.975C113.342 268.679 119.925 273.315 124.977 279.406C118.808 255.161 92.3235 242.789 68.4697 235.268C44.5985 227.75 17.7411 219.887 5.54543 198.042C-1.26362 185.886 -1.42757 171.722 3.01543 158.643C3.15069 158.252 3.29275 157.851 3.44548 157.455C9.0412 142.067 20.2374 129.356 34.797 121.864C62.0764 108.358 95.2243 113.123 123.175 125.178C130.654 128.408 137.877 132.2 144.782 136.522V136.522Z" fill="#F2F2F2"/>
<path d="M66.5937 293.497C88.0354 295.468 108.274 304.286 124.318 318.647C137.982 331.014 148.064 346.832 153.507 364.44C153.824 365.448 154.112 366.453 154.383 367.463C154.925 366.432 155.451 365.377 155.971 364.333C156.306 363.664 156.647 362.985 156.971 362.309C156.6 363.474 156.222 364.649 155.812 365.804C155.376 366.397 154.946 366.978 154.517 367.559C154.486 367.585 154.46 367.628 154.429 367.654C154.256 367.889 154.083 368.123 153.928 368.353C153.185 369.35 152.431 370.341 151.689 371.337L152.314 371.38L153.882 371.479L153.875 371.49C153.349 371.479 152.812 371.461 152.282 371.433C152.089 371.434 151.879 371.438 151.682 371.421C151.617 371.116 151.535 370.814 151.453 370.512C145.898 347.77 132.3 327.807 113.171 314.312C94.0417 300.816 70.6748 294.699 47.3868 297.091C47.72 295.844 48.1137 294.619 48.5354 293.397C54.5463 292.905 60.5886 292.938 66.5937 293.497Z" fill="white"/>
<path d="M137.835 203.819C146.438 210.265 154.054 217.933 160.44 226.58C163.768 231.19 166.659 236.1 169.076 241.246C170.222 243.633 171.265 246.092 172.204 248.575C172.406 252.918 172.509 257.254 172.512 261.584C171.714 258.311 170.742 255.083 169.6 251.914C169.006 250.173 168.347 248.468 167.646 246.781C159.784 227.897 145.54 212.986 128.74 201.649C110.739 189.519 90.4439 180.413 69.8765 173.642C48.7983 166.671 26.945 162.309 4.80553 160.655C4.30554 160.615 3.84042 160.383 3.50704 160.008C3.17366 159.633 2.9977 159.145 3.0158 158.643C2.99879 158.206 3.15311 157.78 3.44585 157.455C3.60138 157.303 3.79045 157.189 3.99791 157.123C4.20538 157.057 4.42544 157.041 4.6404 157.075C7.3725 157.28 10.0975 157.496 12.8224 157.785C35.4948 160.12 57.7888 165.266 79.1909 173.104C99.8515 180.643 120.299 190.419 137.835 203.819Z" fill="white"/>
<path d="M25.4963 99.3749C29.6816 99.3749 33.0744 95.9821 33.0744 91.7968C33.0744 87.6116 29.6816 84.2188 25.4963 84.2188C21.311 84.2188 17.9182 87.6116 17.9182 91.7968C17.9182 95.9821 21.311 99.3749 25.4963 99.3749Z" fill="#F2F2F2"/>
<path d="M491.046 161.755H147.046V454.755H491.046V161.755Z" fill="white"/>
<path d="M492.046 455.755H146.046V160.755H492.046V455.755ZM148.046 453.755H490.046V162.755H148.046V453.755Z" fill="#3F3D56"/>
<path d="M362.046 218.755H276.046V454.755H362.046V218.755Z" fill="#6C63FF"/>
<path d="M362.046 218.755H276.046V454.755H362.046V218.755Z" fill="#6C63FF"/>
<path opacity="0.2" d="M148.046 183.255V230.793L491.046 252.755L490.035 194.097L148.046 183.255Z" fill="black"/>
<path d="M511.046 134.755H127.046V218.755H511.046V134.755Z" fill="white"/>
<path d="M512.046 219.755H126.046V133.755H512.046V219.755ZM128.046 217.755H510.046V135.755H128.046V217.755Z" fill="#3F3D56"/>
<path d="M362.046 126.755H276.046V217.755H362.046V126.755Z" fill="#6C63FF"/>
<path d="M309.838 47.4116C332.54 81.0632 311.151 135.187 311.151 135.187C311.151 135.187 252.956 134.751 230.254 101.099C207.553 67.4476 228.942 13.3237 228.942 13.3237C228.942 13.3237 287.137 13.76 309.838 47.4116Z" fill="#6C63FF"/>
<path d="M320.254 47.4116C297.553 81.0632 318.942 135.187 318.942 135.187C318.942 135.187 377.137 134.751 399.838 101.099C422.54 67.4476 401.151 13.3237 401.151 13.3237C401.151 13.3237 342.956 13.76 320.254 47.4116Z" fill="#6C63FF"/>
<path d="M259.046 72.7554C264.017 72.7554 268.046 68.7259 268.046 63.7554C268.046 58.7848 264.017 54.7554 259.046 54.7554C254.076 54.7554 250.046 58.7848 250.046 63.7554C250.046 68.7259 254.076 72.7554 259.046 72.7554Z" fill="#3F3D56"/>
<path d="M313.046 163.755C318.017 163.755 322.046 159.726 322.046 154.755C322.046 149.785 318.017 145.755 313.046 145.755C308.076 145.755 304.046 149.785 304.046 154.755C304.046 159.726 308.076 163.755 313.046 163.755Z" fill="#3F3D56"/>
<path d="M313.046 360.755C318.017 360.755 322.046 356.726 322.046 351.755C322.046 346.785 318.017 342.755 313.046 342.755C308.076 342.755 304.046 346.785 304.046 351.755C304.046 356.726 308.076 360.755 313.046 360.755Z" fill="#3F3D56"/>
<path d="M283.046 102.755C286.36 102.755 289.046 100.069 289.046 96.7554C289.046 93.4417 286.36 90.7554 283.046 90.7554C279.733 90.7554 277.046 93.4417 277.046 96.7554C277.046 100.069 279.733 102.755 283.046 102.755Z" fill="#3F3D56"/>
<path d="M373.046 51.7554C376.36 51.7554 379.046 49.0691 379.046 45.7554C379.046 42.4417 376.36 39.7554 373.046 39.7554C369.733 39.7554 367.046 42.4417 367.046 45.7554C367.046 49.0691 369.733 51.7554 373.046 51.7554Z" fill="#3F3D56"/>
<path d="M334.046 192.755C337.36 192.755 340.046 190.069 340.046 186.755C340.046 183.442 337.36 180.755 334.046 180.755C330.733 180.755 328.046 183.442 328.046 186.755C328.046 190.069 330.733 192.755 334.046 192.755Z" fill="#3F3D56"/>
<path d="M298.046 270.755C301.36 270.755 304.046 268.069 304.046 264.755C304.046 261.442 301.36 258.755 298.046 258.755C294.733 258.755 292.046 261.442 292.046 264.755C292.046 268.069 294.733 270.755 298.046 270.755Z" fill="#3F3D56"/>
<path d="M329.046 297.755C332.36 297.755 335.046 295.069 335.046 291.755C335.046 288.442 332.36 285.755 329.046 285.755C325.733 285.755 323.046 288.442 323.046 291.755C323.046 295.069 325.733 297.755 329.046 297.755Z" fill="#3F3D56"/>
<path d="M322.046 410.755C325.36 410.755 328.046 408.069 328.046 404.755C328.046 401.442 325.36 398.755 322.046 398.755C318.733 398.755 316.046 401.442 316.046 404.755C316.046 408.069 318.733 410.755 322.046 410.755Z" fill="#3F3D56"/>
<path d="M622.257 299.323H439.22V455.223H622.257V299.323Z" fill="white"/>
<path d="M622.789 455.755H438.688V298.791H622.789V455.755ZM439.752 454.691H621.725V299.855H439.752V454.691Z" fill="#3F3D56"/>
<path d="M553.618 329.652H507.859V455.223H553.618V329.652Z" fill="#6C63FF"/>
<path d="M553.618 329.652H507.859V455.223H553.618V329.652Z" fill="#6C63FF"/>
<path opacity="0.2" d="M439.752 310.763V336.057L622.257 347.742L621.719 316.532L439.752 310.763Z" fill="black"/>
<path d="M632.898 284.957H428.578V329.652H632.898V284.957Z" fill="white"/>
<path d="M633.43 330.184H428.046V284.425H633.43V330.184ZM429.11 329.12H632.366V285.489H429.11V329.12Z" fill="#3F3D56"/>
<path d="M553.618 280.7H507.859V329.12H553.618V280.7Z" fill="#6C63FF"/>
<path d="M525.839 238.483C537.918 256.388 526.537 285.186 526.537 285.186C526.537 285.186 495.572 284.954 483.493 267.049C471.414 249.143 482.795 220.345 482.795 220.345C482.795 220.345 513.76 220.577 525.839 238.483Z" fill="#6C63FF"/>
<path d="M531.381 238.483C519.302 256.388 530.683 285.186 530.683 285.186C530.683 285.186 561.647 284.954 573.726 267.049C585.805 249.143 574.425 220.345 574.425 220.345C574.425 220.345 543.46 220.577 531.381 238.483Z" fill="#6C63FF"/>
<path d="M498.813 251.967C501.458 251.967 503.602 249.823 503.602 247.179C503.602 244.534 501.458 242.39 498.813 242.39C496.169 242.39 494.025 244.534 494.025 247.179C494.025 249.823 496.169 251.967 498.813 251.967Z" fill="#3F3D56"/>
<path d="M527.546 300.387C530.191 300.387 532.335 298.243 532.335 295.598C532.335 292.954 530.191 290.81 527.546 290.81C524.901 290.81 522.757 292.954 522.757 295.598C522.757 298.243 524.901 300.387 527.546 300.387Z" fill="#3F3D56"/>
<path d="M527.546 405.207C530.191 405.207 532.335 403.063 532.335 400.419C532.335 397.774 530.191 395.63 527.546 395.63C524.901 395.63 522.757 397.774 522.757 400.419C522.757 403.063 524.901 405.207 527.546 405.207Z" fill="#3F3D56"/>
<path d="M511.583 267.93C513.346 267.93 514.776 266.501 514.776 264.737C514.776 262.974 513.346 261.545 511.583 261.545C509.82 261.545 508.391 262.974 508.391 264.737C508.391 266.501 509.82 267.93 511.583 267.93Z" fill="#3F3D56"/>
<path d="M559.471 240.794C561.234 240.794 562.663 239.364 562.663 237.601C562.663 235.838 561.234 234.409 559.471 234.409C557.708 234.409 556.278 235.838 556.278 237.601C556.278 239.364 557.708 240.794 559.471 240.794Z" fill="#3F3D56"/>
<path d="M538.719 315.817C540.483 315.817 541.912 314.388 541.912 312.625C541.912 310.862 540.483 309.432 538.719 309.432C536.956 309.432 535.527 310.862 535.527 312.625C535.527 314.388 536.956 315.817 538.719 315.817Z" fill="#3F3D56"/>
<path d="M519.565 357.32C521.328 357.32 522.757 355.891 522.757 354.128C522.757 352.364 521.328 350.935 519.565 350.935C517.801 350.935 516.372 352.364 516.372 354.128C516.372 355.891 517.801 357.32 519.565 357.32Z" fill="#3F3D56"/>
<path d="M536.059 371.686C537.822 371.686 539.252 370.257 539.252 368.494C539.252 366.731 537.822 365.301 536.059 365.301C534.296 365.301 532.867 366.731 532.867 368.494C532.867 370.257 534.296 371.686 536.059 371.686Z" fill="#3F3D56"/>
<path d="M532.335 431.811C534.098 431.811 535.527 430.382 535.527 428.619C535.527 426.856 534.098 425.427 532.335 425.427C530.571 425.427 529.142 426.856 529.142 428.619C529.142 430.382 530.571 431.811 532.335 431.811Z" fill="#3F3D56"/>
<path d="M307.311 383.397C308.911 380.024 301.497 373.158 290.751 368.061C280.006 362.965 269.998 361.568 268.398 364.941C266.798 368.315 274.212 375.181 284.958 380.277C295.703 385.374 305.711 386.77 307.311 383.397Z" fill="#2F2E41"/>
<path d="M395.994 418.141C398.856 415.745 394.988 406.41 387.353 397.291C379.718 388.172 371.208 382.723 368.346 385.12C365.483 387.517 369.352 396.852 376.987 405.97C384.621 415.089 393.131 420.538 395.994 418.141Z" fill="#2F2E41"/>
<path d="M336.363 437.22C360.148 437.22 379.43 417.938 379.43 394.153C379.43 370.367 360.148 351.085 336.363 351.085C312.577 351.085 293.295 370.367 293.295 394.153C293.295 417.938 312.577 437.22 336.363 437.22Z" fill="#2F2E41"/>
<path d="M354.591 427.952H341.508V451.394H354.591V427.952Z" fill="#2F2E41"/>
<path d="M328.424 427.952H315.34V451.394H328.424V427.952Z" fill="#2F2E41"/>
<path d="M343.688 455.755C349.71 455.755 354.591 453.925 354.591 451.667C354.591 449.408 349.71 447.578 343.688 447.578C337.667 447.578 332.785 449.408 332.785 451.667C332.785 453.925 337.667 455.755 343.688 455.755Z" fill="#2F2E41"/>
<path d="M317.521 455.21C323.542 455.21 328.424 453.38 328.424 451.121C328.424 448.863 323.542 447.033 317.521 447.033C311.499 447.033 306.618 448.863 306.618 451.121C306.618 453.38 311.499 455.21 317.521 455.21Z" fill="#2F2E41"/>
<path d="M322.84 340.016C326.685 324.529 343.66 315.415 360.755 319.66C377.849 323.904 388.589 339.9 384.743 355.387C380.898 370.874 368.139 370.924 351.045 366.679C333.951 362.435 318.994 355.503 322.84 340.016Z" fill="#E6E6E6"/>
<path d="M329.924 399.424C337.854 399.424 344.283 392.995 344.283 385.065C344.283 377.135 337.854 370.707 329.924 370.707C321.994 370.707 315.565 377.135 315.565 385.065C315.565 392.995 321.994 399.424 329.924 399.424Z" fill="white"/>
<path d="M324.023 384.705C326.666 384.705 328.809 382.562 328.809 379.919C328.809 377.275 326.666 375.132 324.023 375.132C321.379 375.132 319.236 377.275 319.236 379.919C319.236 382.562 321.379 384.705 324.023 384.705Z" fill="#3F3D56"/>
<path d="M338.931 414.981C339.157 416.217 339.136 417.486 338.871 418.715C338.605 419.944 338.101 421.108 337.385 422.142C336.67 423.176 335.758 424.058 334.702 424.74C333.645 425.421 332.465 425.888 331.228 426.113C329.991 426.338 328.722 426.317 327.494 426.052C326.265 425.787 325.1 425.282 324.067 424.567C323.033 423.851 322.15 422.939 321.469 421.883C320.788 420.826 320.321 419.646 320.096 418.409V418.409L320.093 418.391C319.151 413.189 323.173 411.348 328.375 410.406C333.577 409.464 337.99 409.778 338.931 414.981Z" fill="white"/>
<path d="M423.435 69.799C434.427 65.2589 442.182 58.7811 440.757 55.3304C439.332 51.8796 429.266 52.7628 418.274 57.3029C407.282 61.843 399.526 68.3208 400.952 71.7715C402.377 75.2222 412.443 74.3391 423.435 69.799Z" fill="#2F2E41"/>
<path d="M528.994 99.5231C531.856 97.1263 527.988 87.7913 520.353 78.6727C512.718 69.5542 504.208 64.1051 501.346 66.5018C498.483 68.8986 502.352 78.2336 509.987 87.3522C517.621 96.4708 526.131 101.92 528.994 99.5231Z" fill="#2F2E41"/>
<path d="M469.363 118.602C493.148 118.602 512.43 99.32 512.43 75.5346C512.43 51.7492 493.148 32.4673 469.363 32.4673C445.577 32.4673 426.295 51.7492 426.295 75.5346C426.295 99.32 445.577 118.602 469.363 118.602Z" fill="#2F2E41"/>
<path d="M487.591 109.334H474.508V132.776H487.591V109.334Z" fill="#2F2E41"/>
<path d="M461.424 109.334H448.34V132.776H461.424V109.334Z" fill="#2F2E41"/>
<path d="M476.688 137.137C482.71 137.137 487.591 135.307 487.591 133.048C487.591 130.79 482.71 128.96 476.688 128.96C470.667 128.96 465.785 130.79 465.785 133.048C465.785 135.307 470.667 137.137 476.688 137.137Z" fill="#2F2E41"/>
<path d="M450.521 136.592C456.542 136.592 461.424 134.761 461.424 132.503C461.424 130.245 456.542 128.415 450.521 128.415C444.499 128.415 439.618 130.245 439.618 132.503C439.618 134.761 444.499 136.592 450.521 136.592Z" fill="#2F2E41"/>
<path d="M455.84 21.3976C459.685 5.91062 476.66 -3.20315 493.755 1.04145C510.849 5.28605 521.589 21.2817 517.743 36.7687C513.898 52.2557 501.139 52.3057 484.045 48.0611C466.951 43.8165 451.994 36.8846 455.84 21.3976Z" fill="#6C63FF"/>
<path d="M462.924 80.8057C470.854 80.8057 477.283 74.3771 477.283 66.447C477.283 58.517 470.854 52.0884 462.924 52.0884C454.994 52.0884 448.565 58.517 448.565 66.447C448.565 74.3771 454.994 80.8057 462.924 80.8057Z" fill="white"/>
<path d="M457.023 73.0863C459.666 73.0863 461.809 70.9435 461.809 68.3001C461.809 65.6568 459.666 63.5139 457.023 63.5139C454.379 63.5139 452.236 65.6568 452.236 68.3001C452.236 70.9435 454.379 73.0863 457.023 73.0863Z" fill="#3F3D56"/>
<path d="M471.931 96.3624C472.386 98.8601 471.83 101.436 470.385 103.524C468.941 105.612 466.726 107.04 464.228 107.494C461.73 107.949 459.154 107.393 457.067 105.948C454.979 104.504 453.551 102.289 453.096 99.7912L453.093 99.7728C452.151 94.5706 456.173 92.7298 461.375 91.788C466.577 90.8463 470.99 91.1603 471.931 96.3624Z" fill="white"/>
<path d="M100.885 437.22C124.67 437.22 143.952 417.938 143.952 394.153C143.952 370.367 124.67 351.085 100.885 351.085C77.0992 351.085 57.8173 370.367 57.8173 394.153C57.8173 417.938 77.0992 437.22 100.885 437.22Z" fill="#2F2E41"/>
<path d="M94.3428 427.952H81.259V451.394H94.3428V427.952Z" fill="#2F2E41"/>
<path d="M120.51 427.952H107.427V451.394H120.51V427.952Z" fill="#2F2E41"/>
<path d="M92.162 455.755C98.1837 455.755 103.065 453.925 103.065 451.667C103.065 449.408 98.1837 447.578 92.162 447.578C86.1404 447.578 81.2589 449.408 81.2589 451.667C81.2589 453.925 86.1404 455.755 92.162 455.755Z" fill="#2F2E41"/>
<path d="M118.33 455.21C124.351 455.21 129.233 453.38 129.233 451.121C129.233 448.863 124.351 447.033 118.33 447.033C112.308 447.033 107.427 448.863 107.427 451.121C107.427 453.38 112.308 455.21 118.33 455.21Z" fill="#2F2E41"/>
<path d="M59.1079 354.101C55.6304 338.527 66.7465 322.791 83.9365 318.952C101.127 315.114 117.881 324.628 121.358 340.201C124.836 355.775 113.443 361.519 96.2534 365.357C79.0634 369.196 62.5854 369.675 59.1079 354.101Z" fill="#6C63FF"/>
<path d="M147.294 375.333C156.621 365.999 161.807 356.058 158.876 353.13C155.946 350.202 146.01 355.396 136.683 364.73C127.356 374.064 122.17 384.004 125.1 386.933C128.031 389.861 137.967 384.667 147.294 375.333Z" fill="#2F2E41"/>
<path d="M66.1708 389.933C69.1011 387.005 63.9156 377.064 54.5886 367.73C45.2616 358.396 35.3251 353.202 32.3948 356.13C29.4646 359.059 34.6501 368.999 43.9771 378.333C53.3041 387.667 63.2406 392.861 66.1708 389.933Z" fill="#2F2E41"/>
<path d="M99.0726 402.768C107.202 402.768 113.792 396.178 113.792 388.049C113.792 379.92 107.202 373.33 99.0726 373.33C90.9434 373.33 84.3534 379.92 84.3534 388.049C84.3534 396.178 90.9434 402.768 99.0726 402.768Z" fill="white"/>
<path d="M99.0726 392.956C101.782 392.956 103.979 390.759 103.979 388.049C103.979 385.34 101.782 383.143 99.0726 383.143C96.3628 383.143 94.1661 385.34 94.1661 388.049C94.1661 390.759 96.3628 392.956 99.0726 392.956Z" fill="#3F3D56"/>
<path d="M110.757 415.272C110.982 416.509 110.962 417.778 110.696 419.006C110.431 420.235 109.926 421.4 109.211 422.433C108.496 423.467 107.584 424.35 106.527 425.031C105.471 425.712 104.291 426.179 103.054 426.404C101.817 426.629 100.548 426.608 99.3194 426.343C98.0906 426.078 96.9261 425.573 95.8924 424.858C94.8587 424.143 93.976 423.231 93.2947 422.174C92.6135 421.118 92.1469 419.937 91.9218 418.701V418.701L91.9184 418.682C90.9767 413.48 94.9988 411.639 100.201 410.697C105.403 409.756 109.815 410.07 110.757 415.272Z" fill="white"/>
</g>
<defs>
<clipPath id="clip0">
<rect width="633.43" height="455.755" fill="white"/>
</clipPath>
</defs>
</svg>
