<svg width="840" height="728" viewBox="0 0 840 728" fill="none" xmlns="http://www.w3.org/2000/svg">
<g clip-path="url(#clip0)">
<g opacity="0.5">
<path opacity="0.5" d="M127.51 129.51H124.18V148.38H127.51V129.51Z" fill="#47E6B1"/>
<path opacity="0.5" d="M135.28 140.61V137.28H116.41V140.61H135.28Z" fill="#47E6B1"/>
</g>
<g opacity="0.5">
<path opacity="0.5" d="M245.88 540.19H242.55V559.06H245.88V540.19Z" fill="#47E6B1"/>
<path opacity="0.5" d="M253.64 551.29V547.96H234.77V551.29H253.64Z" fill="#47E6B1"/>
</g>
<g opacity="0.5">
<path opacity="0.5" d="M80.1901 321H76.8601V339.87H80.1901V321Z" fill="#47E6B1"/>
<path opacity="0.5" d="M87.96 332.1V328.77H69.09V332.1H87.96Z" fill="#47E6B1"/>
</g>
<g opacity="0.5">
<path opacity="0.5" d="M663.19 0H659.86V18.87H663.19V0Z" fill="#47E6B1"/>
<path opacity="0.5" d="M670.96 11.1V7.77002L652.09 7.77002V11.1L670.96 11.1Z" fill="#47E6B1"/>
</g>
<g opacity="0.5">
<path opacity="0.5" d="M101.3 46.9302H97.97V65.8002H101.3V46.9302Z" fill="#47E6B1"/>
<path opacity="0.5" d="M109.06 58.0302V54.7002H90.1901V58.0302H109.06Z" fill="#47E6B1"/>
</g>
<path opacity="0.5" d="M165.1 472.85C164.183 472.45 163.445 471.726 163.026 470.817C162.608 469.908 162.538 468.877 162.83 467.92C162.877 467.774 162.907 467.623 162.92 467.47V467.47C162.987 467.016 162.896 466.553 162.663 466.159C162.429 465.764 162.067 465.461 161.637 465.302C161.206 465.142 160.735 465.136 160.3 465.283C159.866 465.43 159.495 465.722 159.25 466.11V466.11C159.158 466.234 159.081 466.368 159.02 466.51C158.62 467.427 157.896 468.165 156.987 468.584C156.078 469.002 155.047 469.072 154.09 468.78C153.944 468.733 153.793 468.703 153.64 468.69V468.69C153.186 468.623 152.723 468.714 152.328 468.948C151.934 469.181 151.631 469.544 151.472 469.974C151.312 470.404 151.306 470.876 151.453 471.31C151.6 471.745 151.892 472.115 152.28 472.36V472.36C152.404 472.452 152.538 472.529 152.68 472.59C153.597 472.991 154.335 473.714 154.754 474.623C155.172 475.532 155.242 476.563 154.95 477.52C154.903 477.666 154.873 477.817 154.86 477.97V477.97C154.793 478.424 154.884 478.887 155.117 479.282C155.351 479.677 155.713 479.979 156.144 480.139C156.574 480.298 157.046 480.305 157.48 480.157C157.915 480.01 158.285 479.718 158.53 479.33C158.622 479.206 158.699 479.072 158.76 478.93C159.16 478.013 159.884 477.275 160.793 476.857C161.702 476.438 162.733 476.368 163.69 476.66C163.836 476.707 163.987 476.738 164.14 476.75C164.594 476.817 165.057 476.727 165.452 476.493C165.847 476.259 166.149 475.897 166.308 475.467C166.468 475.037 166.475 474.565 166.327 474.13C166.18 473.696 165.888 473.325 165.5 473.08V473.08C165.376 472.988 165.242 472.911 165.1 472.85Z" fill="#4D8AF0"/>
<path opacity="0.5" d="M148.6 652.2C147.683 651.799 146.945 651.076 146.526 650.167C146.108 649.258 146.038 648.227 146.33 647.27C146.377 647.124 146.407 646.973 146.42 646.82V646.82C146.487 646.366 146.396 645.903 146.163 645.508C145.929 645.113 145.567 644.811 145.136 644.651C144.706 644.492 144.234 644.485 143.8 644.633C143.365 644.78 142.995 645.072 142.75 645.46C142.658 645.584 142.581 645.718 142.52 645.86C142.121 646.777 141.4 647.515 140.493 647.935C139.587 648.356 138.557 648.428 137.6 648.14C137.454 648.093 137.303 648.062 137.15 648.05V648.05C136.696 647.983 136.233 648.073 135.838 648.307C135.443 648.541 135.141 648.903 134.982 649.333C134.822 649.763 134.815 650.235 134.963 650.67C135.11 651.104 135.402 651.475 135.79 651.72V651.72C135.914 651.812 136.048 651.889 136.19 651.95C137.107 652.35 137.845 653.074 138.264 653.983C138.682 654.892 138.752 655.923 138.46 656.88C138.413 657.026 138.383 657.177 138.37 657.33C138.303 657.784 138.394 658.247 138.627 658.641C138.861 659.036 139.223 659.339 139.653 659.498C140.084 659.658 140.555 659.664 140.99 659.517C141.424 659.37 141.795 659.078 142.04 658.69V658.69C142.132 658.566 142.209 658.432 142.27 658.29C142.67 657.373 143.394 656.635 144.303 656.216C145.212 655.798 146.243 655.728 147.2 656.02C147.346 656.067 147.497 656.097 147.65 656.11C148.104 656.177 148.567 656.086 148.962 655.852C149.356 655.619 149.659 655.257 149.818 654.826C149.978 654.396 149.984 653.924 149.837 653.49C149.69 653.055 149.398 652.685 149.01 652.44V652.44C148.883 652.344 148.746 652.263 148.6 652.2V652.2Z" fill="#4D8AF0"/>
<path opacity="0.5" d="M755.6 255.2C754.683 254.799 753.945 254.076 753.526 253.167C753.108 252.258 753.038 251.227 753.33 250.27C753.377 250.124 753.407 249.973 753.42 249.82C753.487 249.366 753.396 248.903 753.163 248.508C752.929 248.113 752.567 247.811 752.136 247.651C751.706 247.492 751.234 247.485 750.8 247.633C750.365 247.78 749.995 248.072 749.75 248.46V248.46C749.658 248.584 749.581 248.718 749.52 248.86C749.121 249.777 748.4 250.515 747.493 250.935C746.587 251.356 745.557 251.428 744.6 251.14C744.454 251.093 744.303 251.062 744.15 251.05V251.05C743.696 250.983 743.233 251.073 742.838 251.307C742.443 251.541 742.141 251.903 741.982 252.333C741.822 252.763 741.815 253.235 741.963 253.67C742.11 254.104 742.402 254.475 742.79 254.72C742.914 254.812 743.048 254.889 743.19 254.95C744.107 255.35 744.845 256.074 745.264 256.983C745.682 257.892 745.752 258.923 745.46 259.88C745.413 260.026 745.383 260.177 745.37 260.33C745.303 260.784 745.394 261.247 745.627 261.642C745.861 262.036 746.223 262.339 746.653 262.498C747.084 262.658 747.555 262.664 747.99 262.517C748.424 262.37 748.795 262.078 749.04 261.69V261.69C749.132 261.566 749.209 261.432 749.27 261.29C749.67 260.373 750.394 259.635 751.303 259.216C752.212 258.798 753.243 258.728 754.2 259.02C754.346 259.067 754.497 259.097 754.65 259.11V259.11C755.104 259.177 755.567 259.086 755.962 258.852C756.356 258.619 756.659 258.257 756.818 257.826C756.978 257.396 756.984 256.924 756.837 256.49C756.69 256.055 756.398 255.685 756.01 255.44V255.44C755.883 255.344 755.746 255.263 755.6 255.2V255.2Z" fill="#4D8AF0"/>
<path opacity="0.5" d="M728.13 444.54C727.213 444.14 726.475 443.416 726.056 442.507C725.638 441.598 725.568 440.567 725.86 439.61C725.907 439.464 725.937 439.313 725.95 439.16C726.017 438.706 725.926 438.243 725.693 437.848C725.459 437.454 725.097 437.151 724.666 436.992C724.236 436.832 723.764 436.826 723.33 436.973C722.895 437.12 722.525 437.412 722.28 437.8V437.8C722.188 437.924 722.111 438.058 722.05 438.2C721.65 439.117 720.926 439.855 720.017 440.274C719.108 440.692 718.077 440.762 717.12 440.47C716.974 440.423 716.823 440.393 716.67 440.38V440.38C716.216 440.313 715.753 440.404 715.358 440.638C714.963 440.871 714.661 441.233 714.502 441.664C714.342 442.094 714.335 442.566 714.483 443C714.63 443.435 714.922 443.805 715.31 444.05C715.434 444.142 715.568 444.219 715.71 444.28C716.627 444.681 717.365 445.404 717.784 446.313C718.202 447.222 718.272 448.253 717.98 449.21C717.933 449.356 717.903 449.507 717.89 449.66V449.66C717.823 450.114 717.914 450.577 718.147 450.972C718.381 451.367 718.743 451.669 719.173 451.828C719.604 451.988 720.075 451.995 720.51 451.847C720.944 451.7 721.315 451.408 721.56 451.02V451.02C721.652 450.896 721.729 450.762 721.79 450.62C722.19 449.703 722.914 448.965 723.823 448.547C724.732 448.128 725.763 448.058 726.72 448.35C726.866 448.397 727.017 448.428 727.17 448.44C727.624 448.507 728.087 448.416 728.482 448.183C728.876 447.949 729.179 447.587 729.338 447.157C729.498 446.727 729.504 446.255 729.357 445.82C729.21 445.386 728.918 445.015 728.53 444.77V444.77C728.406 444.678 728.272 444.601 728.13 444.54Z" fill="#4D8AF0"/>
<path opacity="0.5" d="M748.6 67.2101C747.683 66.8097 746.945 66.0862 746.526 65.1773C746.108 64.2683 746.038 63.2372 746.33 62.2801C746.377 62.134 746.407 61.983 746.42 61.8301C746.487 61.3763 746.396 60.9131 746.163 60.5184C745.929 60.1236 745.567 59.8211 745.136 59.6617C744.706 59.5023 744.234 59.4956 743.8 59.6428C743.365 59.79 742.995 60.082 742.75 60.4701V60.4701C742.658 60.5941 742.581 60.7283 742.52 60.8701C742.12 61.7872 741.396 62.5252 740.487 62.9437C739.578 63.3622 738.547 63.4321 737.59 63.1401C737.444 63.0929 737.293 63.0627 737.14 63.0501V63.0501C736.686 62.9829 736.223 63.0737 735.828 63.3074C735.433 63.5411 735.131 63.9034 734.972 64.3335C734.812 64.7637 734.805 65.2356 734.953 65.6701C735.1 66.1046 735.392 66.4753 735.78 66.7201V66.7201C735.904 66.8119 736.038 66.8891 736.18 66.9501C737.097 67.3504 737.835 68.0739 738.254 68.9829C738.672 69.8918 738.742 70.9229 738.45 71.8801C738.403 72.0261 738.373 72.1771 738.36 72.3301V72.3301C738.293 72.7839 738.384 73.247 738.617 73.6418C738.851 74.0365 739.213 74.339 739.643 74.4984C740.074 74.6578 740.545 74.6645 740.98 74.5173C741.414 74.3701 741.785 74.0781 742.03 73.6901C742.122 73.566 742.199 73.4318 742.26 73.2901C742.66 72.3729 743.384 71.6349 744.293 71.2164C745.202 70.7979 746.233 70.728 747.19 71.0201C747.336 71.0672 747.487 71.0974 747.64 71.1101C748.094 71.1773 748.557 71.0864 748.952 70.8527C749.346 70.6191 749.649 70.2568 749.808 69.8266C749.968 69.3964 749.974 68.9245 749.827 68.49C749.68 68.0555 749.388 67.6848 749 67.4401V67.4401C748.876 67.3482 748.742 67.271 748.6 67.2101V67.2101Z" fill="#4D8AF0"/>
<path opacity="0.5" d="M812.82 559.26C811.903 558.859 811.165 558.136 810.746 557.227C810.328 556.318 810.258 555.287 810.55 554.33C810.597 554.184 810.627 554.033 810.64 553.88C810.707 553.426 810.616 552.963 810.383 552.568C810.149 552.173 809.787 551.871 809.356 551.712C808.926 551.552 808.454 551.545 808.02 551.693C807.585 551.84 807.215 552.132 806.97 552.52V552.52C806.878 552.644 806.801 552.778 806.74 552.92C806.339 553.837 805.616 554.575 804.707 554.994C803.798 555.412 802.767 555.482 801.81 555.19C801.664 555.143 801.513 555.112 801.36 555.1V555.1C800.906 555.033 800.443 555.123 800.048 555.357C799.653 555.591 799.351 555.953 799.192 556.383C799.032 556.813 799.025 557.285 799.173 557.72C799.32 558.154 799.612 558.525 800 558.77C800.124 558.862 800.258 558.939 800.4 559C801.317 559.4 802.055 560.124 802.474 561.033C802.892 561.942 802.962 562.973 802.67 563.93C802.623 564.076 802.592 564.227 802.58 564.38V564.38C802.513 564.834 802.603 565.297 802.837 565.692C803.071 566.086 803.433 566.389 803.863 566.548C804.294 566.708 804.765 566.714 805.2 566.567C805.634 566.42 806.005 566.128 806.25 565.74V565.74C806.342 565.616 806.419 565.482 806.48 565.34C806.88 564.423 807.604 563.685 808.513 563.266C809.422 562.848 810.453 562.778 811.41 563.07C811.556 563.117 811.707 563.147 811.86 563.16C812.314 563.227 812.777 563.136 813.172 562.903C813.566 562.669 813.869 562.307 814.028 561.876C814.188 561.446 814.194 560.974 814.047 560.54C813.9 560.105 813.608 559.735 813.22 559.49V559.49C813.096 559.398 812.962 559.321 812.82 559.26Z" fill="#4D8AF0"/>
<path opacity="0.5" d="M6.66 264.44C10.3382 264.44 13.32 261.458 13.32 257.78C13.32 254.102 10.3382 251.12 6.66 251.12C2.98178 251.12 0 254.102 0 257.78C0 261.458 2.98178 264.44 6.66 264.44Z" fill="#F55F44"/>
<path opacity="0.5" d="M749.83 152.75C753.508 152.75 756.49 149.768 756.49 146.09C756.49 142.412 753.508 139.43 749.83 139.43C746.152 139.43 743.17 142.412 743.17 146.09C743.17 149.768 746.152 152.75 749.83 152.75Z" fill="#F55F44"/>
<path opacity="0.5" d="M446.92 403.46C451.062 403.46 454.42 400.102 454.42 395.96C454.42 391.818 451.062 388.46 446.92 388.46C442.778 388.46 439.42 391.818 439.42 395.96C439.42 400.102 442.778 403.46 446.92 403.46Z" fill="#F55F44"/>
<path opacity="0.5" d="M446.92 403.46C451.062 403.46 454.42 400.102 454.42 395.96C454.42 391.818 451.062 388.46 446.92 388.46C442.778 388.46 439.42 391.818 439.42 395.96C439.42 400.102 442.778 403.46 446.92 403.46Z" fill="#F55F44"/>
<path opacity="0.5" d="M832.55 353C836.228 353 839.21 350.018 839.21 346.34C839.21 342.662 836.228 339.68 832.55 339.68C828.872 339.68 825.89 342.662 825.89 346.34C825.89 350.018 828.872 353 832.55 353Z" fill="#F55F44"/>
<path opacity="0.5" d="M294.17 54.77C298.312 54.77 301.67 51.4122 301.67 47.27C301.67 43.1279 298.312 39.77 294.17 39.77C290.028 39.77 286.67 43.1279 286.67 47.27C286.67 51.4122 290.028 54.77 294.17 54.77Z" fill="#47E6B1"/>
<path opacity="0.5" d="M721.49 628.07C725.168 628.07 728.15 625.088 728.15 621.41C728.15 617.732 725.168 614.75 721.49 614.75C717.812 614.75 714.83 617.732 714.83 621.41C714.83 625.088 717.812 628.07 721.49 628.07Z" fill="#F55F44"/>
<path d="M306.7 381.54C302.76 394.33 308.7 409.45 320.23 416.18C325.07 419 330.64 420.42 335.33 423.48C345.52 430.12 349.54 442.83 352.85 454.53C356.65 467.98 360.46 482.2 356.98 495.73C354.76 504.36 349.71 511.99 346.84 520.43C344.44 527.499 343.604 535.006 344.39 542.43C344.81 546.37 345.79 550.43 348.49 553.37C352.39 557.57 358.67 558.2 364.31 559.21C376.234 561.465 387.453 566.514 397.048 573.943C406.644 581.373 414.341 590.971 419.51 601.95" stroke="url(#paint0_linear)" stroke-width="2" stroke-miterlimit="10"/>
<path d="M307.91 381.54C303.97 394.33 309.91 409.45 321.44 416.18C326.28 419 331.85 420.42 336.54 423.48C346.73 430.12 350.75 442.83 354.06 454.53C357.86 467.98 361.67 482.2 358.19 495.73C355.97 504.36 350.92 511.99 348.05 520.43C345.65 527.499 344.814 535.006 345.6 542.43C346.02 546.37 347 550.43 349.7 553.37C353.6 557.57 359.88 558.2 365.52 559.21C377.444 561.465 388.663 566.514 398.258 573.943C407.854 581.373 415.551 590.971 420.72 601.95" stroke="#535461" stroke-width="2" stroke-miterlimit="10"/>
<path d="M457.05 285.94C447.33 299.49 437.24 314.06 436.41 330.72C435.14 356.31 455.61 377.24 464.75 401.18C468.711 411.725 470.504 422.962 470.021 434.216C469.539 445.471 466.79 456.512 461.94 466.68C457.48 475.9 451.12 485.06 451.94 495.27C452.41 501.5 455.53 507.17 458.04 512.9C464.2 527.26 466.888 542.871 465.886 558.465C464.883 574.059 460.219 589.197 452.27 602.65" stroke="url(#paint1_linear)" stroke-width="2" stroke-miterlimit="10"/>
<path d="M458.25 285.94C448.54 299.54 438.45 314.07 437.6 330.72C436.33 356.31 456.8 377.24 465.94 401.18C469.901 411.725 471.694 422.962 471.211 434.216C470.729 445.471 467.98 456.512 463.13 466.68C458.67 475.9 452.31 485.06 453.13 495.27C453.6 501.5 456.72 507.17 459.23 512.9C465.39 527.26 468.078 542.871 467.076 558.465C466.073 574.059 461.409 589.197 453.46 602.65" stroke="#535461" stroke-width="2" stroke-miterlimit="10"/>
<path d="M593.43 407.82L598.13 446.13C598.75 451.22 599.28 456.77 596.55 461.13C593.96 465.24 589.1 467.2 585.32 470.24C572.91 480.24 574.04 499.35 578.32 514.69C582.6 530.03 588.76 546.51 582.81 561.27C580.35 567.36 576.01 572.49 572.81 578.21C567.32 587.985 565.145 599.275 566.61 610.39" stroke="url(#paint2_linear)" stroke-width="2" stroke-miterlimit="10"/>
<path d="M594.6 407.82L599.3 446.13C599.92 451.22 600.45 456.77 597.72 461.13C595.13 465.24 590.27 467.2 586.49 470.24C574.08 480.24 575.21 499.35 579.49 514.69C583.77 530.03 589.93 546.51 583.98 561.27C581.52 567.36 577.18 572.49 573.98 578.21C568.49 587.985 566.315 599.275 567.78 610.39" stroke="#535461" stroke-width="2" stroke-miterlimit="10"/>
<g opacity="0.7">
<path opacity="0.7" d="M715.3 250.36C715.292 232.437 711.043 214.771 702.901 198.805C694.759 182.838 682.955 169.025 668.453 158.493C653.952 147.962 637.164 141.011 619.462 138.208C601.76 135.406 583.646 136.832 566.6 142.37C567.538 135.989 568.023 129.549 568.05 123.1C568.095 93.665 556.706 65.3633 536.285 44.1641C515.865 22.9649 488.009 10.5255 458.593 9.46962C429.177 8.41377 400.5 18.824 378.612 38.5046C356.724 58.1852 343.336 85.5975 341.27 114.96C324.22 109.41 306.099 107.975 288.388 110.773C270.677 113.57 253.88 120.52 239.37 131.054C224.86 141.588 213.05 155.407 204.906 171.381C196.761 187.355 192.513 205.03 192.51 222.96C192.51 279.96 234.51 360.96 289.16 375.31L297.67 380.17L293.05 396H320.41L314.47 380.15L322.94 375.31C365.2 364.22 399.85 313.31 413.42 264.48C420.849 269.425 429.028 273.139 437.64 275.48L446.15 280.34L441.6 296.13H468.96L463.02 280.28L471.49 275.44C477.767 273.751 483.813 271.296 489.49 268.13C496.8 322.91 535.69 389.79 584.9 402.7L593.41 407.56L588.79 423.39H616.15L610.19 407.54L618.66 402.7C673.35 388.35 715.3 307.32 715.3 250.36Z" fill="url(#paint3_linear)"/>
</g>
<path d="M324.76 390.14H298.28L302.92 374.26H318.8L324.76 390.14Z" fill="#F55F44"/>
<path d="M420.72 222.7C420.72 283.38 371.53 372.27 310.86 372.27C250.19 372.27 201 283.37 201 222.7C201 193.562 212.575 165.617 233.179 145.014C253.782 124.41 281.727 112.835 310.865 112.835C340.003 112.835 367.948 124.41 388.551 145.014C409.155 165.617 420.73 193.562 420.73 222.7H420.72Z" fill="#F55F44"/>
<path d="M318.8 374.92H302.92L293.65 369.63H328.07L318.8 374.92Z" fill="#535461"/>
<path opacity="0.1" d="M271.15 137.32C271.15 137.32 224.82 162.47 218.2 212.77Z" fill="white"/>
<path d="M468.43 293.56H441.95L446.59 277.68H462.47L468.43 293.56Z" fill="#4D8AF0"/>
<path d="M564.39 126.12C564.39 186.8 515.2 275.69 454.53 275.69C393.86 275.69 344.67 186.79 344.67 126.12C344.67 96.9819 356.245 69.0373 376.849 48.4336C397.452 27.8299 425.397 16.2549 454.535 16.2549C483.673 16.2549 511.618 27.8299 532.221 48.4336C552.825 69.0373 564.4 96.9819 564.4 126.12H564.39Z" fill="#6C63FF"/>
<path d="M462.47 278.34H446.59L437.32 273.04H471.74L462.47 278.34Z" fill="#535461"/>
<path opacity="0.1" d="M414.82 40.7402C414.82 40.7402 368.49 65.8902 361.87 116.19Z" fill="white"/>
<path d="M610.89 416.71H584.41L589.05 400.82H604.93L610.89 416.71Z" fill="#3AD29F"/>
<path d="M706.85 249.26C706.85 309.94 657.66 398.83 596.99 398.83C536.32 398.83 487.12 309.94 487.12 249.26C487.12 220.122 498.695 192.177 519.299 171.574C539.903 150.97 567.847 139.395 596.985 139.395C626.123 139.395 654.068 150.97 674.671 171.574C695.275 192.177 706.85 220.122 706.85 249.26V249.26Z" fill="#3AD29F"/>
<path d="M604.93 401.48H589.05L579.78 396.19H614.2L604.93 401.48Z" fill="#535461"/>
<path opacity="0.1" d="M557.28 163.88C557.28 163.88 510.95 189.03 504.33 239.33Z" fill="white"/>
<g opacity="0.5">
<path opacity="0.5" d="M516.41 435.43C510.04 429.04 500.75 426.5 490.25 428.27C480.43 429.93 470.6 435.27 462.58 443.27C460.257 445.606 458.304 448.284 456.79 451.21C455.315 448.185 453.379 445.409 451.05 442.98V442.98C443.17 434.83 433.43 429.34 423.6 427.54C413.14 425.54 403.81 427.97 397.32 434.25C390.83 440.53 388.17 449.78 389.79 460.3C391.31 470.14 396.49 480.05 404.38 488.18C420.96 505.29 454.05 498.61 455.45 498.31L455.86 498.22L457.13 498.51C458.53 498.83 491.5 506.08 508.37 489.26C516.37 481.26 521.74 471.45 523.44 461.63C525.29 451.12 522.78 441.83 516.41 435.43ZM449.89 488.43C441.89 489.51 421.96 490.97 412.07 480.76C405.71 474.19 401.55 466.35 400.36 458.66C399.28 451.66 400.84 445.66 404.78 441.88C406.318 440.404 408.156 439.278 410.17 438.58C413.892 437.377 417.866 437.177 421.69 438C429.33 439.43 437.05 443.83 443.41 450.4C453.3 460.54 451.22 480.46 449.89 488.42V488.43ZM513 459.82C511.68 467.48 507.39 475.26 500.91 481.71C490.84 491.71 470.91 489.94 462.96 488.71C461.77 480.71 460.03 460.82 470.1 450.78C476.58 444.33 484.37 440.06 492.03 438.78C495.868 438.023 499.839 438.292 503.54 439.56C505.545 440.294 507.366 441.454 508.88 442.96C512.74 446.83 514.2 452.81 513 459.81V459.82Z" fill="url(#paint4_linear)"/>
</g>
<path d="M458.7 496.13L455.55 496.79C454.21 497.07 422.55 503.46 406.68 487.09C399.14 479.31 394.18 469.83 392.68 460.41C391.12 450.34 393.68 441.49 399.88 435.48C406.08 429.47 415.01 427.19 425.02 429.06C434.39 430.81 443.71 436.06 451.25 443.85C467.11 460.22 459.73 491.67 459.41 493L458.7 496.13ZM412.17 439.64C410.242 440.309 408.482 441.387 407.01 442.8C403.25 446.45 401.75 452.15 402.78 458.86C403.92 466.21 407.9 473.72 413.99 480.01C423.46 489.78 442.53 488.38 450.18 487.35C451.45 479.74 453.45 460.72 443.98 450.95C437.89 444.67 430.51 440.45 423.19 439.09C419.532 438.301 415.731 438.491 412.17 439.64V439.64Z" fill="#6C63FF"/>
<path d="M454.02 496.27L453.32 493.13C453.02 491.79 446.18 460.22 462.32 444.13C470 436.48 479.4 431.39 488.8 429.8C498.8 428.1 507.73 430.53 513.8 436.65C519.87 442.77 522.3 451.65 520.57 461.65C518.95 471.04 513.83 480.43 506.15 488.08C490.01 504.17 458.46 497.23 457.15 496.93L454.02 496.27ZM501.52 440.54C497.983 439.328 494.189 439.069 490.52 439.79C483.18 441.03 475.73 445.12 469.52 451.29C459.88 460.9 461.52 479.94 462.69 487.58C470.32 488.74 489.37 490.47 499 480.87C505.2 474.69 509.3 467.25 510.57 459.87C511.72 453.18 510.32 447.45 506.62 443.74C505.169 442.32 503.43 441.228 501.52 440.54V440.54Z" fill="#6C63FF"/>
<g opacity="0.5">
<path opacity="0.5" d="M608.43 487.86H301.42V549.29H317.37V727.08H592.48V549.29H608.43V487.86Z" fill="url(#paint5_linear)"/>
</g>
<path d="M589 506.43H320.85V724.06H589V506.43Z" fill="#535461"/>
<path d="M480.18 545.29H429.66V724.05H480.18V545.29Z" fill="#6C63FF"/>
<path opacity="0.1" d="M589 494.77H320.85V549.18H589V494.77Z" fill="black"/>
<path d="M604.55 490.88H305.31V545.29H604.55V490.88Z" fill="#535461"/>
<path d="M480.18 490.88H429.66V545.29H480.18V490.88Z" fill="#6C63FF"/>
</g>
<defs>
<linearGradient id="paint0_linear" x1="304.48" y1="491.77" x2="420.41" y2="491.77" gradientUnits="userSpaceOnUse">
<stop stop-color="#808080" stop-opacity="0.25"/>
<stop offset="0.54" stop-color="#808080" stop-opacity="0.12"/>
<stop offset="1" stop-color="#808080" stop-opacity="0.1"/>
</linearGradient>
<linearGradient id="paint1_linear" x1="21214.7" y1="168370" x2="22421.1" y2="168370" gradientUnits="userSpaceOnUse">
<stop stop-color="#808080" stop-opacity="0.25"/>
<stop offset="0.54" stop-color="#808080" stop-opacity="0.12"/>
<stop offset="1" stop-color="#808080" stop-opacity="0.1"/>
</linearGradient>
<linearGradient id="paint2_linear" x1="24767.3" y1="121050" x2="25888.6" y2="121050" gradientUnits="userSpaceOnUse">
<stop stop-color="#808080" stop-opacity="0.25"/>
<stop offset="0.54" stop-color="#808080" stop-opacity="0.12"/>
<stop offset="1" stop-color="#808080" stop-opacity="0.1"/>
</linearGradient>
<linearGradient id="paint3_linear" x1="331809" y1="211084" x2="331809" y2="39761" gradientUnits="userSpaceOnUse">
<stop stop-color="#808080" stop-opacity="0.25"/>
<stop offset="0.54" stop-color="#808080" stop-opacity="0.12"/>
<stop offset="1" stop-color="#808080" stop-opacity="0.1"/>
</linearGradient>
<linearGradient id="paint4_linear" x1="86212.3" y1="43542.3" x2="86212.3" y2="38143.7" gradientUnits="userSpaceOnUse">
<stop stop-color="#808080" stop-opacity="0.25"/>
<stop offset="0.54" stop-color="#808080" stop-opacity="0.12"/>
<stop offset="1" stop-color="#808080" stop-opacity="0.1"/>
</linearGradient>
<linearGradient id="paint5_linear" x1="139966" y1="174420" x2="139966" y2="117194" gradientUnits="userSpaceOnUse">
<stop stop-color="#808080" stop-opacity="0.25"/>
<stop offset="0.54" stop-color="#808080" stop-opacity="0.12"/>
<stop offset="1" stop-color="#808080" stop-opacity="0.1"/>
</linearGradient>
<clipPath id="clip0">
<rect width="839.2" height="727.08" fill="white"/>
</clipPath>
</defs>
</svg>
