<svg width="874" height="795" viewBox="0 0 874 795" fill="none" xmlns="http://www.w3.org/2000/svg">
<g clip-path="url(#clip0)">
<g opacity="0.5">
<path opacity="0.5" d="M637.5 55H244.5V598H637.5V55Z" fill="url(#paint0_linear)"/>
</g>
<path d="M632.5 59H249.5V590H632.5V59Z" fill="white"/>
<path d="M536.5 44.98H346.5V91H536.5V44.98Z" fill="url(#paint1_linear)"/>
<path d="M441.5 0C426.83 0 414.94 12.18 414.94 27.2C414.94 42.22 426.83 54.4 441.5 54.4C456.17 54.4 468.06 42.22 468.06 27.2C468.06 12.18 456.17 0 441.5 0ZM441.5 42.89C438.381 42.9715 435.308 42.1211 432.674 40.4474C430.041 38.7737 427.966 36.3527 426.715 33.4938C425.465 30.635 425.095 27.4682 425.653 24.3981C426.211 21.328 427.672 18.4942 429.85 16.2587C432.027 14.0232 434.821 12.4876 437.875 11.8483C440.929 11.2089 444.105 11.4947 446.996 12.6693C449.887 13.8438 452.362 15.8537 454.105 18.442C455.847 21.0303 456.779 24.0796 456.78 27.2C456.828 31.305 455.247 35.2617 452.382 38.2028C449.518 41.1438 445.605 42.8294 441.5 42.89V42.89Z" fill="url(#paint2_linear)"/>
<path d="M534.5 45H348.5V89H534.5V45Z" fill="#6C63FF"/>
<path d="M441.5 2C436.358 2 431.331 3.52487 427.055 6.38179C422.779 9.23871 419.447 13.2994 417.479 18.0502C415.511 22.8011 414.996 28.0288 416 33.0723C417.003 38.1159 419.479 42.7486 423.115 46.3848C426.751 50.0209 431.384 52.4972 436.428 53.5004C441.471 54.5036 446.699 53.9887 451.45 52.0209C456.201 50.053 460.261 46.7205 463.118 42.4448C465.975 38.1691 467.5 33.1423 467.5 28C467.5 21.1044 464.761 14.4912 459.885 9.61522C455.009 4.73928 448.396 2 441.5 2V2ZM441.5 43C438.533 43 435.633 42.1203 433.166 40.472C430.7 38.8238 428.777 36.4811 427.642 33.7402C426.506 30.9994 426.209 27.9834 426.788 25.0736C427.367 22.1639 428.796 19.4912 430.893 17.3934C432.991 15.2956 435.664 13.867 438.574 13.2882C441.483 12.7094 444.499 13.0065 447.24 14.1418C449.981 15.2771 452.324 17.1997 453.972 19.6664C455.62 22.1332 456.5 25.0333 456.5 28C456.5 31.9782 454.92 35.7936 452.107 38.6066C449.294 41.4197 445.478 43 441.5 43Z" fill="#6C63FF"/>
<path d="M349.5 145H267.5V227H349.5V145Z" fill="url(#paint3_linear)"/>
<path d="M349.78 307.5H267.78V389.5H349.78V307.5Z" fill="url(#paint4_linear)"/>
<path d="M350.06 468H268.06V550H350.06V468Z" fill="url(#paint5_linear)"/>
<path d="M346.5 148H270.5V224H346.5V148Z" fill="#69F0AE"/>
<path d="M346.5 309H270.5V385H346.5V309Z" fill="#6C63FF"/>
<path d="M346.5 470H270.5V546H346.5V470Z" fill="#6C63FF"/>
<path d="M500.67 171.46H396.5V178.73H500.67V171.46Z" fill="#E0E0E0"/>
<path d="M568.5 182.37H396.5V189.64H568.5V182.37Z" fill="#E0E0E0"/>
<path d="M556.39 193.27H396.5V200.54H556.39V193.27Z" fill="#E0E0E0"/>
<path d="M500.67 332.46H396.5V339.73H500.67V332.46Z" fill="#E0E0E0"/>
<path d="M568.5 343.37H396.5V350.64H568.5V343.37Z" fill="#E0E0E0"/>
<path d="M556.39 354.27H396.5V361.54H556.39V354.27Z" fill="#E0E0E0"/>
<path d="M500.67 493.46H396.5V500.73H500.67V493.46Z" fill="#E0E0E0"/>
<path d="M568.5 504.37H396.5V511.64H568.5V504.37Z" fill="#E0E0E0"/>
<path d="M556.39 515.27H396.5V522.54H556.39V515.27Z" fill="#E0E0E0"/>
<path d="M291.25 181.47L305.05 194.13L324.6 165.38L331.5 171.13L305.05 205.63L285.5 183.78L291.25 181.47Z" fill="url(#paint6_linear)"/>
<path d="M293.5 182L305.5 193L322.5 168L328.5 173L305.5 203L288.5 184L293.5 182Z" fill="white"/>
<path d="M293.5 344L305.5 355L322.5 330L328.5 335L305.5 365L288.5 346L293.5 344Z" fill="white"/>
<path d="M293.5 506L305.5 517L322.5 492L328.5 497L305.5 527L288.5 508L293.5 506Z" fill="white"/>
<g opacity="0.5">
<path opacity="0.5" d="M651 351H657" stroke="#69F0AE" stroke-width="5" stroke-miterlimit="10"/>
<path opacity="0.5" d="M668.54 351H801.23" stroke="#69F0AE" stroke-width="5" stroke-miterlimit="10" stroke-dasharray="11.54 11.54"/>
<path opacity="0.5" d="M807 351H813V345" stroke="#69F0AE" stroke-width="5" stroke-miterlimit="10"/>
<path opacity="0.5" d="M813 333.55V224.73" stroke="#69F0AE" stroke-width="5" stroke-miterlimit="10" stroke-dasharray="11.45 11.45"/>
<path opacity="0.5" d="M813 219V213" stroke="#69F0AE" stroke-width="5" stroke-miterlimit="10"/>
</g>
<path opacity="0.5" d="M231.5 182.5H97.5V308.5" stroke="#69F0AE" stroke-width="5" stroke-miterlimit="10" stroke-dasharray="12 12"/>
<path opacity="0.5" d="M308.5 611.5V683.5H508.5" stroke="#69F0AE" stroke-width="5" stroke-miterlimit="10" stroke-dasharray="12 12"/>
<g opacity="0.5">
<path opacity="0.5" d="M873.56 107.09L796.5 42L720.64 106.95L719.96 106.57V107.09H719.44L719.96 107.38V107.61V191.96V193H873.04L872.11 192.48H873.56V107.09Z" fill="url(#paint7_linear)"/>
</g>
<path d="M870.5 189.5H723.5V107.5L796.5 45L870.5 107.5V189.5Z" fill="white"/>
<path d="M722.5 107.5L795.5 148.5L869.5 107.5" fill="#E0E0E0"/>
<g opacity="0.5">
<path opacity="0.5" d="M797.02 147.47L752 176V69H841V123.42L797.02 147.47Z" fill="url(#paint8_linear)"/>
</g>
<path d="M797 148L754 176V71H839V124.4L797 148Z" fill="#FAFAFA"/>
<path opacity="0.05" d="M723 189H870L723 107V189Z" fill="black"/>
<path d="M723 190H870L723 108V190Z" fill="#F5F5F5"/>
<path d="M827 87H765V91H827V87Z" fill="white"/>
<path d="M827 95H765V99H827V95Z" fill="white"/>
<path d="M827 103H765V107H827V103Z" fill="#6C63FF"/>
<path d="M827 111H765V115H827V111Z" fill="white"/>
<path d="M827 119H765V123H827V119Z" fill="#6C63FF"/>
<path opacity="0.05" d="M839 125V123L795.26 147.31L796.45 147.97L839 125Z" fill="black"/>
<g opacity="0.5">
<path opacity="0.5" d="M714.97 620H541.02V795H714.97V620Z" fill="url(#paint9_linear)"/>
</g>
<path d="M711 624H545V791H711V624Z" fill="#F5F5F5"/>
<path d="M702 629H556V757H702V629Z" fill="white"/>
<path d="M702 716C661.65 716 629 705.71 629 693C588.65 693 556 701.95 556 713V761H702V716Z" fill="#E0E0E0"/>
<path d="M678 672C686.284 672 693 665.284 693 657C693 648.716 686.284 642 678 642C669.716 642 663 648.716 663 657C663 665.284 669.716 672 678 672Z" fill="#6C63FF"/>
<g opacity="0.5">
<path opacity="0.5" d="M204 319.75H0V464.25H204V319.75Z" fill="url(#paint10_linear)"/>
</g>
<path d="M198 324H6V460H198V324Z" fill="white"/>
<path d="M105.95 358.34C104.345 358.343 102.741 358.45 101.15 358.66L105.95 395.34L69.0399 392.88C68.9899 393.69 68.95 394.51 68.95 395.34C68.95 402.658 71.12 409.811 75.1856 415.896C79.2512 421.981 85.0298 426.723 91.7907 429.524C98.5515 432.324 105.991 433.057 113.168 431.629C120.346 430.201 126.938 426.678 132.113 421.503C137.287 416.328 140.811 409.736 142.239 402.558C143.667 395.381 142.934 387.942 140.133 381.181C137.333 374.42 132.591 368.641 126.506 364.576C120.421 360.51 113.268 358.34 105.95 358.34V358.34Z" fill="#E0E0E0"/>
<path d="M93.15 351.66C84.6666 352.772 76.8307 356.789 70.9762 363.028C65.1217 369.268 61.6104 377.343 61.04 385.88L97.9501 388.34L93.15 351.66Z" fill="#6C63FF"/>
</g>
<defs>
<linearGradient id="paint0_linear" x1="441" y1="598" x2="441" y2="55" gradientUnits="userSpaceOnUse">
<stop stop-color="#808080" stop-opacity="0.25"/>
<stop offset="0.54" stop-color="#808080" stop-opacity="0.12"/>
<stop offset="1" stop-color="#808080" stop-opacity="0.1"/>
</linearGradient>
<linearGradient id="paint1_linear" x1="84231.5" y1="4232.8" x2="84231.5" y2="2114.96" gradientUnits="userSpaceOnUse">
<stop stop-color="#808080" stop-opacity="0.25"/>
<stop offset="0.54" stop-color="#808080" stop-opacity="0.12"/>
<stop offset="1" stop-color="#808080" stop-opacity="0.1"/>
</linearGradient>
<linearGradient id="paint2_linear" x1="32537.7" y1="5814.82" x2="32537.7" y2="2856" gradientUnits="userSpaceOnUse">
<stop stop-color="#808080" stop-opacity="0.25"/>
<stop offset="0.54" stop-color="#808080" stop-opacity="0.12"/>
<stop offset="1" stop-color="#808080" stop-opacity="0.1"/>
</linearGradient>
<linearGradient id="paint3_linear" x1="25564.5" y1="18759" x2="25564.5" y2="12035" gradientUnits="userSpaceOnUse">
<stop stop-color="#808080" stop-opacity="0.25"/>
<stop offset="0.54" stop-color="#808080" stop-opacity="0.12"/>
<stop offset="1" stop-color="#808080" stop-opacity="0.1"/>
</linearGradient>
<linearGradient id="paint4_linear" x1="25587.7" y1="32246.5" x2="25587.7" y2="25522.5" gradientUnits="userSpaceOnUse">
<stop stop-color="#808080" stop-opacity="0.25"/>
<stop offset="0.54" stop-color="#808080" stop-opacity="0.12"/>
<stop offset="1" stop-color="#808080" stop-opacity="0.1"/>
</linearGradient>
<linearGradient id="paint5_linear" x1="25611" y1="45568" x2="25611" y2="38844" gradientUnits="userSpaceOnUse">
<stop stop-color="#808080" stop-opacity="0.25"/>
<stop offset="0.54" stop-color="#808080" stop-opacity="0.12"/>
<stop offset="1" stop-color="#808080" stop-opacity="0.1"/>
</linearGradient>
<linearGradient id="paint6_linear" x1="14476.5" y1="8441.99" x2="14476.5" y2="6821.52" gradientUnits="userSpaceOnUse">
<stop stop-color="#808080" stop-opacity="0.25"/>
<stop offset="0.54" stop-color="#808080" stop-opacity="0.12"/>
<stop offset="1" stop-color="#808080" stop-opacity="0.1"/>
</linearGradient>
<linearGradient id="paint7_linear" x1="123476" y1="29185" x2="123476" y2="6384" gradientUnits="userSpaceOnUse">
<stop stop-color="#808080" stop-opacity="0.25"/>
<stop offset="0.54" stop-color="#808080" stop-opacity="0.12"/>
<stop offset="1" stop-color="#808080" stop-opacity="0.1"/>
</linearGradient>
<linearGradient id="paint8_linear" x1="71640.5" y1="18901" x2="71640.5" y2="7452" gradientUnits="userSpaceOnUse">
<stop stop-color="#808080" stop-opacity="0.25"/>
<stop offset="0.54" stop-color="#808080" stop-opacity="0.12"/>
<stop offset="1" stop-color="#808080" stop-opacity="0.1"/>
</linearGradient>
<linearGradient id="paint9_linear" x1="109782" y1="139745" x2="109782" y2="109120" gradientUnits="userSpaceOnUse">
<stop stop-color="#808080" stop-opacity="0.25"/>
<stop offset="0.54" stop-color="#808080" stop-opacity="0.12"/>
<stop offset="1" stop-color="#808080" stop-opacity="0.1"/>
</linearGradient>
<linearGradient id="paint10_linear" x1="20808" y1="67403.9" x2="20808" y2="46523.6" gradientUnits="userSpaceOnUse">
<stop stop-color="#808080" stop-opacity="0.25"/>
<stop offset="0.54" stop-color="#808080" stop-opacity="0.12"/>
<stop offset="1" stop-color="#808080" stop-opacity="0.1"/>
</linearGradient>
<clipPath id="clip0">
<rect width="873.56" height="795" fill="white"/>
</clipPath>
</defs>
</svg>
