<svg width="983" height="764" viewBox="0 0 983 764" fill="none" xmlns="http://www.w3.org/2000/svg">
<g clip-path="url(#clip0)">
<path d="M559.433 373.091C581.541 373.091 599.463 355.169 599.463 333.061C599.463 310.953 581.541 293.031 559.433 293.031C537.325 293.031 519.403 310.953 519.403 333.061C519.403 355.169 537.325 373.091 559.433 373.091Z" fill="#E6E6E6"/>
<path d="M657.538 384.502L615.706 342.67C618.913 337.682 621.086 332.102 622.096 326.259C623.107 320.417 622.934 314.431 621.589 308.656C620.244 302.881 617.753 297.435 614.265 292.641C610.776 287.846 606.361 283.801 601.28 280.744C591.713 275.029 580.349 273.115 569.438 275.381C558.528 277.648 548.866 283.929 542.367 292.982C536.386 301.367 533.514 311.573 534.244 321.847C534.973 332.12 539.259 341.819 546.364 349.275C553.47 356.73 562.951 361.478 573.177 362.701C583.403 363.924 593.737 361.547 602.4 355.977L644.232 397.809C645.997 399.572 648.39 400.562 650.884 400.561C653.379 400.56 655.771 399.569 657.535 397.805C659.299 396.041 660.29 393.649 660.291 391.154C660.292 388.659 659.301 386.267 657.538 384.502V384.502ZM600.838 341.108C595.654 346.291 588.834 349.517 581.539 350.236C574.244 350.954 566.926 349.121 560.831 345.049C554.736 340.976 550.241 334.917 548.113 327.902C545.986 320.887 546.356 313.352 549.161 306.579C551.966 299.807 557.033 294.217 563.497 290.761C569.962 287.306 577.425 286.199 584.614 287.629C591.804 289.059 598.275 292.938 602.926 298.604C607.576 304.27 610.118 311.374 610.118 318.704C610.123 322.866 609.306 326.987 607.713 330.832C606.121 334.677 603.784 338.169 600.838 341.108V341.108Z" fill="#3F3D56"/>
<path d="M960.773 446.206C1067.75 564.514 757.636 735.014 507.053 735.014C256.471 735.014 83.107 602.907 53.3337 446.206C-18.8565 66.2588 668.411 -175.233 507.053 157.398C271.855 642.246 876.524 353.035 960.773 446.206Z" fill="#E6E6E6"/>
<path d="M912.773 474.206C1019.75 592.514 709.636 763.014 459.053 763.014C208.471 763.014 35.107 630.907 5.33368 474.206C-66.8565 94.2588 620.411 -147.233 459.053 185.398C223.855 670.246 828.523 381.035 912.773 474.206Z" fill="#3F3D56"/>
<path d="M149.594 196.825C74.5263 193.52 16.3224 177.327 17.087 159.961C17.5455 149.549 38.7903 141.176 75.3738 136.991C75.5047 136.975 75.6375 136.985 75.7645 137.021C75.8915 137.057 76.0101 137.117 76.1136 137.199C76.2172 137.281 76.3035 137.382 76.3677 137.497C76.4319 137.612 76.4726 137.739 76.4876 137.87C76.5026 138.001 76.4915 138.134 76.455 138.261C76.4185 138.387 76.3573 138.506 76.2749 138.609C76.1925 138.712 76.0905 138.797 75.9749 138.861C75.8592 138.924 75.7322 138.964 75.6011 138.978C41.1394 142.921 19.4837 150.995 19.0851 160.049C18.3936 175.753 78.1994 191.68 149.682 194.827C221.164 197.974 282.138 187.366 282.83 171.661C283.23 162.57 262.233 152.596 228.032 145.633C227.903 145.607 227.78 145.556 227.671 145.483C227.562 145.409 227.468 145.315 227.395 145.206C227.322 145.096 227.272 144.973 227.247 144.844C227.222 144.715 227.222 144.582 227.249 144.453C227.275 144.324 227.326 144.202 227.4 144.093C227.474 143.984 227.568 143.89 227.678 143.818C227.788 143.745 227.911 143.695 228.04 143.67C228.169 143.646 228.302 143.646 228.431 143.673C264.732 151.064 285.288 161.297 284.828 171.749C284.063 189.116 224.661 200.13 149.594 196.825Z" fill="#6C63FF"/>
<path d="M82.9229 199.734C89.2027 211.663 98.5053 221.735 109.9 228.94C121.294 236.145 134.381 240.232 147.851 240.791C161.321 241.35 174.702 238.362 186.654 232.126C198.607 225.89 208.712 216.624 215.959 205.256C171.546 205.854 127.133 204.011 82.9229 199.734V199.734Z" fill="#6C63FF"/>
<path d="M224.263 184.221C228.042 172.884 229.131 160.824 227.443 148.994C225.756 137.165 221.338 125.89 214.54 116.063C207.741 106.235 198.749 98.1254 188.274 92.3745C177.8 86.6236 166.13 83.3896 154.189 82.9284C142.249 82.4673 130.365 84.7918 119.478 89.7178C108.591 94.6438 98.9995 102.036 91.4635 111.31C83.9274 120.583 78.6533 131.484 76.0585 143.148C73.4636 154.813 73.6193 166.921 76.5132 178.515C125.309 186.798 174.973 188.716 224.263 184.221V184.221Z" fill="#6C63FF"/>
<path d="M168.833 132.601C173.804 132.601 177.833 128.571 177.833 123.601C177.833 118.63 173.804 114.601 168.833 114.601C163.863 114.601 159.833 118.63 159.833 123.601C159.833 128.571 163.863 132.601 168.833 132.601Z" fill="white"/>
<path d="M122.514 167.591C130.798 167.591 137.514 160.876 137.514 152.591C137.514 144.307 130.798 137.591 122.514 137.591C114.229 137.591 107.514 144.307 107.514 152.591C107.514 160.876 114.229 167.591 122.514 167.591Z" fill="white"/>
<path d="M348.905 152.898C354.428 152.898 358.905 148.421 358.905 142.898C358.905 137.375 354.428 132.898 348.905 132.898C343.382 132.898 338.905 137.375 338.905 142.898C338.905 148.421 343.382 152.898 348.905 152.898Z" fill="#6C63FF"/>
<path d="M122.905 458.898C126.219 458.898 128.905 456.212 128.905 452.898C128.905 449.584 126.219 446.898 122.905 446.898C119.591 446.898 116.905 449.584 116.905 452.898C116.905 456.212 119.591 458.898 122.905 458.898Z" fill="#E6E6E6"/>
<path d="M542.905 664.898C546.219 664.898 548.905 662.212 548.905 658.898C548.905 655.584 546.219 652.898 542.905 652.898C539.591 652.898 536.905 655.584 536.905 658.898C536.905 662.212 539.591 664.898 542.905 664.898Z" fill="#E6E6E6"/>
<path d="M151.905 342.898C153.562 342.898 154.905 341.555 154.905 339.898C154.905 338.241 153.562 336.898 151.905 336.898C150.248 336.898 148.905 338.241 148.905 339.898C148.905 341.555 150.248 342.898 151.905 342.898Z" fill="#E6E6E6"/>
<path d="M399.905 566.898C401.562 566.898 402.905 565.555 402.905 563.898C402.905 562.241 401.562 560.898 399.905 560.898C398.248 560.898 396.905 562.241 396.905 563.898C396.905 565.555 398.248 566.898 399.905 566.898Z" fill="#E6E6E6"/>
<path d="M850.905 537.898C852.562 537.898 853.905 536.555 853.905 534.898C853.905 533.241 852.562 531.898 850.905 531.898C849.248 531.898 847.905 533.241 847.905 534.898C847.905 536.555 849.248 537.898 850.905 537.898Z" fill="#E6E6E6"/>
<path d="M709.905 626.898C711.562 626.898 712.905 625.555 712.905 623.898C712.905 622.241 711.562 620.898 709.905 620.898C708.248 620.898 706.905 622.241 706.905 623.898C706.905 625.555 708.248 626.898 709.905 626.898Z" fill="#E6E6E6"/>
<path d="M562.905 518.898C564.562 518.898 565.905 517.555 565.905 515.898C565.905 514.241 564.562 512.898 562.905 512.898C561.248 512.898 559.905 514.241 559.905 515.898C559.905 517.555 561.248 518.898 562.905 518.898Z" fill="#E6E6E6"/>
<path d="M372.905 222.898C374.562 222.898 375.905 221.555 375.905 219.898C375.905 218.241 374.562 216.898 372.905 216.898C371.248 216.898 369.905 218.241 369.905 219.898C369.905 221.555 371.248 222.898 372.905 222.898Z" fill="#E6E6E6"/>
<path d="M396.905 74.8981C398.562 74.8981 399.905 73.5549 399.905 71.898C399.905 70.2411 398.562 68.8979 396.905 68.8979C395.248 68.8979 393.905 70.2411 393.905 71.898C393.905 73.5549 395.248 74.8981 396.905 74.8981Z" fill="#E6E6E6"/>
<path d="M382.905 697.898C384.562 697.898 385.905 696.555 385.905 694.898C385.905 693.241 384.562 691.898 382.905 691.898C381.248 691.898 379.905 693.241 379.905 694.898C379.905 696.555 381.248 697.898 382.905 697.898Z" fill="#E6E6E6"/>
<path d="M234.905 634.898C236.562 634.898 237.905 633.555 237.905 631.898C237.905 630.241 236.562 628.898 234.905 628.898C233.248 628.898 231.905 630.241 231.905 631.898C231.905 633.555 233.248 634.898 234.905 634.898Z" fill="#E6E6E6"/>
<path d="M703.905 526.898C705.562 526.898 706.905 525.555 706.905 523.898C706.905 522.241 705.562 520.898 703.905 520.898C702.248 520.898 700.905 522.241 700.905 523.898C700.905 525.555 702.248 526.898 703.905 526.898Z" fill="#E6E6E6"/>
<path d="M148.374 233.799C153.344 233.799 157.374 229.769 157.374 224.799C157.374 219.828 153.344 215.799 148.374 215.799C143.403 215.799 139.374 219.828 139.374 224.799C139.374 229.769 143.403 233.799 148.374 233.799Z" fill="white"/>
<path d="M351.905 362.898C351.905 389.779 310.345 452.414 298.2 470.145C297.834 470.681 297.342 471.12 296.768 471.423C296.194 471.726 295.554 471.884 294.905 471.884C294.255 471.884 293.616 471.726 293.042 471.423C292.468 471.12 291.976 470.681 291.609 470.145C279.464 452.414 237.905 389.779 237.905 362.898C237.905 355.413 239.379 348.001 242.244 341.085C245.108 334.17 249.307 327.886 254.6 322.593C259.893 317.3 266.176 313.102 273.092 310.237C280.007 307.373 287.419 305.898 294.905 305.898C302.39 305.898 309.802 307.373 316.718 310.237C323.633 313.102 329.917 317.3 335.21 322.593C340.503 327.886 344.701 334.17 347.566 341.085C350.43 348.001 351.905 355.413 351.905 362.898V362.898Z" fill="white"/>
<path d="M294.905 387.898C310.921 387.898 323.905 374.915 323.905 358.898C323.905 342.882 310.921 329.898 294.905 329.898C278.889 329.898 265.905 342.882 265.905 358.898C265.905 374.915 278.889 387.898 294.905 387.898Z" fill="#6C63FF"/>
<path d="M294.405 502.898C312.906 502.898 327.905 499.988 327.905 496.398C327.905 492.809 312.906 489.898 294.405 489.898C275.903 489.898 260.905 492.809 260.905 496.398C260.905 499.988 275.903 502.898 294.405 502.898Z" fill="white"/>
<path d="M816.853 317.919C816.599 318.411 816.385 318.922 816.212 319.448L768.429 332.725L759.818 324.298L745.402 335.631L759.196 352.03C760.311 353.355 761.825 354.283 763.511 354.674C765.198 355.065 766.966 354.898 768.549 354.199L820.166 331.414C821.917 332.63 823.996 333.283 826.128 333.288C828.26 333.293 830.342 332.648 832.099 331.441C833.855 330.233 835.202 328.519 835.961 326.527C836.72 324.535 836.854 322.359 836.346 320.289C835.837 318.218 834.711 316.352 833.116 314.938C831.521 313.523 829.534 312.628 827.418 312.371C825.302 312.113 823.157 312.507 821.27 313.498C819.383 314.489 817.842 316.031 816.853 317.919H816.853Z" fill="#FFB8B8"/>
<path d="M766.746 333.503L748.81 347.463C748.3 347.86 747.71 348.143 747.081 348.291C746.452 348.44 745.798 348.451 745.163 348.324C744.529 348.197 743.93 347.935 743.406 347.556C742.883 347.176 742.447 346.689 742.129 346.126L730.982 326.398C728.964 323.776 728.069 320.46 728.492 317.179C728.915 313.897 730.622 310.917 733.239 308.892C735.857 306.867 739.17 305.963 742.453 306.378C745.736 306.793 748.72 308.492 750.751 311.104L767.09 326.698C767.557 327.144 767.923 327.687 768.162 328.287C768.402 328.888 768.509 329.533 768.476 330.179C768.443 330.825 768.272 331.456 767.973 332.03C767.675 332.604 767.256 333.106 766.746 333.503V333.503Z" fill="#6C63FF"/>
<path d="M821.435 311.317L839.623 319.5C840.385 319.842 840.979 320.474 841.276 321.254C841.572 322.035 841.546 322.902 841.203 323.664L839.05 328.45C839.303 328.565 839.501 328.775 839.599 329.035C839.698 329.295 839.69 329.584 839.576 329.838L838.715 331.752C838.6 332.006 838.39 332.203 838.13 332.302C837.87 332.401 837.581 332.392 837.327 332.279L836.466 334.193C836.719 334.308 836.917 334.519 837.015 334.779C837.114 335.039 837.106 335.327 836.992 335.581L836.131 337.496C836.016 337.749 835.806 337.947 835.546 338.046C835.286 338.144 834.997 338.136 834.743 338.023L823.115 363.869C822.772 364.63 822.141 365.225 821.36 365.521C820.579 365.817 819.712 365.791 818.951 365.449L800.763 357.266C800.001 356.923 799.407 356.292 799.111 355.511C798.814 354.73 798.84 353.863 799.183 353.102L817.272 312.897C817.614 312.135 818.245 311.541 819.026 311.244C819.807 310.948 820.674 310.974 821.435 311.317V311.317Z" fill="#3F3D56"/>
<path d="M804.065 354.719L818.656 361.29C819.387 361.617 820.218 361.641 820.967 361.358C821.716 361.075 822.323 360.507 822.655 359.779L829.394 344.789L831.735 339.593L837.834 326.031C838.159 325.301 838.183 324.472 837.9 323.725C837.617 322.978 837.05 322.373 836.322 322.042L831.735 319.974L821.721 315.471C820.99 315.145 820.159 315.122 819.412 315.407C818.664 315.692 818.06 316.263 817.732 316.993L811.833 330.104L805.115 345.03L802.554 350.73C802.227 351.46 802.202 352.289 802.486 353.037C802.769 353.784 803.337 354.389 804.065 354.719V354.719Z" fill="#F2F2F2"/>
<path d="M773.577 540.443L785.837 540.442L791.67 493.154L773.575 493.155L773.577 540.443Z" fill="#FFB8B8"/>
<path d="M770.45 536.44L794.594 536.439H794.595C796.616 536.439 798.616 536.837 800.483 537.611C802.35 538.384 804.046 539.517 805.475 540.946C806.904 542.375 808.037 544.071 808.81 545.938C809.584 547.804 809.981 549.805 809.981 551.826V552.326L770.451 552.327L770.45 536.44Z" fill="#2F2E41"/>
<path d="M805.577 537.443L817.837 537.442L823.67 490.154L805.575 490.155L805.577 537.443Z" fill="#FFB8B8"/>
<path d="M802.45 533.44L826.594 533.439H826.595C828.616 533.439 830.616 533.837 832.483 534.611C834.35 535.384 836.046 536.517 837.475 537.946C838.904 539.375 840.037 541.071 840.81 542.938C841.584 544.804 841.981 546.805 841.981 548.826V549.326L802.451 549.327L802.45 533.44Z" fill="#2F2E41"/>
<path d="M718.585 429.478C721.197 437.221 726.152 443.961 732.763 448.764C739.373 453.567 747.314 456.197 755.485 456.288L756.105 456.298C762.435 456.478 769.865 454.438 777.155 451.508C791.555 445.718 805.385 436.448 809.055 433.898L802.835 493.688L800.315 517.928C800.251 518.556 800.32 519.189 800.516 519.788C800.712 520.387 801.031 520.939 801.453 521.407C801.875 521.875 802.391 522.25 802.966 522.506C803.542 522.763 804.165 522.897 804.795 522.898H820.325C821.321 522.899 822.289 522.57 823.078 521.962C823.866 521.354 824.432 520.502 824.685 519.538L850.325 421.888C851.094 418.966 851.156 415.902 850.505 412.95C849.855 409.999 848.511 407.245 846.585 404.916C844.659 402.587 842.205 400.75 839.428 399.558C836.651 398.365 833.63 397.851 830.615 398.058L777.355 401.708L781.075 386.828L733.535 383.668L733.395 383.768C732.255 384.598 731.145 385.468 730.085 386.378C727.435 388.62 725.085 391.195 723.095 394.038C719.534 399.141 717.264 405.031 716.479 411.203C715.693 417.376 716.416 423.647 718.585 429.478Z" fill="#2F2E41"/>
<path d="M718.585 429.478C721.197 437.221 726.152 443.96 732.763 448.764C739.373 453.567 747.314 456.196 755.485 456.288C763.299 452.334 770.839 447.86 778.055 442.898L777.155 451.508L769.315 526.928C769.251 527.555 769.32 528.189 769.516 528.788C769.712 529.387 770.031 529.938 770.453 530.406C770.875 530.875 771.391 531.249 771.966 531.506C772.542 531.763 773.165 531.897 773.795 531.898H789.325C790.321 531.899 791.289 531.569 792.078 530.961C792.866 530.353 793.432 529.501 793.685 528.538L802.835 493.688L819.325 430.888C820.094 427.965 820.156 424.901 819.505 421.95C818.855 418.998 817.511 416.244 815.585 413.915C813.659 411.586 811.205 409.75 808.428 408.557C805.651 407.365 802.63 406.851 799.615 407.058L746.355 410.708L750.075 395.828L723.095 394.038C719.534 399.141 717.264 405.031 716.479 411.203C715.693 417.375 716.416 423.646 718.585 429.478V429.478Z" fill="#2F2E41"/>
<path d="M730.017 389.828L729.66 389.785L721.364 349C721.293 348.646 714.512 313.467 735.301 295.075L735.663 292.558C735.756 291.914 735.987 291.298 736.341 290.752C736.695 290.205 737.163 289.743 737.713 289.395C738.263 289.047 738.882 288.823 739.527 288.738C740.172 288.652 740.828 288.708 741.45 288.901L761.035 294.975C762.143 295.317 763.077 296.074 763.64 297.089C764.202 298.103 764.351 299.296 764.054 300.417L762.15 307.659C764.79 310.759 795.865 348.171 785.04 376.994L780.192 395.946L730.017 389.828Z" fill="#6C63FF"/>
<path d="M811.337 357.997C810.869 358.291 810.425 358.623 810.008 358.987L762.111 346.129L758.98 334.495L740.804 336.926L744.346 358.06C744.632 359.768 745.465 361.336 746.718 362.53C747.971 363.725 749.578 364.48 751.298 364.683L807.33 371.302C808.22 373.239 809.678 374.859 811.512 375.947C813.345 377.034 815.466 377.538 817.592 377.391C819.719 377.244 821.75 376.453 823.416 375.123C825.082 373.793 826.304 371.988 826.919 369.946C827.534 367.905 827.513 365.726 826.858 363.697C826.204 361.668 824.947 359.887 823.256 358.589C821.564 357.292 819.518 356.541 817.389 356.435C815.26 356.329 813.149 356.874 811.337 357.997H811.337Z" fill="#FFB8B8"/>
<path d="M760.266 345.944L737.724 348.847C737.083 348.93 736.431 348.873 735.814 348.681C735.196 348.489 734.627 348.167 734.146 347.735C733.664 347.303 733.281 346.773 733.023 346.18C732.765 345.587 732.638 344.946 732.65 344.299L733.08 321.644C732.676 318.36 733.59 315.05 735.623 312.44C737.656 309.829 740.641 308.131 743.924 307.718C747.206 307.305 750.519 308.21 753.135 310.236C755.751 312.262 757.457 315.242 757.879 318.524L764.021 340.258C764.197 340.88 764.237 341.533 764.137 342.172C764.038 342.811 763.802 343.421 763.445 343.961C763.089 344.5 762.62 344.957 762.072 345.299C761.523 345.641 760.907 345.861 760.266 345.944V345.944Z" fill="#6C63FF"/>
<path d="M753.92 283.365C767.485 283.365 778.481 272.368 778.481 258.804C778.481 245.239 767.485 234.243 753.92 234.243C740.356 234.243 729.359 245.239 729.359 258.804C729.359 272.368 740.356 283.365 753.92 283.365Z" fill="#FFB8B8"/>
<path d="M752.628 260.855L749.553 255.256C743.729 278.988 754.017 298.629 754.017 298.629L714.085 280.028L714.465 273.428L710.514 277.912L704.836 274.783L704.086 270.502L699.801 271.564L715.444 243.177C730.627 216.163 752.699 226.477 752.699 226.477C787.815 224.808 783.526 259.452 783.526 259.452L752.628 260.855Z" fill="#2F2E41"/>
<path d="M473.04 443.887C478.703 440.257 471.816 419.41 457.658 397.325C443.5 375.24 427.432 360.28 421.77 363.91C416.107 367.54 422.993 388.386 437.151 410.471C451.309 432.557 467.377 447.517 473.04 443.887Z" fill="#3F3D56"/>
</g>
<defs>
<clipPath id="clip0">
<rect width="982.487" height="763.014" fill="white"/>
</clipPath>
</defs>
</svg>
