<svg width="749" height="544" viewBox="0 0 749 544" fill="none" xmlns="http://www.w3.org/2000/svg">
<g clip-path="url(#clip0)">
<path d="M346.959 404.361H3.98634C2.92952 404.359 1.91637 403.939 1.16909 403.192C0.421807 402.444 0.00137089 401.431 -7.62939e-06 400.374V81.8657C0.00137882 80.8089 0.421824 79.7958 1.16911 79.0485C1.91639 78.3012 2.92952 77.8808 3.98634 77.8794H346.959C348.016 77.8808 349.029 78.3012 349.776 79.0485C350.523 79.7958 350.944 80.8089 350.945 81.8657V400.374C350.944 401.43 350.524 402.444 349.776 403.191C349.029 403.938 348.016 404.359 346.959 404.36V404.361Z" fill="#F1F1F1"/>
<path d="M401.023 451.991H58.0508C56.9939 451.989 55.9808 451.569 55.2335 450.822C54.4862 450.074 54.0658 449.061 54.0644 448.004V129.496C54.0658 128.439 54.4862 127.426 55.2335 126.678C55.9808 125.931 56.9939 125.511 58.0508 125.509H401.023C402.08 125.511 403.093 125.931 403.84 126.678C404.588 127.426 405.008 128.439 405.01 129.496V448.004C405.008 449.06 404.588 450.074 403.841 450.821C403.093 451.568 402.08 451.989 401.023 451.99V451.991Z" fill="white"/>
<path d="M401.023 451.991H58.0508C56.9939 451.989 55.9808 451.569 55.2335 450.822C54.4862 450.074 54.0658 449.061 54.0644 448.004V129.496C54.0658 128.439 54.4862 127.426 55.2335 126.678C55.9808 125.931 56.9939 125.511 58.0508 125.509H401.023C402.08 125.511 403.093 125.931 403.84 126.678C404.588 127.426 405.008 128.439 405.01 129.496V448.004C405.008 449.06 404.588 450.074 403.841 450.821C403.093 451.568 402.08 451.989 401.023 451.99V451.991ZM58.0508 127.101C57.4174 127.102 56.8104 127.354 56.3625 127.802C55.9146 128.25 55.6624 128.857 55.661 129.49V448.004C55.6624 448.637 55.9146 449.244 56.3625 449.692C56.8104 450.14 57.4174 450.392 58.0508 450.393H401.023C401.657 450.392 402.264 450.14 402.712 449.692C403.16 449.244 403.412 448.637 403.413 448.004V129.496C403.412 128.862 403.159 128.255 402.711 127.807C402.264 127.359 401.657 127.107 401.023 127.106L58.0508 127.101Z" fill="#E6E6E6"/>
<path d="M337.174 268.294H121.9C120.843 268.293 119.83 267.873 119.083 267.126C118.335 266.378 117.915 265.365 117.914 264.308V169.835C117.915 168.778 118.335 167.765 119.083 167.018C119.83 166.27 120.843 165.85 121.9 165.849H337.174C338.231 165.85 339.244 166.27 339.991 167.018C340.738 167.765 341.159 168.778 341.16 169.835V264.308C341.159 265.365 340.739 266.378 339.991 267.126C339.244 267.873 338.231 268.293 337.174 268.294Z" fill="#6C63FF"/>
<path d="M155.286 206.246C154.569 206.247 153.882 206.533 153.376 207.04C152.869 207.547 152.585 208.235 152.585 208.952C152.585 209.669 152.869 210.356 153.376 210.864C153.882 211.371 154.569 211.657 155.286 211.658H303.788C304.505 211.657 305.192 211.371 305.698 210.864C306.205 210.356 306.489 209.669 306.489 208.952C306.489 208.235 306.205 207.547 305.698 207.04C305.192 206.533 304.505 206.247 303.788 206.246H155.286Z" fill="white"/>
<path d="M155.286 222.485C154.569 222.486 153.882 222.772 153.376 223.279C152.869 223.787 152.585 224.474 152.585 225.191C152.585 225.908 152.869 226.596 153.376 227.103C153.882 227.61 154.569 227.896 155.286 227.898H231.099C231.816 227.896 232.503 227.61 233.01 227.103C233.516 226.596 233.8 225.908 233.8 225.191C233.8 224.474 233.516 223.787 233.01 223.279C232.503 222.772 231.816 222.486 231.099 222.485H155.286Z" fill="white"/>
<path d="M90.3158 303.116C89.599 303.118 88.912 303.403 88.4056 303.911C87.8991 304.418 87.6147 305.106 87.6147 305.823C87.6147 306.539 87.8991 307.227 88.4056 307.734C88.912 308.242 89.599 308.527 90.3158 308.529H368.758C369.475 308.527 370.162 308.242 370.668 307.734C371.175 307.227 371.459 306.539 371.459 305.823C371.459 305.106 371.175 304.418 370.668 303.911C370.162 303.403 369.475 303.118 368.758 303.116H90.3158Z" fill="#E6E6E6"/>
<path d="M90.3158 319.355C89.599 319.357 88.912 319.643 88.4056 320.15C87.8991 320.657 87.6147 321.345 87.6147 322.062C87.6147 322.779 87.8991 323.466 88.4056 323.974C88.912 324.481 89.599 324.767 90.3158 324.768H296.069C296.786 324.767 297.473 324.481 297.98 323.974C298.486 323.466 298.77 322.779 298.77 322.062C298.77 321.345 298.486 320.657 297.98 320.15C297.473 319.643 296.786 319.357 296.069 319.355H90.3158Z" fill="#E6E6E6"/>
<path d="M90.3158 335.228C89.599 335.229 88.912 335.515 88.4056 336.022C87.8991 336.529 87.6147 337.217 87.6147 337.934C87.6147 338.651 87.8991 339.338 88.4056 339.846C88.912 340.353 89.599 340.639 90.3158 340.64H368.758C369.475 340.639 370.162 340.353 370.668 339.846C371.175 339.338 371.459 338.651 371.459 337.934C371.459 337.217 371.175 336.529 370.668 336.022C370.162 335.515 369.475 335.229 368.758 335.228H90.3158Z" fill="#E6E6E6"/>
<path d="M90.3158 351.467C89.599 351.469 88.912 351.754 88.4056 352.262C87.8991 352.769 87.6147 353.457 87.6147 354.174C87.6147 354.891 87.8991 355.578 88.4056 356.085C88.912 356.593 89.599 356.879 90.3158 356.88H296.069C296.786 356.879 297.473 356.593 297.98 356.085C298.486 355.578 298.77 354.891 298.77 354.174C298.77 353.457 298.486 352.769 297.98 352.262C297.473 351.754 296.786 351.469 296.069 351.467H90.3158Z" fill="#E6E6E6"/>
<path d="M367.036 414.651H285.437C284.38 414.65 283.367 414.23 282.62 413.482C281.872 412.735 281.452 411.722 281.451 410.665V397.591C281.452 396.534 281.872 395.521 282.62 394.773C283.367 394.026 284.38 393.606 285.437 393.604H367.036C368.093 393.606 369.107 394.026 369.854 394.773C370.601 395.521 371.022 396.534 371.023 397.591V410.665C371.022 411.722 370.601 412.735 369.854 413.482C369.107 414.23 368.093 414.65 367.036 414.651V414.651Z" fill="#6C63FF"/>
<path d="M542.425 130.089L404.56 200.61L405.47 202.391L543.336 131.87L542.425 130.089Z" fill="#E5E5E5"/>
<path d="M405.465 385.6L404.554 387.38L542.431 457.88L543.341 456.1L405.465 385.6Z" fill="#E5E5E5"/>
<path d="M748.756 105C748.751 124.35 743.404 143.323 733.304 159.828C723.204 176.333 708.744 189.729 691.516 198.54C690.626 199 689.726 199.45 688.826 199.87C688.296 200.13 687.766 200.37 687.236 200.61C685.936 201.2 684.616 201.77 683.286 202.3C678.555 204.234 673.684 205.809 668.716 207.01C668.016 207.19 667.296 207.35 666.586 207.51C664.796 207.91 662.993 208.257 661.176 208.55C651.26 210.21 641.158 210.446 631.176 209.25C629.106 209.01 627.053 208.703 625.016 208.33C624.046 208.15 623.076 207.96 622.116 207.76C621.986 207.73 621.856 207.7 621.726 207.68C618.28 206.955 614.875 206.047 611.526 204.96C609.726 204.38 607.936 203.76 606.186 203.08C605.276 202.73 604.376 202.37 603.486 202C603.046 201.82 602.606 201.63 602.176 201.44C584.772 193.937 569.724 181.865 558.626 166.503C547.528 151.14 540.794 133.061 539.139 114.181C537.483 95.3021 540.968 76.3267 549.223 59.2674C557.479 42.2082 570.197 27.701 586.029 17.2844C601.862 6.86773 620.218 0.929917 639.152 0.100606C658.085 -0.728705 676.89 3.58141 693.573 12.5739C710.255 21.5663 724.193 34.9059 733.908 51.178C743.624 67.4501 748.754 86.0482 748.756 105V105Z" fill="#F1F1F1"/>
<path d="M748.756 439C748.732 455.919 744.632 472.583 736.805 487.582C728.977 502.582 717.651 515.474 703.786 525.17C703.526 525.35 703.266 525.53 703.006 525.7C701.486 526.75 699.936 527.76 698.346 528.71C697.336 529.33 696.306 529.93 695.276 530.52C694.036 531.22 692.786 531.89 691.516 532.54C691.226 532.69 690.936 532.84 690.636 532.98C689.576 533.52 688.506 534.04 687.416 534.53C687.356 534.56 687.296 534.58 687.236 534.61C686.876 534.77 686.506 534.94 686.126 535.1C683.776 536.14 681.376 537.1 678.926 537.96C678.756 538.03 678.576 538.09 678.396 538.15C672.786 540.121 667.014 541.593 661.146 542.55C660.036 542.75 658.916 542.91 657.796 543.06C657.616 543.09 657.426 543.12 657.246 543.14C655.716 543.34 654.176 543.5 652.626 543.63C652.446 543.65 652.266 543.66 652.086 543.67C650.926 543.77 649.756 543.84 648.576 543.89C646.976 543.96 645.376 544 643.756 544C641.486 544 639.229 543.93 636.986 543.79C635.036 543.66 633.096 543.49 631.176 543.25C630.006 543.11 628.836 542.95 627.686 542.77C626.416 542.58 625.146 542.36 623.896 542.12C623.276 542 622.656 541.87 622.036 541.74C621.936 541.72 621.826 541.7 621.726 541.68C620.726 541.47 619.736 541.25 618.756 541C614.87 540.062 611.043 538.893 607.296 537.5C606.016 537.02 604.746 536.52 603.486 536C603.096 535.84 602.706 535.67 602.326 535.5C601.636 535.21 600.956 534.9 600.276 534.59C599.766 534.36 599.256 534.12 598.746 533.88C597.666 533.38 596.606 532.85 595.546 532.3C594.696 531.87 593.846 531.41 593.016 530.95C592.996 530.94 592.986 530.93 592.966 530.92C576.759 521.966 563.208 508.885 553.687 493.004C544.165 477.123 539.013 459.007 538.751 440.493C538.489 421.979 543.127 403.724 552.196 387.581C561.264 371.437 574.44 357.978 590.387 348.569C606.334 339.16 624.486 334.134 643.002 334.003C661.517 333.871 679.739 338.638 695.818 347.819C711.898 357.001 725.263 370.271 734.56 386.284C743.857 402.297 748.755 420.484 748.756 439V439Z" fill="#F1F1F1"/>
<path d="M643.116 86.4902C635.565 86.4992 628.327 89.5027 622.987 94.8418C617.648 100.181 614.645 107.42 614.636 114.97V136.22C614.638 137.234 615.043 138.206 615.761 138.923C616.479 139.639 617.452 140.041 618.466 140.04H667.766C668.78 140.041 669.753 139.639 670.471 138.923C671.189 138.206 671.594 137.234 671.596 136.22V114.97C671.586 107.42 668.582 100.182 663.243 94.8427C657.905 89.5038 650.666 86.5001 643.116 86.4902V86.4902Z" fill="#2F2E41"/>
<path d="M628.566 175.9L625.836 163.6C625.453 161.852 624.558 160.258 623.266 159.02C622.117 158.021 620.772 157.275 619.316 156.83C619.146 156.79 618.976 156.75 618.796 156.72C618.721 156.699 618.644 156.682 618.566 156.67C617.341 156.457 616.085 156.5 614.877 156.795C613.669 157.091 612.536 157.634 611.548 158.389C610.559 159.144 609.738 160.095 609.136 161.183C608.533 162.271 608.162 163.472 608.046 164.71L605.726 179.22L602.176 201.44C602.606 201.63 603.046 201.82 603.486 202C604.376 202.37 605.276 202.73 606.186 203.08C607.936 203.76 609.726 204.38 611.526 204.96C614.875 206.047 618.28 206.955 621.726 207.68C621.856 207.7 621.986 207.73 622.116 207.76C623.076 207.96 624.046 208.15 625.016 208.33L629.866 181.76L628.566 175.9Z" fill="#2F2E41"/>
<path d="M636.09 139.722C647.621 139.722 656.969 130.374 656.969 118.843C656.969 107.312 647.621 97.9644 636.09 97.9644C624.559 97.9644 615.211 107.312 615.211 118.843C615.211 130.374 624.559 139.722 636.09 139.722Z" fill="#FFB7B7"/>
<path d="M658.656 188.72L654.196 153.56L653.256 146.11H653.246L652.826 146.1C651.406 146.05 650.026 146.04 648.666 146.09C640.319 146.125 632.134 148.39 624.956 152.65C623.077 153.796 621.285 155.08 619.596 156.49L619.516 156.57L619.316 156.83L612.226 165.95L612.216 166.13L611.526 204.96C614.875 206.047 618.28 206.955 621.726 207.68C621.856 207.7 621.986 207.73 622.116 207.76C623.076 207.96 624.046 208.15 625.016 208.33C627.056 208.7 629.109 209.007 631.176 209.25C641.158 210.446 651.26 210.21 661.176 208.55L658.656 188.72Z" fill="#6C63FF"/>
<path d="M665.956 153.79C662.671 149.916 658.212 147.219 653.256 146.11H653.246C651.925 145.812 650.579 145.635 649.226 145.58L648.876 145.57L648.666 146.09L631.866 186.59L629.156 175.77L624.956 152.65L624.926 152.48L624.296 152.85C622.35 153.971 620.509 155.266 618.796 156.72C611.981 162.474 607.434 170.463 605.966 179.26C605.538 181.867 605.38 184.511 605.496 187.15L606.186 203.08C607.936 203.76 609.726 204.38 611.526 204.96C614.875 206.047 618.28 206.955 621.726 207.68C621.856 207.7 621.986 207.73 622.116 207.76C623.076 207.96 624.046 208.15 625.016 208.33C627.056 208.7 629.109 209.006 631.176 209.25C641.158 210.446 651.26 210.21 661.176 208.55C662.996 208.26 664.799 207.913 666.586 207.51C667.296 207.35 668.016 207.19 668.716 207.01L667.206 202.56L671.206 171.67C671.615 168.488 671.36 165.257 670.456 162.179C669.552 159.102 668.02 156.245 665.956 153.79V153.79Z" fill="#2F2E41"/>
<path d="M670.916 154.65C670.201 152.449 668.665 150.608 666.627 149.511C664.589 148.414 662.207 148.145 659.976 148.76C659.615 148.852 659.261 148.969 658.916 149.11C657.258 149.786 655.839 150.942 654.841 152.43C653.843 153.917 653.312 155.669 653.316 157.46L653.356 176.15L658.656 188.72L666.586 207.51C667.296 207.35 668.016 207.19 668.716 207.01C673.684 205.809 678.555 204.234 683.286 202.3C684.616 201.77 685.936 201.2 687.236 200.61C687.766 200.37 688.296 200.13 688.826 199.87L670.916 154.65Z" fill="#2F2E41"/>
<path d="M634.686 94.1401H630.426C624.452 94.1422 618.724 96.5168 614.501 100.742C610.278 104.967 607.905 110.696 607.906 116.67V117.09H638.056L638.366 112.76L639.906 117.09H644.546L645.166 108.51L648.226 117.09H657.206V116.67C657.2 110.698 654.826 104.972 650.604 100.749C646.383 96.5248 640.658 94.1482 634.686 94.1401Z" fill="#2F2E41"/>
<path d="M625.536 477.88C622.019 477.628 618.487 478.082 615.148 479.214C611.808 480.347 608.729 482.135 606.091 484.474C603.453 486.814 601.308 489.657 599.784 492.836C598.26 496.016 597.387 499.468 597.216 502.99L595.546 532.3C596.606 532.85 597.666 533.38 598.746 533.88C599.256 534.12 599.766 534.36 600.276 534.59C600.956 534.9 601.636 535.21 602.326 535.5C602.706 535.67 603.096 535.84 603.486 536C604.746 536.52 606.016 537.02 607.296 537.5C611.043 538.894 614.87 540.062 618.756 541C619.736 541.25 620.726 541.47 621.726 541.68C621.826 541.7 621.936 541.72 622.036 541.74C622.656 541.87 623.276 542 623.896 542.12L626.016 477.91L625.536 477.88Z" fill="#2F2E41"/>
<path d="M652.626 543.63C654.176 543.5 655.716 543.34 657.246 543.14C657.426 543.12 657.616 543.09 657.796 543.06C658.916 542.91 660.036 542.75 661.146 542.55C661.236 539.84 661.206 537.89 661.206 537.65L666.176 485.86L655.816 479.82L653.796 478.64L622.476 477.63L622.216 477.85L607.176 490.89L602.326 535.5C602.706 535.67 603.096 535.84 603.486 536C604.746 536.52 606.016 537.02 607.296 537.5C611.043 538.893 614.87 540.062 618.756 541C619.736 541.25 620.726 541.47 621.726 541.68C621.826 541.7 621.936 541.72 622.036 541.74C622.656 541.87 623.276 542 623.896 542.12C625.146 542.36 626.416 542.58 627.686 542.77C628.836 542.95 630.006 543.11 631.176 543.25C633.096 543.49 635.036 543.66 636.986 543.79C639.226 543.93 641.483 544 643.756 544C645.376 544 646.976 543.96 648.576 543.89C649.756 543.84 650.926 543.77 652.086 543.67L652.626 543.63Z" fill="#2F2E41"/>
<path d="M673.576 490.32L655.836 479.48L655.816 479.82L652.626 543.63C654.176 543.5 655.716 543.34 657.246 543.14C657.426 543.12 657.616 543.09 657.796 543.06C658.916 542.91 660.036 542.75 661.146 542.55C667.014 541.593 672.786 540.121 678.396 538.15C678.576 538.09 678.756 538.03 678.926 537.96L680.186 502.18C680.273 499.788 679.703 497.417 678.538 495.326C677.373 493.236 675.656 491.504 673.576 490.32V490.32Z" fill="#2F2E41"/>
<path d="M634.638 470.724C646.793 470.724 656.647 460.87 656.647 448.715C656.647 436.561 646.793 426.707 634.638 426.707C622.483 426.707 612.63 436.561 612.63 448.715C612.63 460.87 622.483 470.724 634.638 470.724Z" fill="#9F616A"/>
<path d="M626.681 416.219C648.845 409.827 655.137 428.198 655.137 428.198C665.821 435.286 659.132 444.173 659.132 444.173C661.828 444.772 656.437 460.548 654.64 460.148C653.681 459.935 651.215 462.879 649.124 465.671C648.406 465.67 647.691 465.738 646.987 465.876L651.045 450.863C651.045 450.863 637.366 448.767 633.172 442.178C629.16 435.874 615.951 433.884 612.192 438.094C611.97 436.884 611.515 435.728 610.852 434.691C610.338 433.903 609.667 433.23 608.881 432.715C612.204 418.591 626.681 416.219 626.681 416.219Z" fill="#2F2E41"/>
<path opacity="0.2" d="M652.086 543.67C650.926 543.77 649.756 543.84 648.576 543.89L651.656 526.97V528.14L652.086 543.67Z" fill="black"/>
</g>
<defs>
<clipPath id="clip0">
<rect width="748.756" height="544" fill="white"/>
</clipPath>
</defs>
</svg>
