<svg width="486" height="408" viewBox="0 0 486 408" fill="none" xmlns="http://www.w3.org/2000/svg">
<path d="M48 96C38.5065 96 29.2262 93.1849 21.3326 87.9106C13.4391 82.6363 7.28678 75.1397 3.65377 66.3688C0.0207672 57.598 -0.929793 47.9468 0.922298 38.6357C2.77439 29.3246 7.34596 20.7718 14.0589 14.0589C20.7718 7.34597 29.3246 2.77442 38.6357 0.922328C47.9468 -0.929762 57.5979 0.0207977 66.3688 3.6538C75.1397 7.28681 82.6362 13.4391 87.9105 21.3327C93.1849 29.2262 96 38.5065 96 48C95.9856 60.726 90.9239 72.9266 81.9252 81.9253C72.9266 90.9239 60.726 95.9856 48 96ZM48 2.00003C38.9021 2.00003 30.0084 4.69788 22.4438 9.75242C14.8791 14.807 8.98317 21.9912 5.50154 30.3966C2.01991 38.802 1.10896 48.0511 2.88388 56.9742C4.6588 65.8973 9.03986 74.0937 15.4731 80.5269C21.9063 86.9602 30.1027 91.3412 39.0258 93.1161C47.949 94.8911 57.198 93.9801 65.6034 90.4985C74.0088 87.0168 81.1931 81.1209 86.2476 73.5563C91.3022 65.9916 94 57.098 94 48C93.9862 35.8043 89.1353 24.1121 80.5117 15.4884C71.888 6.86471 60.1957 2.01385 48 2.00003V2.00003Z" fill="#F2F2F2"/>
<path d="M374 68C369.253 68 364.613 66.5924 360.666 63.9553C356.72 61.3181 353.643 57.5698 351.827 53.1844C350.01 48.799 349.535 43.9734 350.461 39.3179C351.387 34.6623 353.673 30.3859 357.029 27.0294C360.386 23.673 364.662 21.3872 369.318 20.4612C373.973 19.5351 378.799 20.0104 383.184 21.8269C387.57 23.6434 391.318 26.7196 393.955 30.6663C396.592 34.6131 398 39.2533 398 44C397.993 50.363 395.462 56.4633 390.963 60.9626C386.463 65.4619 380.363 67.9928 374 68V68ZM374 22C369.649 22 365.395 23.2903 361.777 25.7077C358.16 28.1251 355.34 31.561 353.675 35.581C352.01 39.601 351.574 44.0244 352.423 48.292C353.272 52.5596 355.367 56.4796 358.444 59.5563C361.52 62.6331 365.44 64.7284 369.708 65.5773C373.976 66.4262 378.399 65.9905 382.419 64.3254C386.439 62.6602 389.875 59.8404 392.292 56.2225C394.71 52.6047 396 48.3512 396 44C395.993 38.1673 393.673 32.5753 389.549 28.4509C385.425 24.3266 379.833 22.0066 374 22Z" fill="#F2F2F2"/>
<path d="M321.31 403.577L311.749 399.551L305.191 351.623H217.851L210.742 399.356L202.188 403.632C201.779 403.837 201.451 404.174 201.257 404.588C201.063 405.003 201.014 405.47 201.12 405.916C201.225 406.361 201.477 406.758 201.836 407.042C202.195 407.326 202.639 407.48 203.096 407.48H320.522C320.991 407.48 321.445 407.318 321.808 407.021C322.171 406.724 322.42 406.311 322.513 405.851C322.606 405.391 322.537 404.914 322.317 404.499C322.098 404.085 321.742 403.759 321.31 403.577V403.577Z" fill="#E6E6E6"/>
<path d="M476.519 358H47.481C45.23 357.995 43.0729 357.097 41.4829 355.504C39.893 353.91 39 351.751 39 349.5V289H485V349.5C485 351.751 484.107 353.91 482.517 355.504C480.927 357.097 478.77 357.995 476.519 358V358Z" fill="#CCCCCC"/>
<path d="M485.448 317.594H38.6084V58.7271C38.6115 56.0104 39.6922 53.4059 41.6132 51.485C43.5342 49.564 46.1387 48.4835 48.8554 48.4805H475.201C477.918 48.4835 480.523 49.5641 482.444 51.485C484.365 53.4059 485.445 56.0104 485.448 58.7271V317.594Z" fill="#3F3D56"/>
<path d="M458.76 298.805H65.2964C63.202 298.803 61.1941 297.97 59.7131 296.489C58.2321 295.008 57.3991 293 57.3967 290.906V75.1685C57.3991 73.074 58.2321 71.0661 59.713 69.5851C61.194 68.104 63.202 67.271 65.2964 67.2686H458.76C460.855 67.271 462.863 68.104 464.344 69.5851C465.825 71.0661 466.658 73.074 466.66 75.1685V290.906C466.658 293 465.825 295.008 464.344 296.489C462.863 297.97 460.855 298.803 458.76 298.805Z" fill="white"/>
<path d="M455.057 407.98H74.0569C73.7917 407.98 73.5374 407.875 73.3498 407.687C73.1623 407.5 73.0569 407.245 73.0569 406.98C73.0569 406.715 73.1623 406.461 73.3498 406.273C73.5374 406.086 73.7917 405.98 74.0569 405.98H455.057C455.322 405.98 455.577 406.086 455.764 406.273C455.952 406.461 456.057 406.715 456.057 406.98C456.057 407.245 455.952 407.5 455.764 407.687C455.577 407.875 455.322 407.98 455.057 407.98Z" fill="#CCCCCC"/>
<path d="M421.796 272H102.261C101.995 272 101.741 271.895 101.554 271.707C101.366 271.52 101.261 271.265 101.261 271V117.847C101.261 117.581 101.366 117.327 101.554 117.14C101.741 116.952 101.995 116.847 102.261 116.847C102.526 116.847 102.78 116.952 102.968 117.14C103.155 117.327 103.261 117.581 103.261 117.847V270H421.796C422.061 270 422.316 270.105 422.503 270.293C422.691 270.48 422.796 270.735 422.796 271C422.796 271.265 422.691 271.52 422.503 271.707C422.316 271.895 422.061 272 421.796 272Z" fill="#3F3D56"/>
<path d="M170.531 261H141.468C140.681 260.999 139.927 260.686 139.37 260.13C138.814 259.573 138.501 258.819 138.5 258.032V217.968C138.501 217.181 138.814 216.427 139.37 215.87C139.927 215.314 140.681 215.001 141.468 215H170.531C171.318 215.001 172.073 215.314 172.629 215.87C173.186 216.427 173.499 217.181 173.5 217.968V258.032C173.499 258.819 173.186 259.573 172.629 260.13C172.073 260.686 171.318 260.999 170.531 261V261Z" fill="#6C63FF"/>
<path d="M223.531 261H194.468C193.681 260.999 192.927 260.686 192.37 260.13C191.814 259.573 191.501 258.819 191.5 258.032V179.968C191.501 179.181 191.814 178.427 192.37 177.87C192.927 177.314 193.681 177.001 194.468 177H223.531C224.318 177.001 225.073 177.314 225.629 177.87C226.186 178.427 226.499 179.181 226.5 179.968V258.032C226.499 258.819 226.186 259.573 225.629 260.13C225.073 260.686 224.318 260.999 223.531 261V261Z" fill="#6C63FF"/>
<path d="M276.531 261H247.468C246.681 260.999 245.927 260.686 245.37 260.13C244.814 259.573 244.501 258.819 244.5 258.032V217.968C244.501 217.181 244.814 216.427 245.37 215.87C245.927 215.314 246.681 215.001 247.468 215H276.531C277.318 215.001 278.073 215.314 278.629 215.87C279.186 216.427 279.499 217.181 279.5 217.968V258.032C279.499 258.819 279.186 259.573 278.629 260.13C278.073 260.686 277.318 260.999 276.531 261V261Z" fill="#6C63FF"/>
<path d="M329.531 261H300.469C299.699 261.016 298.955 260.728 298.399 260.196C297.842 259.665 297.519 258.935 297.5 258.166V164.834C297.519 164.065 297.842 163.335 298.399 162.803C298.955 162.272 299.699 161.983 300.469 162H329.531C330.301 161.983 331.045 162.272 331.601 162.803C332.158 163.335 332.481 164.065 332.5 164.834V258.166C332.481 258.935 332.158 259.665 331.601 260.196C331.045 260.728 330.301 261.016 329.531 261V261Z" fill="#6C63FF"/>
<path d="M382.531 261H353.469C352.682 260.999 351.927 260.686 351.37 260.13C350.814 259.573 350.501 258.819 350.5 258.032V137.968C350.501 137.181 350.814 136.427 351.37 135.87C351.927 135.314 352.682 135.001 353.469 135H382.531C383.318 135.001 384.073 135.314 384.63 135.87C385.186 136.427 385.499 137.181 385.5 137.968V258.032C385.499 258.819 385.186 259.573 384.63 260.13C384.073 260.686 383.318 260.999 382.531 261V261Z" fill="#6C63FF"/>
<path d="M156 203C159.314 203 162 200.314 162 197C162 193.686 159.314 191 156 191C152.686 191 150 193.686 150 197C150 200.314 152.686 203 156 203Z" fill="#3F3D56"/>
<path d="M209 164C212.314 164 215 161.314 215 158C215 154.686 212.314 152 209 152C205.686 152 203 154.686 203 158C203 161.314 205.686 164 209 164Z" fill="#3F3D56"/>
<path d="M262 203C265.314 203 268 200.314 268 197C268 193.686 265.314 191 262 191C258.686 191 256 193.686 256 197C256 200.314 258.686 203 262 203Z" fill="#3F3D56"/>
<path d="M315 145C318.314 145 321 142.314 321 139C321 135.686 318.314 133 315 133C311.686 133 309 135.686 309 139C309 142.314 311.686 145 315 145Z" fill="#3F3D56"/>
<path d="M368 123C371.314 123 374 120.314 374 117C374 113.686 371.314 111 368 111C364.686 111 362 113.686 362 117C362 120.314 364.686 123 368 123Z" fill="#3F3D56"/>
<path d="M262.126 198.344L209 158.552L156.6 197.8L155.4 196.2L209 156.053L261.874 195.656L314.415 138.158L314.626 138.072L367.626 116.718L368.374 118.573L315.585 139.842L262.126 198.344Z" fill="#3F3D56"/>
</svg>
