<?xml version="1.0" encoding="iso-8859-1"?>
<!-- Generator: Adobe Illustrator 19.0.0, SVG Export Plug-In . SVG Version: 6.00 Build 0)  -->
<svg version="1.1" id="Capa_1" xmlns="http://www.w3.org/2000/svg" xmlns:xlink="http://www.w3.org/1999/xlink" x="0px" y="0px"
	 viewBox="0 0 512 512" style="enable-background:new 0 0 512 512;" xml:space="preserve">
<g>
	<polyline style="fill:#F15D5C;" points="385.172,192.177 418.452,170.947 398.404,139.521 366.272,160.018 	"/>
	<polyline style="fill:#F15D5C;" points="397.967,269.106 431.5,269.106 431.5,231.83 396.675,231.83 	"/>
</g>
<g>
	<polyline style="fill:#DD976D;" points="138.996,379.213 150.999,502 328,502 340.004,379.213 	"/>
	<polyline style="fill:#DD976D;" points="340.004,132.787 328,10 150.999,10 138.996,132.787 	"/>
</g>
<path d="M292.439,57c-0.649,0-1.31-0.07-1.949-0.2c-0.641-0.12-1.271-0.32-1.87-0.57c-0.601-0.25-1.181-0.56-1.73-0.92
	c-0.54-0.36-1.06-0.78-1.52-1.24s-0.88-0.97-1.24-1.52c-0.36-0.54-0.67-1.12-0.92-1.72c-0.25-0.61-0.44-1.24-0.57-1.88
	s-0.2-1.3-0.2-1.95s0.07-1.31,0.2-1.95s0.32-1.27,0.57-1.87c0.25-0.61,0.56-1.19,0.92-1.73c0.36-0.55,0.78-1.06,1.24-1.52
	s0.979-0.88,1.52-1.24c0.55-0.36,1.13-0.67,1.73-0.92s1.229-0.45,1.87-0.57c1.29-0.26,2.619-0.26,3.909,0
	c0.641,0.12,1.271,0.32,1.87,0.57c0.601,0.25,1.181,0.56,1.721,0.92c0.55,0.36,1.06,0.78,1.52,1.24c0.47,0.46,0.88,0.97,1.25,1.52
	c0.36,0.54,0.67,1.12,0.92,1.73c0.25,0.6,0.44,1.23,0.57,1.87s0.189,1.3,0.189,1.95s-0.06,1.31-0.189,1.95
	c-0.13,0.64-0.32,1.27-0.57,1.88c-0.25,0.6-0.56,1.18-0.92,1.72c-0.37,0.55-0.78,1.06-1.25,1.52c-0.46,0.46-0.97,0.88-1.52,1.24
	c-0.54,0.36-1.12,0.67-1.721,0.92c-0.6,0.25-1.229,0.45-1.87,0.57C293.75,56.93,293.1,57,292.439,57z"/>
<path d="M186.56,475c-0.65,0-1.31-0.07-1.96-0.2c-0.64-0.12-1.27-0.32-1.87-0.57c-0.6-0.25-1.18-0.56-1.72-0.92
	c-0.55-0.36-1.06-0.78-1.52-1.24c-0.47-0.46-0.88-0.97-1.25-1.52c-0.36-0.54-0.67-1.12-0.92-1.73c-0.25-0.6-0.44-1.23-0.57-1.87
	c-0.13-0.64-0.19-1.3-0.19-1.95s0.06-1.31,0.19-1.95s0.32-1.27,0.57-1.87c0.25-0.61,0.56-1.19,0.92-1.73
	c0.37-0.55,0.78-1.06,1.25-1.52c0.46-0.46,0.97-0.88,1.52-1.24c0.54-0.36,1.12-0.67,1.72-0.92s1.23-0.45,1.87-0.58
	c1.29-0.25,2.62-0.25,3.91,0c0.64,0.13,1.27,0.33,1.87,0.58s1.18,0.56,1.73,0.92c0.54,0.36,1.06,0.78,1.52,1.24s0.88,0.97,1.24,1.52
	c0.36,0.54,0.67,1.12,0.92,1.73c0.25,0.6,0.44,1.23,0.57,1.87s0.2,1.3,0.2,1.95c0,2.63-1.07,5.21-2.93,7.07S189.19,475,186.56,475z"
	/>
<circle style="fill:#009796;" cx="239.5" cy="256" r="159"/>
<path style="fill:#C9FDFB;" d="M239.5,373.575c-64.832,0-117.575-52.744-117.575-117.575S174.668,138.425,239.5,138.425
	c64.831,0,117.575,52.744,117.575,117.575S304.331,373.575,239.5,373.575z"/>
<path d="M278.376,266H239.5c-5.523,0-10-4.477-10-10v-58.739c0-5.523,4.477-10,10-10s10,4.477,10,10V246h28.876
	c5.522,0,10,4.477,10,10C288.376,261.523,283.898,266,278.376,266z"/>
<path d="M431.5,221.83h-26.472c-1.821-8.832-4.333-17.415-7.476-25.689l26.278-16.763c2.236-1.426,3.813-3.683,4.387-6.272
	c0.572-2.59,0.093-5.301-1.334-7.537l-20.048-31.427c-1.427-2.236-3.683-3.814-6.272-4.386c-2.586-0.574-5.3-0.093-7.536,1.333
	l-24.636,15.717c-5.768-6.798-12.063-13.135-18.821-18.948L337.952,9.027C337.452,3.905,333.146,0,328,0H151
	c-5.146,0-9.452,3.905-9.953,9.027L129.43,127.859C93.371,158.876,70.5,204.817,70.5,256s22.871,97.124,58.93,128.141
	l11.617,118.832c0.501,5.122,4.807,9.027,9.953,9.027h177c5.146,0,9.452-3.905,9.952-9.027l11.617-118.832
	c30.538-26.268,51.617-63.24,57.356-105.035H431.5c5.522,0,10-4.477,10-10V231.83C441.5,226.307,437.022,221.83,431.5,221.83z
	 M395.352,153.329l9.292,14.565l-15.394,9.82c-2.686-5.118-5.627-10.082-8.806-14.875L395.352,153.329z M156.453,57h98.991
	c5.523,0,10-4.477,10-10s-4.478-10-10-10h-97.036l1.662-17h158.86l8.997,92.029C302.187,96.161,271.893,87,239.5,87
	s-62.687,9.161-88.427,25.028L156.453,57z M322.547,455h-98.991c-5.523,0-10,4.477-10,10s4.477,10,10,10h97.036l-1.662,17H160.07
	l-8.997-92.028C176.813,415.839,207.107,425,239.5,425s62.687-9.161,88.427-25.029L322.547,455z M239.5,405
	c-82.159,0-149-66.841-149-149s66.841-149,149-149s149,66.841,149,149S321.659,405,239.5,405z M421.5,259.106h-13.029
	c0.019-1.033,0.029-2.069,0.029-3.106c0-4.771-0.199-9.497-0.589-14.17H421.5V259.106z"/>
<path d="M239.5,128.425c-70.345,0-127.575,57.23-127.575,127.575s57.23,127.575,127.575,127.575S367.075,326.345,367.075,256
	S309.845,128.425,239.5,128.425z M249.5,363.114v-6.155c0-5.523-4.477-10-10-10s-10,4.477-10,10v6.155
	c-51.354-4.755-92.358-45.76-97.114-97.114h6.155c5.523,0,10-4.477,10-10s-4.477-10-10-10h-6.155
	c4.756-51.354,45.76-92.358,97.114-97.114v6.155c0,5.523,4.477,10,10,10s10-4.477,10-10v-6.155
	c51.354,4.755,92.358,45.76,97.114,97.114h-6.155c-5.522,0-10,4.477-10,10c0,5.523,4.478,10,10,10h6.155
	C341.858,317.354,300.854,358.358,249.5,363.114z"/>
<g>
</g>
<g>
</g>
<g>
</g>
<g>
</g>
<g>
</g>
<g>
</g>
<g>
</g>
<g>
</g>
<g>
</g>
<g>
</g>
<g>
</g>
<g>
</g>
<g>
</g>
<g>
</g>
<g>
</g>
</svg>
