<svg width="200" height="200" viewBox="0 0 200 200" fill="none" xmlns="http://www.w3.org/2000/svg">
<path d="M129.3 51.0001C138 54.3001 145.3 62.0001 155.2 70.9001C165.2 79.8001 177.9 89.9001 182.2 102.5C186.4 115 182.2 130 173.9 141.7C165.5 153.4 153 161.7 140 167C126.9 172.4 113.5 174.8 100.4 174.1C87.2999 173.4 74.5999 169.6 67.3999 161C60.0999 152.3 58.1999 138.8 50.0999 127.8C41.9999 116.8 27.5999 108.4 21.2999 96.4001C15.0999 84.4001 16.8999 68.7001 25.6999 58.8001C34.3999 48.9001 49.9999 44.7001 63.5999 44.1001C77.0999 43.5001 88.5999 46.5001 99.3999 47.5001C110.3 48.5001 120.5 47.6001 129.3 51.0001Z" fill="#6C63FF"/>
</svg>
