<svg width="664" height="479" viewBox="0 0 664 479" fill="none" xmlns="http://www.w3.org/2000/svg">
<path d="M136.286 439.484H74.1915C72.5101 439.482 70.898 438.813 69.709 437.624C68.52 436.435 67.8511 434.823 67.8491 433.142V228.544C67.8511 226.862 68.52 225.25 69.709 224.062C70.898 222.873 72.5101 222.204 74.1915 222.202H136.286C137.968 222.204 139.58 222.873 140.769 224.062C141.958 225.25 142.627 226.862 142.629 228.544V433.142C142.627 434.823 141.958 436.435 140.769 437.624C139.58 438.813 137.968 439.482 136.286 439.484V439.484Z" fill="#6C63FF"/>
<path d="M249.524 439.484H187.429C185.748 439.482 184.136 438.813 182.947 437.624C181.758 436.435 181.089 434.823 181.087 433.142V147.355C181.089 145.673 181.758 144.061 182.947 142.872C184.136 141.683 185.748 141.015 187.429 141.013H249.524C251.205 141.015 252.817 141.683 254.006 142.872C255.195 144.061 255.864 145.673 255.866 147.355V433.142C255.864 434.823 255.195 436.435 254.006 437.624C252.817 438.813 251.205 439.482 249.524 439.484V439.484Z" fill="#6C63FF"/>
<path d="M362.761 439.484H300.667C298.985 439.482 297.373 438.813 296.184 437.624C294.995 436.435 294.326 434.823 294.324 433.142V228.544C294.326 226.862 294.995 225.25 296.184 224.062C297.373 222.873 298.985 222.204 300.667 222.202H362.761C364.443 222.204 366.055 222.873 367.244 224.062C368.433 225.25 369.102 226.862 369.104 228.544V433.142C369.102 434.823 368.433 436.435 367.244 437.624C366.055 438.813 364.443 439.482 362.761 439.484V439.484Z" fill="#6C63FF"/>
<path d="M475.999 439.484H413.904C412.261 439.519 410.671 438.902 409.482 437.767C408.293 436.632 407.603 435.072 407.562 433.429V115.019C407.603 113.376 408.293 111.816 409.482 110.681C410.671 109.546 412.261 108.929 413.904 108.964H475.999C477.642 108.929 479.232 109.546 480.421 110.681C481.61 111.816 482.3 113.376 482.341 115.019V433.429C482.3 435.072 481.61 436.632 480.421 437.767C479.232 438.902 477.642 439.519 475.999 439.484Z" fill="#6C63FF"/>
<path d="M589.236 439.484H527.142C525.46 439.482 523.848 438.813 522.659 437.624C521.47 436.435 520.801 434.823 520.799 433.142V57.6192C520.801 55.9378 521.47 54.3258 522.659 53.1369C523.848 51.948 525.46 51.2792 527.142 51.2773H589.236C590.918 51.2792 592.53 51.948 593.719 53.1369C594.908 54.3258 595.577 55.9378 595.579 57.6192V433.142C595.577 434.823 594.908 436.435 593.719 437.624C592.53 438.813 590.918 439.482 589.236 439.484V439.484Z" fill="#6C63FF"/>
<path d="M105.239 196.563C112.319 196.563 118.058 190.824 118.058 183.744C118.058 176.664 112.319 170.925 105.239 170.925C98.1589 170.925 92.4194 176.664 92.4194 183.744C92.4194 190.824 98.1589 196.563 105.239 196.563Z" fill="#3F3D56"/>
<path d="M218.476 113.238C225.556 113.238 231.296 107.498 231.296 100.418C231.296 93.3383 225.556 87.5989 218.476 87.5989C211.396 87.5989 205.657 93.3383 205.657 100.418C205.657 107.498 211.396 113.238 218.476 113.238Z" fill="#3F3D56"/>
<path d="M331.714 196.563C338.794 196.563 344.533 190.824 344.533 183.744C344.533 176.664 338.794 170.925 331.714 170.925C324.634 170.925 318.895 176.664 318.895 183.744C318.895 190.824 324.634 196.563 331.714 196.563Z" fill="#3F3D56"/>
<path d="M444.951 72.6428C452.031 72.6428 457.771 66.9034 457.771 59.8235C457.771 52.7436 452.031 47.0042 444.951 47.0042C437.871 47.0042 432.132 52.7436 432.132 59.8235C432.132 66.9034 437.871 72.6428 444.951 72.6428Z" fill="#3F3D56"/>
<path d="M558.189 25.6387C565.269 25.6387 571.008 19.8993 571.008 12.8194C571.008 5.73942 565.269 0 558.189 0C551.109 0 545.37 5.73942 545.37 12.8194C545.37 19.8993 551.109 25.6387 558.189 25.6387Z" fill="#3F3D56"/>
<path d="M663 479H1C0.734784 479 0.480429 478.895 0.292892 478.707C0.105356 478.52 0 478.265 0 478C0 477.735 0.105356 477.48 0.292892 477.293C0.480429 477.105 0.734784 477 1 477H663C663.265 477 663.52 477.105 663.707 477.293C663.895 477.48 664 477.735 664 478C664 478.265 663.895 478.52 663.707 478.707C663.52 478.895 663.265 479 663 479Z" fill="#CBCBCB"/>
<path d="M104.555 184.546L103.361 182.942L218.477 97.239L331.348 181.429L445.764 57.205L445.969 57.121L557.009 11.292L557.772 13.141L446.936 58.885L331.597 184.11L218.476 99.733L104.555 184.546Z" fill="#3F3D56"/>
</svg>
