<svg width="3397" height="1460" viewBox="0 0 3397 1460" fill="none" xmlns="http://www.w3.org/2000/svg">
<g clip-path="url(#clip0)">
<path d="M95.0563 1282.21C95.0675 1267.46 100.936 1253.32 111.371 1242.89C121.806 1232.46 135.955 1226.6 150.707 1226.6C165.459 1226.6 179.608 1232.46 190.043 1242.89C200.479 1253.32 206.347 1267.46 206.358 1282.21" fill="#F2F2F2"/>
<path d="M150.707 1282.21C150.308 1282.21 149.926 1282.06 149.644 1281.77C149.362 1281.49 149.203 1281.11 149.203 1280.71V1251.38C149.203 1250.98 149.361 1250.6 149.644 1250.32C149.926 1250.03 150.308 1249.88 150.707 1249.88C151.106 1249.88 151.489 1250.03 151.771 1250.32C152.053 1250.6 152.211 1250.98 152.211 1251.38V1280.71C152.211 1281.11 152.053 1281.49 151.771 1281.77C151.489 1282.06 151.106 1282.21 150.707 1282.21V1282.21Z" fill="#CCCCCC"/>
<path d="M150.707 1272.13C150.347 1272.14 150 1272.01 149.727 1271.77L131.679 1256.28C131.527 1256.15 131.402 1256 131.311 1255.82C131.22 1255.64 131.165 1255.45 131.149 1255.25C131.133 1255.05 131.156 1254.85 131.218 1254.66C131.279 1254.48 131.377 1254.3 131.507 1254.15C131.636 1254 131.794 1253.88 131.972 1253.79C132.149 1253.7 132.342 1253.64 132.541 1253.63C132.739 1253.62 132.938 1253.64 133.126 1253.7C133.314 1253.77 133.488 1253.87 133.638 1254L151.687 1269.49C151.92 1269.69 152.086 1269.96 152.163 1270.25C152.24 1270.55 152.224 1270.87 152.118 1271.15C152.011 1271.44 151.818 1271.69 151.566 1271.87C151.314 1272.04 151.014 1272.14 150.706 1272.14L150.707 1272.13Z" fill="#CCCCCC"/>
<path d="M266.521 1282.21C266.532 1267.46 272.401 1253.32 282.836 1242.89C293.271 1232.46 307.42 1226.6 322.172 1226.6C336.924 1226.6 351.073 1232.46 361.508 1242.89C371.944 1253.32 377.812 1267.46 377.823 1282.21" fill="#F2F2F2"/>
<path d="M322.172 1282.21C321.773 1282.21 321.391 1282.06 321.109 1281.77C320.826 1281.49 320.668 1281.11 320.668 1280.71V1251.38C320.668 1250.98 320.826 1250.6 321.109 1250.32C321.391 1250.03 321.773 1249.88 322.172 1249.88C322.571 1249.88 322.954 1250.03 323.236 1250.32C323.518 1250.6 323.676 1250.98 323.676 1251.38V1280.71C323.676 1281.11 323.518 1281.49 323.236 1281.77C322.953 1282.06 322.571 1282.21 322.172 1282.21V1282.21Z" fill="#CCCCCC"/>
<path d="M322.171 1272.14C321.812 1272.14 321.464 1272.01 321.192 1271.77L303.143 1256.28C302.991 1256.15 302.866 1256 302.775 1255.82C302.684 1255.64 302.629 1255.45 302.613 1255.25C302.597 1255.05 302.62 1254.85 302.681 1254.67C302.743 1254.48 302.841 1254.3 302.971 1254.15C303.1 1254 303.258 1253.88 303.436 1253.79C303.613 1253.7 303.807 1253.64 304.005 1253.63C304.203 1253.62 304.402 1253.64 304.591 1253.7C304.779 1253.77 304.953 1253.87 305.103 1254L323.152 1269.49C323.385 1269.69 323.551 1269.96 323.628 1270.25C323.705 1270.55 323.689 1270.87 323.582 1271.15C323.476 1271.44 323.283 1271.69 323.031 1271.87C322.778 1272.04 322.478 1272.14 322.171 1272.14L322.171 1272.14Z" fill="#CCCCCC"/>
<path d="M2544.34 218.231C2603.43 218.231 2651.33 170.328 2651.33 111.237C2651.33 52.1466 2603.43 4.24414 2544.34 4.24414C2485.25 4.24414 2437.35 52.1466 2437.35 111.237C2437.35 170.328 2485.25 218.231 2544.34 218.231Z" fill="#F2F2F2"/>
<path d="M352.719 1401.64C406.435 1401.64 449.981 1391.48 449.981 1378.94C449.981 1366.41 406.435 1356.25 352.719 1356.25C299.003 1356.25 255.458 1366.41 255.458 1378.94C255.458 1391.48 299.003 1401.64 352.719 1401.64Z" fill="#F2F2F2"/>
<path d="M303.07 447.303C328.578 367.647 390.864 305.87 464.731 269.128C552.373 225.533 653.084 220.597 748.245 237.564C850.972 255.88 946.983 298.104 1039.92 344.182C1131.07 389.379 1220.76 437.103 1315.56 474.453C1504.82 548.913 1705.42 590.467 1908.68 597.319C2091.63 603.422 2287.24 583.376 2443.89 480.541C2587.43 386.316 2678.76 230.872 2726.33 68.8384C2732.42 48.0944 2737.83 27.172 2742.57 6.07129C2743.95 -0.023819 2734.58 -2.6262 2733.19 3.48557C2694.82 172.689 2613 339.921 2473.19 447.78C2321.98 564.436 2123.52 591.403 1937.81 588.317C1732.32 584.729 1529.02 545.495 1336.95 472.362C1239.71 435.341 1147.95 387.269 1055.03 340.859C964.137 295.468 870.696 252.978 770.753 232.043C679.492 212.927 581.782 211.762 493.792 245.779C421.339 273.789 355.277 323.714 316.616 392.011C307.19 408.748 299.508 426.41 293.691 444.718C291.778 450.693 301.165 453.251 303.07 447.303V447.303Z" fill="#F2F2F2"/>
<path d="M1691.65 1192.09C1692.51 1192.09 1693.33 1191.75 1693.94 1191.15C1694.55 1190.54 1694.89 1189.71 1694.89 1188.85C1694.89 1187.99 1694.55 1187.17 1693.94 1186.56C1693.33 1185.95 1692.51 1185.61 1691.65 1185.61H1660.85V1172.64H1691.65C1692.51 1172.64 1693.33 1172.3 1693.94 1171.69C1694.55 1171.08 1694.89 1170.26 1694.89 1169.4C1694.89 1168.54 1694.55 1167.71 1693.94 1167.11C1693.33 1166.5 1692.51 1166.16 1691.65 1166.16H1429.04C1428.18 1166.16 1427.36 1166.5 1426.75 1167.11C1426.14 1167.71 1425.8 1168.54 1425.8 1169.4C1425.8 1170.26 1426.14 1171.08 1426.75 1171.69C1427.36 1172.3 1428.18 1172.64 1429.04 1172.64H1459.84V1185.61H1429.04C1428.18 1185.61 1427.36 1185.95 1426.75 1186.56C1426.14 1187.17 1425.8 1187.99 1425.8 1188.85C1425.8 1189.71 1426.14 1190.54 1426.75 1191.15C1427.36 1191.75 1428.18 1192.09 1429.04 1192.09H1459.84V1205.06H1429.04C1428.18 1205.06 1427.36 1205.41 1426.75 1206.01C1426.14 1206.62 1425.8 1207.45 1425.8 1208.31C1425.8 1209.17 1426.14 1209.99 1426.75 1210.6C1427.36 1211.21 1428.18 1211.55 1429.04 1211.55H1459.84V1224.52H1432.28C1430.56 1224.52 1428.91 1225.2 1427.7 1226.42C1426.48 1227.63 1425.8 1229.28 1425.8 1231C1425.8 1232.72 1426.48 1234.37 1427.7 1235.59C1428.91 1236.8 1430.56 1237.49 1432.28 1237.49H1458.52C1458.32 1238.01 1458.22 1238.55 1458.22 1239.11V1284.5C1458.22 1285.79 1458.73 1287.02 1459.64 1287.94C1460.55 1288.85 1461.79 1289.36 1463.08 1289.36C1464.37 1289.36 1465.61 1288.85 1466.52 1287.94C1467.43 1287.02 1467.94 1285.79 1467.94 1284.5V1239.11C1467.94 1238.55 1467.84 1238.01 1467.65 1237.49H1653.04C1652.85 1238.01 1652.75 1238.55 1652.74 1239.11V1284.5C1652.74 1285.79 1653.25 1287.02 1654.17 1287.94C1655.08 1288.85 1656.31 1289.36 1657.6 1289.36C1658.89 1289.36 1660.13 1288.85 1661.04 1287.94C1661.95 1287.02 1662.47 1285.79 1662.47 1284.5V1239.11C1662.46 1238.55 1662.36 1238.01 1662.17 1237.49H1688.4C1690.12 1237.49 1691.77 1236.8 1692.99 1235.59C1694.2 1234.37 1694.89 1232.72 1694.89 1231C1694.89 1229.28 1694.2 1227.63 1692.99 1226.42C1691.77 1225.2 1690.12 1224.52 1688.4 1224.52H1660.85V1211.55H1691.65C1692.51 1211.55 1693.33 1211.21 1693.94 1210.6C1694.55 1209.99 1694.89 1209.17 1694.89 1208.31C1694.89 1207.45 1694.55 1206.62 1693.94 1206.01C1693.33 1205.41 1692.51 1205.06 1691.65 1205.06H1660.85V1192.09H1691.65ZM1466.32 1172.64H1654.36V1185.61H1466.32V1172.64ZM1654.36 1224.52H1466.32V1211.55H1654.36V1224.52ZM1654.36 1205.06H1466.32V1192.09H1654.36V1205.06Z" fill="#3F3D56"/>
<path d="M702.86 1056.02C702.86 998.754 656.412 862.875 599.115 862.875C541.818 862.875 495.369 998.754 495.369 1056.02C495.369 1083.53 506.3 1109.92 525.756 1129.38C545.212 1148.84 571.6 1159.77 599.115 1159.77C626.63 1159.77 653.018 1148.84 672.474 1129.38C691.93 1109.92 702.861 1083.53 702.861 1056.02H702.86Z" fill="#E6E6E6"/>
<path d="M676.924 1056.02C676.924 998.754 630.476 862.875 573.179 862.875C515.882 862.875 469.433 998.754 469.433 1056.02C469.433 1083.53 480.363 1109.92 499.82 1129.38C519.276 1148.84 545.664 1159.77 573.179 1159.77C600.694 1159.77 627.082 1148.84 646.538 1129.38C665.994 1109.92 676.924 1083.53 676.924 1056.02H676.924Z" fill="#F2F2F2"/>
<path d="M576.421 1288C575.561 1288 574.736 1287.66 574.128 1287.05C573.52 1286.44 573.179 1285.61 573.179 1284.75V995.741C573.179 994.881 573.52 994.057 574.128 993.449C574.736 992.841 575.561 992.499 576.421 992.499C577.28 992.499 578.105 992.841 578.713 993.449C579.321 994.057 579.663 994.881 579.663 995.741V1284.75C579.663 1285.61 579.321 1286.44 578.713 1287.05C578.105 1287.66 577.28 1288 576.421 1288Z" fill="#CCCCCC"/>
<path d="M576.42 1043.12C575.779 1043.12 575.152 1042.93 574.619 1042.57C574.086 1042.22 573.671 1041.71 573.426 1041.12C573.18 1040.53 573.116 1039.87 573.241 1039.25C573.366 1038.62 573.675 1038.04 574.128 1037.59L616.526 995.184C617.134 994.576 617.959 994.234 618.819 994.234C619.678 994.234 620.503 994.576 621.111 995.184C621.719 995.792 622.06 996.617 622.06 997.476C622.06 998.336 621.719 999.161 621.111 999.769L578.713 1042.17C578.412 1042.47 578.055 1042.71 577.661 1042.87C577.268 1043.04 576.846 1043.12 576.42 1043.12V1043.12Z" fill="#CCCCCC"/>
<path d="M1769.49 1288C1768.63 1288 1767.81 1287.66 1767.2 1287.05C1766.59 1286.44 1766.25 1285.61 1766.25 1284.75V995.741C1766.25 994.881 1766.59 994.057 1767.2 993.449C1767.81 992.841 1768.63 992.499 1769.49 992.499C1770.35 992.499 1771.18 992.841 1771.79 993.449C1772.39 994.057 1772.74 994.881 1772.74 995.741V1284.75C1772.74 1285.61 1772.39 1286.44 1771.79 1287.05C1771.18 1287.66 1770.35 1288 1769.49 1288Z" fill="#3F3D56"/>
<path d="M2116.39 1056.02C2116.39 998.754 2069.94 862.875 2012.65 862.875C1955.35 862.875 1908.9 998.754 1908.9 1056.02C1908.9 1083.53 1919.83 1109.92 1939.29 1129.38C1958.74 1148.84 1985.13 1159.77 2012.65 1159.77C2040.16 1159.77 2066.55 1148.84 2086.01 1129.38C2105.46 1109.92 2116.39 1083.53 2116.39 1056.02H2116.39Z" fill="#E6E6E6"/>
<path d="M2090.46 1056.02C2090.46 998.754 2044.01 862.875 1986.71 862.875C1929.41 862.875 1882.97 998.754 1882.97 1056.02C1882.97 1083.53 1893.9 1109.92 1913.35 1129.38C1932.81 1148.84 1959.2 1159.77 1986.71 1159.77C2014.23 1159.77 2040.61 1148.84 2060.07 1129.38C2079.53 1109.92 2090.46 1083.53 2090.46 1056.02H2090.46Z" fill="#F2F2F2"/>
<path d="M1989.95 1288C1989.09 1288 1988.27 1287.66 1987.66 1287.05C1987.05 1286.44 1986.71 1285.61 1986.71 1284.75V995.741C1986.71 994.881 1987.05 994.057 1987.66 993.449C1988.27 992.841 1989.09 992.499 1989.95 992.499C1990.81 992.499 1991.64 992.841 1992.24 993.449C1992.85 994.057 1993.19 994.881 1993.19 995.741V1284.75C1993.19 1285.61 1992.85 1286.44 1992.24 1287.05C1991.64 1287.66 1990.81 1288 1989.95 1288Z" fill="#CCCCCC"/>
<path d="M1989.95 1043.12C1989.31 1043.12 1988.68 1042.93 1988.15 1042.57C1987.62 1042.22 1987.2 1041.71 1986.96 1041.12C1986.71 1040.53 1986.65 1039.87 1986.77 1039.25C1986.9 1038.62 1987.21 1038.04 1987.66 1037.59L2030.06 995.184C2030.67 994.576 2031.49 994.234 2032.35 994.234C2033.21 994.234 2034.03 994.576 2034.64 995.184C2035.25 995.792 2035.59 996.617 2035.59 997.476C2035.59 998.336 2035.25 999.161 2034.64 999.769L1992.24 1042.17C1991.94 1042.47 1991.59 1042.71 1991.19 1042.87C1990.8 1043.04 1990.38 1043.12 1989.95 1043.12Z" fill="#CCCCCC"/>
<path d="M920.077 167.976H868.205C864.337 167.972 860.628 166.433 857.893 163.698C855.158 160.963 853.62 157.254 853.616 153.386V33.424C853.62 29.5558 855.158 25.8473 857.893 23.1121C860.628 20.3768 864.337 18.8383 868.205 18.834H920.077C923.945 18.8383 927.654 20.3768 930.389 23.1121C933.124 25.8473 934.662 29.5558 934.667 33.424V153.386C934.662 157.254 933.124 160.963 930.389 163.698C927.654 166.433 923.945 167.972 920.077 167.976V167.976Z" fill="#E6E6E6"/>
<path d="M1124.33 1286.54H858.479C851.172 1286.53 844.168 1283.63 839.002 1278.46C833.835 1273.29 830.929 1266.29 830.921 1258.98V185.809C830.929 178.502 833.835 171.497 839.002 166.331C844.168 161.164 851.172 158.258 858.479 158.25H1124.33C1131.63 158.258 1138.64 161.164 1143.8 166.331C1148.97 171.497 1151.88 178.502 1151.88 185.809V1258.98C1151.88 1266.29 1148.97 1273.29 1143.8 1278.46C1138.64 1283.63 1131.63 1286.53 1124.33 1286.54V1286.54Z" fill="#E6E6E6"/>
<path d="M965.466 1286.54H699.618C692.312 1286.53 685.308 1283.63 680.141 1278.46C674.975 1273.29 672.069 1266.29 672.061 1258.98V185.809C672.069 178.502 674.975 171.497 680.141 166.331C685.308 161.164 692.312 158.258 699.618 158.25H965.466C972.772 158.258 979.777 161.164 984.943 166.331C990.109 171.497 993.015 178.502 993.023 185.809V1258.98C993.015 1266.29 990.109 1273.29 984.943 1278.46C979.777 1283.63 972.772 1286.53 965.466 1286.54V1286.54Z" fill="#F2F2F2"/>
<path d="M871.447 167.976H819.574C815.706 167.972 811.998 166.433 809.263 163.698C806.528 160.963 804.989 157.254 804.985 153.386V33.424C804.989 29.5558 806.528 25.8473 809.263 23.1121C811.998 20.3768 815.706 18.8383 819.574 18.834H871.447C875.315 18.8383 879.023 20.3768 881.758 23.1121C884.493 25.8473 886.032 29.5558 886.036 33.424V153.386C886.032 157.254 884.493 160.963 881.758 163.698C879.023 166.433 875.315 167.972 871.447 167.976V167.976Z" fill="#F2F2F2"/>
<path d="M803.364 401.416H741.765C739.616 401.414 737.556 400.559 736.036 399.039C734.517 397.52 733.662 395.459 733.66 393.311V299.286C733.662 297.137 734.517 295.077 736.036 293.557C737.556 292.038 739.616 291.183 741.765 291.181H803.364C805.513 291.183 807.573 292.038 809.092 293.557C810.612 295.077 811.466 297.137 811.469 299.286V393.311C811.466 395.459 810.612 397.52 809.092 399.039C807.573 400.559 805.513 401.414 803.364 401.416V401.416Z" fill="white"/>
<path d="M923.32 401.416H861.721C859.572 401.414 857.512 400.559 855.992 399.039C854.473 397.52 853.618 395.459 853.616 393.311V299.286C853.618 297.137 854.473 295.077 855.992 293.557C857.512 292.038 859.572 291.183 861.721 291.181H923.32C925.468 291.183 927.529 292.038 929.048 293.557C930.567 295.077 931.422 297.137 931.425 299.286V393.311C931.422 395.459 930.567 397.52 929.048 399.039C927.529 400.559 925.468 401.414 923.32 401.416V401.416Z" fill="white"/>
<path d="M803.364 573.253H741.765C739.616 573.251 737.556 572.396 736.036 570.876C734.517 569.357 733.662 567.296 733.66 565.148V471.123C733.662 468.974 734.517 466.914 736.036 465.394C737.556 463.875 739.616 463.02 741.765 463.018H803.364C805.513 463.02 807.573 463.875 809.092 465.394C810.612 466.914 811.466 468.974 811.469 471.123V565.148C811.466 567.296 810.612 569.357 809.092 570.876C807.573 572.396 805.513 573.251 803.364 573.253V573.253Z" fill="white"/>
<path d="M923.32 573.253H861.721C859.572 573.251 857.512 572.396 855.992 570.876C854.473 569.357 853.618 567.296 853.616 565.148V471.123C853.618 468.974 854.473 466.914 855.992 465.394C857.512 463.875 859.572 463.02 861.721 463.018H923.32C925.468 463.02 927.529 463.875 929.048 465.394C930.567 466.914 931.422 468.974 931.425 471.123V565.148C931.422 567.296 930.567 569.357 929.048 570.876C927.529 572.396 925.468 573.251 923.32 573.253V573.253Z" fill="white"/>
<path d="M803.364 745.091H741.765C739.616 745.088 737.556 744.234 736.036 742.714C734.517 741.194 733.662 739.134 733.66 736.985V642.961C733.662 640.812 734.517 638.752 736.036 637.232C737.556 635.713 739.616 634.858 741.765 634.855H803.364C805.513 634.858 807.573 635.713 809.092 637.232C810.612 638.752 811.466 640.812 811.469 642.961V736.985C811.466 739.134 810.612 741.194 809.092 742.714C807.573 744.234 805.513 745.088 803.364 745.091V745.091Z" fill="white"/>
<path d="M923.32 745.091H861.721C859.572 745.088 857.512 744.234 855.992 742.714C854.473 741.194 853.618 739.134 853.616 736.985V642.961C853.618 640.812 854.473 638.752 855.992 637.232C857.512 635.713 859.572 634.858 861.721 634.855H923.32C925.468 634.858 927.529 635.713 929.048 637.232C930.567 638.752 931.422 640.812 931.425 642.961V736.985C931.422 739.134 930.567 741.194 929.048 742.714C927.529 744.234 925.468 745.088 923.32 745.091V745.091Z" fill="white"/>
<path d="M803.364 916.929H741.765C739.616 916.926 737.556 916.072 736.036 914.552C734.517 913.032 733.662 910.972 733.66 908.823V814.799C733.662 812.65 734.517 810.59 736.036 809.07C737.556 807.551 739.616 806.696 741.765 806.693H803.364C805.513 806.696 807.573 807.551 809.092 809.07C810.612 810.59 811.466 812.65 811.469 814.799V908.823C811.466 910.972 810.612 913.032 809.092 914.552C807.573 916.072 805.513 916.926 803.364 916.929V916.929Z" fill="white"/>
<path d="M923.32 916.929H861.721C859.572 916.926 857.512 916.072 855.992 914.552C854.473 913.032 853.618 910.972 853.616 908.823V814.799C853.618 812.65 854.473 810.59 855.992 809.07C857.512 807.551 859.572 806.696 861.721 806.693H923.32C925.468 806.696 927.529 807.551 929.048 809.07C930.567 810.59 931.422 812.65 931.425 814.799V908.823C931.422 910.972 930.567 913.032 929.048 914.552C927.529 916.072 925.468 916.926 923.32 916.929V916.929Z" fill="white"/>
<path d="M803.364 1088.77H741.765C739.616 1088.76 737.556 1087.91 736.036 1086.39C734.517 1084.87 733.662 1082.81 733.66 1080.66V986.636C733.662 984.487 734.517 982.427 736.036 980.908C737.556 979.388 739.616 978.533 741.765 978.531H803.364C805.513 978.533 807.573 979.388 809.092 980.908C810.612 982.427 811.466 984.487 811.469 986.636V1080.66C811.466 1082.81 810.612 1084.87 809.092 1086.39C807.573 1087.91 805.513 1088.76 803.364 1088.77V1088.77Z" fill="white"/>
<path d="M923.32 1088.77H861.721C859.572 1088.76 857.512 1087.91 855.992 1086.39C854.473 1084.87 853.618 1082.81 853.616 1080.66V986.636C853.618 984.487 854.473 982.427 855.992 980.908C857.512 979.388 859.572 978.533 861.721 978.531H923.32C925.468 978.533 927.529 979.388 929.048 980.908C930.567 982.427 931.422 984.487 931.425 986.636V1080.66C931.422 1082.81 930.567 1084.87 929.048 1086.39C927.529 1087.91 925.468 1088.76 923.32 1088.77V1088.77Z" fill="white"/>
<path d="M2259.04 735.364H2207.17C2203.3 735.36 2199.59 733.821 2196.86 731.086C2194.12 728.351 2192.58 724.642 2192.58 720.774V652.688C2192.58 648.819 2194.12 645.111 2196.86 642.376C2199.59 639.641 2203.3 638.102 2207.17 638.098H2259.04C2262.91 638.102 2266.62 639.641 2269.35 642.376C2272.09 645.111 2273.63 648.819 2273.63 652.688V720.774C2273.63 724.642 2272.09 728.351 2269.35 731.086C2266.62 733.821 2262.91 735.36 2259.04 735.364Z" fill="#E6E6E6"/>
<path d="M2696.72 1289.78H2430.87C2423.56 1289.78 2416.56 1286.87 2411.39 1281.7C2406.23 1276.54 2403.32 1269.53 2403.31 1262.23V746.712C2403.32 739.406 2406.23 732.401 2411.39 727.234C2416.56 722.068 2423.56 719.161 2430.87 719.153H2696.72C2704.02 719.161 2711.03 722.068 2716.2 727.234C2721.36 732.401 2724.27 739.406 2724.28 746.712V1262.23C2724.27 1269.53 2721.36 1276.54 2716.2 1281.7C2711.03 1286.87 2704.02 1289.78 2696.72 1289.78V1289.78Z" fill="#E6E6E6"/>
<path d="M2537.86 1289.78H2077.49C2070.18 1289.78 2063.18 1286.87 2058.01 1281.7C2052.84 1276.54 2049.94 1269.53 2049.93 1262.23V746.712C2049.94 739.406 2052.84 732.401 2058.01 727.234C2063.18 722.068 2070.18 719.161 2077.49 719.153H2537.86C2545.16 719.161 2552.17 722.068 2557.34 727.234C2562.5 732.401 2565.41 739.406 2565.42 746.712V1262.23C2565.41 1269.53 2562.5 1276.54 2557.34 1281.7C2552.17 1286.87 2545.16 1289.78 2537.86 1289.78V1289.78Z" fill="#F2F2F2"/>
<path d="M2210.41 735.364H2158.54C2154.67 735.36 2150.96 733.821 2148.23 731.086C2145.49 728.351 2143.95 724.642 2143.95 720.774V652.688C2143.95 648.819 2145.49 645.111 2148.23 642.376C2150.96 639.641 2154.67 638.102 2158.54 638.098H2210.41C2214.28 638.102 2217.99 639.641 2220.72 642.376C2223.46 645.111 2225 648.819 2225 652.688V720.774C2225 724.642 2223.46 728.351 2220.72 731.086C2217.99 733.821 2214.28 735.36 2210.41 735.364V735.364Z" fill="#F2F2F2"/>
<path d="M2278.49 973.668H2216.9C2214.75 973.665 2212.69 972.81 2211.17 971.291C2209.65 969.771 2208.79 967.711 2208.79 965.562V871.538C2208.79 869.389 2209.65 867.329 2211.17 865.809C2212.69 864.289 2214.75 863.435 2216.9 863.432H2278.49C2280.64 863.435 2282.7 864.289 2284.22 865.809C2285.74 867.329 2286.6 869.389 2286.6 871.538V965.562C2286.6 967.711 2285.74 969.771 2284.22 971.291C2282.7 972.81 2280.64 973.665 2278.49 973.668V973.668Z" fill="white"/>
<path d="M2398.45 973.668H2336.85C2334.7 973.665 2332.64 972.81 2331.12 971.291C2329.6 969.771 2328.75 967.711 2328.75 965.562V871.538C2328.75 869.389 2329.6 867.329 2331.12 865.809C2332.64 864.289 2334.7 863.435 2336.85 863.432H2398.45C2400.6 863.435 2402.66 864.289 2404.18 865.809C2405.7 867.329 2406.55 869.389 2406.56 871.538V965.562C2406.55 967.711 2405.7 969.771 2404.18 971.291C2402.66 972.81 2400.6 973.665 2398.45 973.668V973.668Z" fill="white"/>
<path d="M2278.49 1145.5H2216.9C2214.75 1145.5 2212.69 1144.65 2211.17 1143.13C2209.65 1141.61 2208.79 1139.55 2208.79 1137.4V1043.38C2208.79 1041.23 2209.65 1039.17 2211.17 1037.65C2212.69 1036.13 2214.75 1035.27 2216.9 1035.27H2278.49C2280.64 1035.27 2282.7 1036.13 2284.22 1037.65C2285.74 1039.17 2286.6 1041.23 2286.6 1043.38V1137.4C2286.6 1139.55 2285.74 1141.61 2284.22 1143.13C2282.7 1144.65 2280.64 1145.5 2278.49 1145.5V1145.5Z" fill="white"/>
<path d="M2398.45 1145.5H2336.85C2334.7 1145.5 2332.64 1144.65 2331.12 1143.13C2329.6 1141.61 2328.75 1139.55 2328.75 1137.4V1043.38C2328.75 1041.23 2329.6 1039.17 2331.12 1037.65C2332.64 1036.13 2334.7 1035.27 2336.85 1035.27H2398.45C2400.6 1035.27 2402.66 1036.13 2404.18 1037.65C2405.7 1039.17 2406.55 1041.23 2406.56 1043.38V1137.4C2406.55 1139.55 2405.7 1141.61 2404.18 1143.13C2402.66 1144.65 2400.6 1145.5 2398.45 1145.5Z" fill="white"/>
<path d="M3393.76 1291.41H3.24205C2.3822 1291.41 1.55757 1291.06 0.949571 1290.46C0.341569 1289.85 0 1289.02 0 1288.16C0 1287.3 0.341569 1286.48 0.949571 1285.87C1.55757 1285.26 2.3822 1284.92 3.24205 1284.92H3393.76C3394.62 1284.92 3395.44 1285.26 3396.05 1285.87C3396.66 1286.48 3397 1287.3 3397 1288.16C3397 1289.02 3396.66 1289.85 3396.05 1290.46C3395.44 1291.06 3394.62 1291.41 3393.76 1291.41Z" fill="#E6E6E6"/>
<path d="M1176.2 1404.88H874.689C873.829 1404.88 873.004 1404.54 872.396 1403.93C871.788 1403.33 871.447 1402.5 871.447 1401.64C871.447 1400.78 871.788 1399.96 872.396 1399.35C873.004 1398.74 873.829 1398.4 874.689 1398.4H1176.2C1177.06 1398.4 1177.88 1398.74 1178.49 1399.35C1179.1 1399.96 1179.44 1400.78 1179.44 1401.64C1179.44 1402.5 1179.1 1403.33 1178.49 1403.93C1177.88 1404.54 1177.06 1404.88 1176.2 1404.88Z" fill="#E6E6E6"/>
<path d="M1925.11 1404.88H1623.6C1622.74 1404.88 1621.92 1404.54 1621.31 1403.93C1620.7 1403.33 1620.36 1402.5 1620.36 1401.64C1620.36 1400.78 1620.7 1399.96 1621.31 1399.35C1621.92 1398.74 1622.74 1398.4 1623.6 1398.4H1925.11C1925.97 1398.4 1926.8 1398.74 1927.4 1399.35C1928.01 1399.96 1928.35 1400.78 1928.35 1401.64C1928.35 1402.5 1928.01 1403.33 1927.4 1403.93C1926.8 1404.54 1925.97 1404.88 1925.11 1404.88Z" fill="#E6E6E6"/>
<path d="M2674.02 1404.88H2372.51C2371.65 1404.88 2370.83 1404.54 2370.22 1403.93C2369.61 1403.33 2369.27 1402.5 2369.27 1401.64C2369.27 1400.78 2369.61 1399.96 2370.22 1399.35C2370.83 1398.74 2371.65 1398.4 2372.51 1398.4H2674.02C2674.88 1398.4 2675.71 1398.74 2676.32 1399.35C2676.92 1399.96 2677.27 1400.78 2677.27 1401.64C2677.27 1402.5 2676.92 1403.33 2676.32 1403.93C2675.71 1404.54 2674.88 1404.88 2674.02 1404.88Z" fill="#E6E6E6"/>
<path d="M1348.03 1056.02C1348.03 998.754 1301.58 862.875 1244.28 862.875C1186.98 862.875 1140.54 998.754 1140.54 1056.02C1140.54 1083.53 1151.47 1109.92 1170.92 1129.38C1190.38 1148.84 1216.77 1159.77 1244.28 1159.77C1271.8 1159.77 1298.19 1148.84 1317.64 1129.38C1337.1 1109.92 1348.03 1083.53 1348.03 1056.02H1348.03Z" fill="#E6E6E6"/>
<path d="M1322.09 1056.02C1322.09 998.754 1275.64 862.875 1218.35 862.875C1161.05 862.875 1114.6 998.754 1114.6 1056.02C1114.6 1083.53 1125.53 1109.92 1144.99 1129.38C1164.44 1148.84 1190.83 1159.77 1218.35 1159.77C1245.86 1159.77 1272.25 1148.84 1291.71 1129.38C1311.16 1109.92 1322.09 1083.53 1322.09 1056.02H1322.09Z" fill="#F2F2F2"/>
<path d="M1221.59 1288C1220.73 1288 1219.9 1287.66 1219.3 1287.05C1218.69 1286.44 1218.35 1285.61 1218.35 1284.75V995.741C1218.35 994.881 1218.69 994.057 1219.3 993.449C1219.9 992.841 1220.73 992.499 1221.59 992.499C1222.45 992.499 1223.27 992.841 1223.88 993.449C1224.49 994.057 1224.83 994.881 1224.83 995.741V1284.75C1224.83 1285.61 1224.49 1286.44 1223.88 1287.05C1223.27 1287.66 1222.45 1288 1221.59 1288Z" fill="#CCCCCC"/>
<path d="M1221.59 1043.12C1220.95 1043.12 1220.32 1042.93 1219.79 1042.57C1219.25 1042.22 1218.84 1041.71 1218.59 1041.12C1218.35 1040.53 1218.28 1039.87 1218.41 1039.25C1218.53 1038.62 1218.84 1038.04 1219.3 1037.59L1261.69 995.184C1262.3 994.576 1263.13 994.234 1263.99 994.234C1264.85 994.234 1265.67 994.576 1266.28 995.184C1266.89 995.792 1267.23 996.617 1267.23 997.476C1267.23 998.336 1266.89 999.161 1266.28 999.769L1223.88 1042.17C1223.58 1042.47 1223.22 1042.71 1222.83 1042.87C1222.43 1043.04 1222.01 1043.12 1221.59 1043.12Z" fill="#CCCCCC"/>
<path d="M3004.71 1056.02C3004.71 998.754 2958.26 862.875 2900.97 862.875C2843.67 862.875 2797.22 998.754 2797.22 1056.02C2797.22 1083.53 2808.15 1109.92 2827.61 1129.38C2847.06 1148.84 2873.45 1159.77 2900.97 1159.77C2928.48 1159.77 2954.87 1148.84 2974.33 1129.38C2993.78 1109.92 3004.71 1083.53 3004.71 1056.02H3004.71Z" fill="#E6E6E6"/>
<path d="M2978.78 1056.02C2978.78 998.754 2932.33 862.875 2875.03 862.875C2817.73 862.875 2771.29 998.754 2771.29 1056.02C2771.29 1083.53 2782.22 1109.92 2801.67 1129.38C2821.13 1148.84 2847.52 1159.77 2875.03 1159.77C2902.55 1159.77 2928.93 1148.84 2948.39 1129.38C2967.85 1109.92 2978.78 1083.53 2978.78 1056.02H2978.78Z" fill="#F2F2F2"/>
<path d="M2878.27 1288C2877.41 1288 2876.59 1287.66 2875.98 1287.05C2875.37 1286.44 2875.03 1285.61 2875.03 1284.75V995.741C2875.03 994.881 2875.37 994.057 2875.98 993.449C2876.59 992.841 2877.41 992.499 2878.27 992.499C2879.13 992.499 2879.96 992.841 2880.57 993.449C2881.17 994.057 2881.52 994.881 2881.52 995.741V1284.75C2881.52 1285.61 2881.17 1286.44 2880.57 1287.05C2879.96 1287.66 2879.13 1288 2878.27 1288Z" fill="#CCCCCC"/>
<path d="M2878.27 1043.12C2877.63 1043.12 2877 1042.93 2876.47 1042.57C2875.94 1042.22 2875.52 1041.71 2875.28 1041.12C2875.03 1040.53 2874.97 1039.87 2875.09 1039.25C2875.22 1038.62 2875.53 1038.04 2875.98 1037.59L2918.38 995.184C2918.99 994.576 2919.81 994.234 2920.67 994.234C2921.53 994.234 2922.36 994.576 2922.96 995.184C2923.57 995.792 2923.91 996.617 2923.91 997.476C2923.91 998.336 2923.57 999.161 2922.96 999.769L2880.57 1042.17C2880.26 1042.47 2879.91 1042.71 2879.51 1042.87C2879.12 1043.04 2878.7 1043.12 2878.27 1043.12V1043.12Z" fill="#CCCCCC"/>
<path d="M1805.16 1092.01H1733.83C1731.68 1092.01 1729.62 1091.15 1728.1 1089.63C1726.58 1088.11 1725.73 1086.05 1725.73 1083.9V1012.57C1725.73 1010.43 1726.58 1008.36 1728.1 1006.85C1729.62 1005.33 1731.68 1004.47 1733.83 1004.47H1805.16C1807.3 1004.47 1809.36 1005.33 1810.88 1006.85C1812.4 1008.36 1813.26 1010.43 1813.26 1012.57V1083.9C1813.26 1086.05 1812.4 1088.11 1810.88 1089.63C1809.36 1091.15 1807.3 1092.01 1805.16 1092.01Z" fill="#3F3D56"/>
<path d="M2497.55 1126.74C2498.32 1126.95 2499.05 1127.32 2499.67 1127.84C2500.29 1128.35 2500.79 1129 2501.13 1129.72C2501.47 1130.45 2501.65 1131.25 2501.66 1132.05C2501.66 1132.86 2501.49 1133.66 2501.15 1134.39L2515.24 1147.98L2505.31 1150.21L2493.45 1136.96C2492.26 1136.31 2491.35 1135.24 2490.89 1133.97C2490.43 1132.69 2490.46 1131.29 2490.96 1130.03C2491.47 1128.77 2492.41 1127.74 2493.63 1127.14C2494.84 1126.53 2496.24 1126.39 2497.55 1126.74H2497.55Z" fill="#FFB8B8"/>
<path d="M2517.37 1162.51L2499.98 1146.19C2499.74 1145.97 2499.55 1145.7 2499.41 1145.39C2499.28 1145.09 2499.21 1144.77 2499.2 1144.44C2499.19 1144.11 2499.25 1143.78 2499.38 1143.48C2499.5 1143.17 2499.68 1142.89 2499.91 1142.66L2503.46 1139.06C2503.88 1138.64 2504.45 1138.38 2505.05 1138.34C2505.64 1138.3 2506.24 1138.47 2506.71 1138.84L2521.29 1149.97L2530.38 1127.92C2530.74 1127.05 2531.27 1126.27 2531.95 1125.61C2532.62 1124.95 2533.42 1124.44 2534.3 1124.11C2535.18 1123.78 2536.12 1123.63 2537.06 1123.67C2538 1123.72 2538.92 1123.95 2539.77 1124.37V1124.37C2541.1 1125.01 2542.19 1126.07 2542.87 1127.39C2543.55 1128.7 2543.78 1130.2 2543.53 1131.66C2541.88 1141.69 2531.89 1154.95 2526.08 1161.96C2525.28 1162.92 2524.21 1163.6 2523.02 1163.93C2521.82 1164.25 2520.55 1164.19 2519.38 1163.76C2518.63 1163.48 2517.95 1163.05 2517.37 1162.51V1162.51Z" fill="#6C63FF"/>
<path d="M2507.61 1146.68L2494.81 1128.11C2494.64 1127.87 2494.58 1127.57 2494.63 1127.29C2494.68 1127 2494.85 1126.75 2495.09 1126.58L2495.6 1126.23C2495.72 1126.15 2495.85 1126.09 2495.99 1126.06C2496.14 1126.03 2496.28 1126.03 2496.42 1126.05C2496.56 1126.08 2496.7 1126.13 2496.82 1126.21C2496.94 1126.29 2497.04 1126.39 2497.13 1126.51L2509.93 1145.08C2510.01 1145.2 2510.07 1145.33 2510.1 1145.47C2510.13 1145.61 2510.13 1145.76 2510.1 1145.9C2510.08 1146.04 2510.03 1146.18 2509.95 1146.3C2509.87 1146.42 2509.77 1146.52 2509.65 1146.61L2509.13 1146.96C2508.9 1147.13 2508.6 1147.19 2508.31 1147.14C2508.03 1147.08 2507.78 1146.92 2507.61 1146.68V1146.68Z" fill="white"/>
<path d="M2504.03 1146.82L2493.41 1131.41C2492.95 1130.75 2492.78 1129.94 2492.92 1129.15C2493.07 1128.36 2493.52 1127.67 2494.18 1127.21L2495.26 1126.47L2509.31 1146.84L2508.22 1147.59C2507.57 1148.04 2506.75 1148.22 2505.97 1148.07C2505.18 1147.93 2504.49 1147.48 2504.03 1146.82V1146.82Z" fill="#3F3D56"/>
<path d="M2505.32 1279.85L2498.64 1279.08L2499.53 1253.09L2508.29 1254.1L2505.32 1279.85Z" fill="#FFB8B8"/>
<path d="M2506.27 1286.51L2484.75 1284.03L2484.78 1283.76C2484.91 1282.66 2485.25 1281.59 2485.79 1280.63C2486.33 1279.66 2487.05 1278.81 2487.92 1278.12C2488.79 1277.43 2489.78 1276.92 2490.85 1276.61C2491.91 1276.31 2493.03 1276.22 2494.13 1276.35H2494.13L2507.27 1277.86L2506.27 1286.51Z" fill="#2F2E41"/>
<path d="M2582.93 1274.91L2576.51 1276.9L2565.81 1253.08L2575.28 1250.15L2582.93 1274.91Z" fill="#FFB8B8"/>
<path d="M2586.49 1280.63L2565.79 1287.02L2565.71 1286.76C2565.38 1285.7 2565.27 1284.59 2565.37 1283.49C2565.47 1282.39 2565.79 1281.32 2566.31 1280.34C2566.83 1279.36 2567.53 1278.49 2568.38 1277.78C2569.24 1277.08 2570.22 1276.54 2571.28 1276.22H2571.28L2583.92 1272.31L2586.49 1280.63Z" fill="#2F2E41"/>
<path d="M2497.86 1273.86C2497.19 1273.65 2496.62 1273.18 2496.28 1272.56C2495.94 1271.94 2495.85 1271.21 2496.04 1270.52L2500.06 1224.21C2500.25 1222.09 2500.91 1220.05 2502 1218.23L2526.36 1177.82L2548.15 1181.73L2548.29 1181.79C2558.88 1188.28 2568.29 1219.73 2577.38 1250.15C2578.79 1254.89 2580.26 1259.78 2581.68 1264.45C2581.95 1265.12 2581.94 1265.86 2581.67 1266.53C2581.39 1267.19 2580.87 1267.72 2580.21 1268L2573.61 1270.78C2572.98 1271.04 2572.28 1271.07 2571.64 1270.84C2571 1270.62 2570.46 1270.16 2570.14 1269.57L2536.22 1207.46C2536.17 1207.38 2536.11 1207.31 2536.04 1207.26C2535.97 1207.22 2535.88 1207.18 2535.79 1207.18C2535.71 1207.16 2535.62 1207.18 2535.54 1207.21C2535.45 1207.24 2535.38 1207.29 2535.32 1207.36L2515.64 1229.64L2508.4 1272.09L2508.37 1272.19C2508.11 1272.79 2507.64 1273.29 2507.04 1273.57C2506.45 1273.86 2505.77 1273.92 2505.13 1273.75L2498.04 1273.88L2497.99 1273.88L2497.86 1273.86Z" fill="#2F2E41"/>
<path d="M2525.18 1182.24L2525.04 1182.2L2525 1182.06C2524.9 1181.72 2514.94 1148.01 2523.91 1126.52L2523.92 1126.5C2524.18 1125.99 2530.45 1113.96 2537.72 1112.76L2537.92 1112.73L2540.28 1117.15C2541.02 1117.89 2553.82 1131.18 2548.01 1154.03C2548.54 1155.9 2555.6 1181.62 2551.76 1185.47C2550.36 1186.43 2548.66 1186.86 2546.96 1186.67C2539.56 1186.04 2532.25 1184.55 2525.18 1182.24V1182.24Z" fill="#6C63FF"/>
<path d="M2536.22 1108.54C2545.6 1108.54 2553.21 1100.94 2553.21 1091.55C2553.21 1082.17 2545.6 1074.56 2536.22 1074.56C2526.84 1074.56 2519.23 1082.17 2519.23 1091.55C2519.23 1100.94 2526.84 1108.54 2536.22 1108.54Z" fill="#2F2E41"/>
<path d="M2529.47 1108.46C2536.91 1108.46 2542.93 1102.44 2542.93 1095C2542.93 1087.57 2536.91 1081.54 2529.47 1081.54C2522.04 1081.54 2516.01 1087.57 2516.01 1095C2516.01 1102.44 2522.04 1108.46 2529.47 1108.46Z" fill="#FFB8B8"/>
<path d="M2538.13 1108.08C2536.91 1108.51 2535.4 1108.9 2534.43 1107.99C2534.03 1107.47 2533.8 1106.84 2533.76 1106.19C2533.72 1105.53 2533.88 1104.88 2534.22 1104.31C2534.92 1103.2 2535.48 1102.01 2535.9 1100.77C2536.03 1099.84 2535.91 1098.89 2535.56 1098.02C2535.21 1097.14 2534.64 1096.37 2533.9 1095.79C2532.44 1094.67 2530.79 1093.84 2529.03 1093.33L2519.6 1089.98C2517.16 1089.41 2514.98 1088 2513.45 1086C2512.67 1084.33 2512.53 1082.43 2513.07 1080.67C2513.62 1078.91 2514.8 1077.42 2516.39 1076.49C2517.99 1075.68 2519.75 1075.24 2521.54 1075.21C2523.33 1075.17 2525.11 1075.54 2526.74 1076.28C2528.54 1077.12 2530.38 1077.86 2532.26 1078.49C2536.03 1079.49 2540.32 1078.59 2543.64 1080.72C2545.04 1081.78 2546.15 1083.18 2546.87 1084.78C2547.59 1086.38 2547.9 1088.14 2547.77 1089.89C2547.48 1093.41 2546.54 1096.85 2544.99 1100.02C2544.27 1101.98 2543.24 1103.8 2541.92 1105.42C2541.28 1106.21 2540.45 1106.83 2539.51 1107.24C2538.58 1107.64 2537.56 1107.81 2536.54 1107.74L2538.13 1108.08Z" fill="#2F2E41"/>
<path d="M2550.47 1094.29C2556.52 1094.29 2561.43 1089.39 2561.43 1083.33C2561.43 1077.28 2556.52 1072.37 2550.47 1072.37C2544.42 1072.37 2539.51 1077.28 2539.51 1083.33C2539.51 1089.39 2544.42 1094.29 2550.47 1094.29Z" fill="#2F2E41"/>
<path d="M2532.39 1099.23C2532.39 1099.03 2532.44 1098.83 2532.54 1098.66C2532.64 1098.49 2532.79 1098.35 2532.97 1098.26C2533.14 1098.16 2533.34 1098.12 2533.54 1098.13C2533.74 1098.14 2533.93 1098.21 2534.09 1098.32C2534.26 1098.43 2534.39 1098.58 2534.47 1098.76C2534.56 1098.94 2534.59 1099.14 2534.57 1099.34C2534.55 1099.54 2534.48 1099.73 2534.36 1099.88C2534.24 1100.04 2534.08 1100.17 2533.89 1100.24V1102.65C2533.89 1102.71 2533.88 1102.76 2533.86 1102.81C2533.84 1102.86 2533.81 1102.91 2533.77 1102.95C2533.74 1102.98 2533.69 1103.01 2533.64 1103.04C2533.59 1103.06 2533.54 1103.07 2533.48 1103.07C2533.43 1103.07 2533.37 1103.06 2533.32 1103.04C2533.27 1103.01 2533.23 1102.98 2533.19 1102.95C2533.15 1102.91 2533.12 1102.86 2533.1 1102.81C2533.08 1102.76 2533.07 1102.71 2533.07 1102.65V1100.24C2532.87 1100.16 2532.7 1100.02 2532.57 1099.84C2532.45 1099.66 2532.39 1099.45 2532.39 1099.23V1099.23Z" fill="white"/>
<path d="M2498.21 1138.25C2499.01 1138.17 2499.82 1138.27 2500.58 1138.53C2501.34 1138.8 2502.04 1139.23 2502.61 1139.79C2503.19 1140.36 2503.63 1141.04 2503.92 1141.79C2504.2 1142.55 2504.32 1143.35 2504.25 1144.16L2522.2 1151.99L2513.67 1157.54L2497.93 1149.25C2496.59 1149.06 2495.37 1148.38 2494.49 1147.34C2493.62 1146.3 2493.15 1144.98 2493.19 1143.63C2493.22 1142.27 2493.75 1140.97 2494.68 1139.98C2495.6 1138.99 2496.86 1138.37 2498.21 1138.25Z" fill="#FFB8B8"/>
<path d="M2529.26 1164.86L2507.27 1155.63C2506.97 1155.5 2506.69 1155.31 2506.46 1155.08C2506.23 1154.84 2506.05 1154.56 2505.93 1154.26C2505.81 1153.95 2505.75 1153.63 2505.76 1153.3C2505.77 1152.97 2505.84 1152.64 2505.98 1152.34L2508.05 1147.73C2508.3 1147.19 2508.74 1146.75 2509.28 1146.5C2509.83 1146.25 2510.45 1146.21 2511.02 1146.39L2528.56 1151.75L2529.4 1127.91C2529.43 1126.97 2529.66 1126.05 2530.06 1125.2C2530.47 1124.35 2531.04 1123.59 2531.75 1122.97C2532.46 1122.35 2533.29 1121.88 2534.18 1121.6C2535.08 1121.31 2536.02 1121.21 2536.96 1121.3V1121.3C2538.43 1121.44 2539.82 1122.06 2540.92 1123.05C2542.01 1124.05 2542.75 1125.37 2543.03 1126.83C2544.98 1136.8 2540.23 1152.72 2537.23 1161.31C2536.82 1162.49 2536.06 1163.5 2535.04 1164.22C2534.03 1164.94 2532.82 1165.33 2531.58 1165.33C2530.78 1165.33 2529.99 1165.17 2529.26 1164.86Z" fill="#6C63FF"/>
<path d="M274.902 1159.22H241.23V1149C251.87 1141.59 261.297 1142.24 273.699 1149.6L274.902 1159.22Z" fill="#6C63FF"/>
<path d="M233.434 1340.79H226.061L224.959 1312.36H233.434V1340.79Z" fill="#FFB8B8"/>
<path d="M235.313 1347.94L211.544 1347.94V1347.63C211.544 1346.42 211.783 1345.22 212.248 1344.09C212.713 1342.97 213.394 1341.95 214.253 1341.09C215.113 1340.23 216.132 1339.55 217.255 1339.09C218.377 1338.62 219.58 1338.38 220.795 1338.38H220.796L235.313 1338.38L235.313 1347.94Z" fill="#2F2E41"/>
<path d="M274.955 1340.79H282.324L283.426 1312.36H274.951L274.955 1340.79Z" fill="#FFB8B8"/>
<path d="M273.073 1338.38L287.591 1338.38H287.591C288.806 1338.38 290.009 1338.62 291.132 1339.09C292.254 1339.55 293.274 1340.23 294.133 1341.09C294.992 1341.95 295.674 1342.97 296.139 1344.09C296.604 1345.22 296.843 1346.42 296.843 1347.63V1347.94L273.074 1347.94L273.073 1338.38Z" fill="#2F2E41"/>
<path d="M275.147 1337.15C274.532 1337.14 273.936 1336.93 273.456 1336.55C272.976 1336.16 272.641 1335.63 272.505 1335.03L254.234 1255.33C254.194 1255.13 254.084 1254.95 253.923 1254.82C253.762 1254.69 253.56 1254.62 253.354 1254.62H253.35C253.142 1254.62 252.941 1254.69 252.78 1254.82C252.619 1254.95 252.51 1255.13 252.472 1255.34L235.693 1334.5C235.562 1335.1 235.228 1335.65 234.747 1336.04C234.266 1336.43 233.665 1336.64 233.046 1336.64H225.053C224.685 1336.64 224.32 1336.57 223.981 1336.42C223.643 1336.28 223.337 1336.06 223.084 1335.79C222.831 1335.53 222.636 1335.21 222.51 1334.86C222.384 1334.51 222.331 1334.15 222.352 1333.78L228.305 1233.45L230.701 1232.74L230.746 1232.74L277.801 1233.15L287.823 1333.37C287.858 1333.73 287.821 1334.09 287.715 1334.43C287.609 1334.78 287.436 1335.09 287.206 1335.37C286.975 1335.65 286.692 1335.87 286.373 1336.04C286.054 1336.2 285.706 1336.3 285.348 1336.33L275.364 1337.14C275.291 1337.14 275.219 1337.15 275.147 1337.15Z" fill="#2F2E41"/>
<path d="M255.715 1140.9C263.872 1140.9 270.484 1134.29 270.484 1126.13C270.484 1117.97 263.872 1111.36 255.715 1111.36C247.559 1111.36 240.947 1117.97 240.947 1126.13C240.947 1134.29 247.559 1140.9 255.715 1140.9Z" fill="#FFB8B8"/>
<path d="M246.668 1244.45C244.078 1244.48 241.497 1244.12 239.016 1243.37C236.809 1242.7 234.761 1241.59 232.999 1240.11C231.237 1238.62 229.798 1236.79 228.771 1234.73C228.445 1234.1 228.373 1233.38 228.569 1232.71C230.198 1227.15 238.069 1198.25 233.047 1175.28C232.338 1172.09 232.279 1168.79 232.874 1165.57C233.468 1162.36 234.704 1159.3 236.507 1156.57C238.269 1153.87 240.557 1151.54 243.235 1149.74C245.914 1147.94 248.927 1146.7 252.097 1146.09V1146.09C252.93 1145.92 253.767 1145.79 254.586 1145.69C258.089 1145.26 261.645 1145.61 264.998 1146.71C268.351 1147.81 271.419 1149.64 273.982 1152.07C276.621 1154.55 278.68 1157.57 280.012 1160.94C281.345 1164.3 281.917 1167.92 281.688 1171.53L277.828 1233.47C277.802 1233.93 277.655 1234.38 277.402 1234.77C277.149 1235.16 276.799 1235.48 276.386 1235.69C271.941 1238.02 258.589 1244.45 246.668 1244.45Z" fill="#3F3D56"/>
<path d="M272.399 1115.26C270.865 1111.4 268.055 1108.19 264.438 1106.16C260.821 1104.12 256.616 1103.39 252.525 1104.08L257.181 1107.85C251.396 1108.04 245.306 1107.63 241.175 1111.68C242.49 1111.65 244.214 1114.46 245.529 1114.42C244.298 1114.51 243.113 1114.92 242.098 1115.63C241.082 1116.33 240.273 1117.29 239.755 1118.41C238.749 1120.67 238.514 1123.21 239.085 1125.62C240.575 1129.17 242.308 1132.61 244.272 1135.93C244.1 1130.05 255.666 1116.04 261.313 1117.5C258.444 1118.57 255.954 1120.46 254.158 1122.93C258 1120.99 262.345 1120.28 266.605 1120.9C267.578 1121.12 268.581 1121.18 269.572 1121.06C270.18 1120.94 270.747 1120.67 271.218 1120.27C271.69 1119.87 272.051 1119.35 272.266 1118.77C272.481 1118.19 272.544 1117.56 272.449 1116.95C272.353 1116.34 272.102 1115.76 271.72 1115.27L272.399 1115.26Z" fill="#2F2E41"/>
<path d="M245.651 1240.73C245.278 1240.73 244.909 1240.65 244.568 1240.5L216.547 1228.27C215.952 1228.01 215.469 1227.55 215.187 1226.97C214.905 1226.38 214.843 1225.72 215.012 1225.09L233.562 1155.02C233.907 1153.71 234.508 1152.49 235.331 1151.42C236.154 1150.35 237.182 1149.46 238.354 1148.79C239.527 1148.13 240.82 1147.7 242.159 1147.54C243.499 1147.38 244.856 1147.49 246.153 1147.86L253.57 1149.98L248.349 1238.18C248.322 1238.61 248.191 1239.04 247.966 1239.41C247.741 1239.78 247.43 1240.1 247.058 1240.32C246.636 1240.59 246.148 1240.73 245.651 1240.73V1240.73Z" fill="#6C63FF"/>
<path d="M297.51 1225.09L296.277 1220.44L294.492 1213.69L293.632 1210.45L291.846 1203.7L278.961 1155.02C278.617 1153.71 278.016 1152.49 277.193 1151.42C276.371 1150.35 275.343 1149.46 274.17 1148.79C272.997 1148.12 271.703 1147.7 270.364 1147.54C269.024 1147.38 267.666 1147.49 266.37 1147.86L258.956 1149.98L262.63 1212.01L263.009 1218.49L263.249 1222.57V1222.58L263.634 1229.02L264.175 1238.18C264.219 1238.87 264.522 1239.51 265.023 1239.98C265.524 1240.46 266.186 1240.72 266.875 1240.73C267.247 1240.73 267.616 1240.65 267.957 1240.5L295.977 1228.27C296.572 1228.01 297.056 1227.55 297.338 1226.97C297.619 1226.38 297.681 1225.72 297.51 1225.09Z" fill="#6C63FF"/>
<path d="M293.632 1210.45L263.008 1218.49L262.628 1212.02L291.846 1203.7L293.632 1210.45Z" fill="#CCCCCC"/>
<path d="M296.278 1220.45L263.633 1229.02L263.248 1222.58V1222.57L294.491 1213.69L296.278 1220.45Z" fill="#CCCCCC"/>
<path d="M249.518 1213.41L249.138 1219.76L219.104 1210.82L220.864 1204.17L249.518 1213.41Z" fill="#CCCCCC"/>
<path d="M248.892 1223.95L218.245 1214.06L216.481 1220.73L248.519 1230.27L248.892 1223.95Z" fill="#CCCCCC"/>
<path d="M218.777 1230.6C219.691 1230.36 220.541 1229.92 221.268 1229.32C221.995 1228.72 222.581 1227.96 222.985 1227.11C223.389 1226.26 223.601 1225.32 223.605 1224.38C223.61 1223.43 223.408 1222.5 223.013 1221.64L237.42 1176.41L227.204 1174.27L213.994 1218.62C212.598 1219.38 211.528 1220.62 210.988 1222.12C210.448 1223.61 210.476 1225.26 211.065 1226.73C211.655 1228.21 212.766 1229.42 214.187 1230.13C215.608 1230.84 217.242 1231.01 218.777 1230.6V1230.6Z" fill="#FFB8B8"/>
<path d="M237.82 1154.17C240.754 1154.47 242.404 1157.77 241.675 1161.88L238.175 1181.59C237.912 1183.06 236.696 1184.23 235.686 1183.98L223.846 1181.02C222.935 1180.79 222.6 1179.5 223.116 1178.2L230.223 1160.37C230.704 1158.69 231.69 1157.19 233.049 1156.08C234.407 1154.97 236.072 1154.31 237.82 1154.17Z" fill="#3F3D56"/>
<path d="M255.661 1098.49C260.659 1098.49 265.461 1100.43 269.049 1103.91C272.638 1107.39 274.732 1112.13 274.887 1117.13H278.51C278.829 1117.13 279.135 1117.25 279.36 1117.48C279.586 1117.71 279.712 1118.01 279.712 1118.33V1123.14C279.712 1123.46 279.586 1123.77 279.36 1123.99C279.135 1124.22 278.829 1124.34 278.51 1124.34H237.623C237.304 1124.34 236.998 1124.22 236.772 1123.99C236.547 1123.77 236.42 1123.46 236.42 1123.14V1117.73C236.42 1115.2 236.918 1112.7 237.885 1110.37C238.852 1108.03 240.269 1105.91 242.056 1104.12C243.842 1102.34 245.963 1100.92 248.298 1099.95C250.632 1098.98 253.134 1098.49 255.661 1098.49V1098.49Z" fill="#6C63FF"/>
<path d="M257.96 1217.43H249.46C249.188 1217.43 248.925 1217.33 248.723 1217.15C248.521 1216.96 248.394 1216.71 248.369 1216.44L246.667 1199H260.753L259.052 1216.44C259.026 1216.71 258.9 1216.96 258.698 1217.15C258.496 1217.33 258.233 1217.43 257.96 1217.43Z" fill="#E6E6E6"/>
<path d="M260.731 1201.19H246.69C246.399 1201.19 246.12 1201.08 245.915 1200.87C245.709 1200.67 245.593 1200.39 245.593 1200.1V1197.46C245.593 1197.17 245.709 1196.89 245.915 1196.69C246.12 1196.48 246.399 1196.37 246.69 1196.37H260.731C261.021 1196.37 261.3 1196.48 261.506 1196.69C261.711 1196.89 261.827 1197.17 261.827 1197.46V1200.1C261.827 1200.39 261.711 1200.67 261.506 1200.87C261.3 1201.08 261.021 1201.19 260.731 1201.19V1201.19Z" fill="#CCCCCC"/>
<path d="M253.893 1208.08C254.223 1208.11 254.55 1208.18 254.871 1208.27L277.507 1188.86L276.183 1181.73L286.671 1178.33L290.239 1190.71C290.527 1191.71 290.483 1192.78 290.114 1193.75C289.744 1194.73 289.069 1195.55 288.189 1196.11L259.522 1214.25C259.542 1215.53 259.172 1216.79 258.46 1217.86C257.748 1218.92 256.729 1219.75 255.537 1220.22C254.346 1220.69 253.039 1220.79 251.79 1220.5C250.541 1220.21 249.41 1219.55 248.546 1218.6C247.683 1217.66 247.128 1216.47 246.956 1215.2C246.784 1213.93 247.003 1212.64 247.583 1211.49C248.164 1210.35 249.078 1209.41 250.205 1208.8C251.332 1208.19 252.619 1207.94 253.893 1208.08H253.893Z" fill="#FFB8B8"/>
<path d="M277.565 1155.8C280.699 1154.92 283.83 1157.31 284.879 1161.37L289.914 1180.87C290.292 1182.33 289.559 1183.89 288.414 1184.05L275.001 1185.98C273.969 1186.13 273.06 1185.07 273.022 1183.68L272.501 1164.49C272.302 1162.69 272.686 1160.87 273.598 1159.31C274.51 1157.74 275.901 1156.51 277.565 1155.8Z" fill="#3F3D56"/>
<path d="M430.024 1208.56H419.812C419.484 1208.56 419.168 1208.44 418.925 1208.22C418.683 1208 418.531 1207.69 418.5 1207.37L416.456 1186.42H433.38L431.336 1207.37C431.305 1207.69 431.153 1208 430.911 1208.22C430.668 1208.44 430.352 1208.56 430.024 1208.56V1208.56Z" fill="#E6E6E6"/>
<path d="M433.353 1189.05H416.483C416.134 1189.05 415.799 1188.91 415.552 1188.66C415.305 1188.42 415.166 1188.08 415.165 1187.73V1184.57C415.166 1184.22 415.305 1183.89 415.552 1183.64C415.799 1183.39 416.134 1183.25 416.483 1183.25H433.353C433.702 1183.25 434.037 1183.39 434.284 1183.64C434.531 1183.89 434.67 1184.22 434.67 1184.57V1187.73C434.67 1188.08 434.531 1188.42 434.284 1188.66C434.037 1188.91 433.702 1189.05 433.353 1189.05V1189.05Z" fill="#CCCCCC"/>
<path d="M530.349 1331.6C522.93 1321.73 517.064 1310.78 512.957 1299.14C512.719 1298.44 512.736 1297.68 513.005 1297C513.273 1296.31 513.777 1295.75 514.425 1295.4L539.814 1281.79C540.224 1281.57 540.68 1281.45 541.147 1281.43C541.613 1281.41 542.078 1281.5 542.505 1281.68C542.94 1281.87 543.327 1282.16 543.635 1282.52C543.943 1282.88 544.165 1283.31 544.283 1283.77C547.238 1294.99 552.793 1305.35 560.498 1314.03C560.815 1314.38 561.048 1314.8 561.178 1315.26C561.307 1315.72 561.332 1316.2 561.248 1316.66C561.168 1317.12 560.983 1317.56 560.709 1317.94C560.435 1318.32 560.078 1318.63 559.666 1318.84L534.277 1332.45C533.628 1332.8 532.877 1332.9 532.157 1332.74C531.438 1332.59 530.797 1332.18 530.349 1331.6Z" fill="#CCCCCC"/>
<path d="M532.082 1330.3C532.218 1330.47 532.41 1330.58 532.624 1330.63C532.838 1330.67 533.061 1330.64 533.254 1330.54L558.643 1316.93C558.766 1316.87 558.873 1316.78 558.954 1316.67C559.036 1316.55 559.091 1316.42 559.114 1316.29C559.141 1316.14 559.133 1315.99 559.092 1315.85C559.052 1315.71 558.979 1315.58 558.879 1315.47C550.947 1306.54 545.229 1295.87 542.187 1284.32C542.152 1284.17 542.084 1284.04 541.989 1283.93C541.894 1283.82 541.774 1283.73 541.639 1283.67C541.512 1283.61 541.373 1283.59 541.234 1283.59C541.095 1283.6 540.959 1283.64 540.837 1283.7L515.448 1297.31C515.256 1297.41 515.106 1297.58 515.024 1297.78C514.943 1297.98 514.934 1298.21 515.001 1298.42C519.035 1309.85 524.795 1320.6 532.082 1330.3V1330.3Z" fill="white"/>
<path d="M541.48 1301.21L527.652 1307.31C527.127 1307.54 526.53 1307.56 525.995 1307.35C525.459 1307.14 525.027 1306.73 524.795 1306.2L524.453 1305.43C524.221 1304.9 524.208 1304.31 524.415 1303.77C524.623 1303.24 525.035 1302.8 525.56 1302.57L539.388 1296.47C539.914 1296.24 540.51 1296.22 541.046 1296.43C541.582 1296.64 542.013 1297.05 542.246 1297.57L542.588 1298.35C542.819 1298.88 542.833 1299.47 542.625 1300.01C542.417 1300.54 542.006 1300.97 541.48 1301.21V1301.21Z" fill="#CCCCCC"/>
<path d="M546.537 1310.6L532.709 1316.7C532.183 1316.94 531.587 1316.95 531.051 1316.74C530.516 1316.53 530.084 1316.12 529.851 1315.6L529.51 1314.82C529.278 1314.3 529.265 1313.7 529.472 1313.16C529.68 1312.63 530.092 1312.2 530.617 1311.96L544.445 1305.86C544.971 1305.63 545.567 1305.61 546.103 1305.82C546.639 1306.03 547.07 1306.44 547.303 1306.97L547.645 1307.74C547.876 1308.27 547.89 1308.86 547.682 1309.4C547.474 1309.94 547.063 1310.37 546.537 1310.6V1310.6Z" fill="#CCCCCC"/>
<path d="M514.106 1302.77C513.152 1302.16 512.344 1301.34 511.739 1300.38C511.134 1299.42 510.747 1298.34 510.605 1297.22C510.463 1296.09 510.57 1294.95 510.917 1293.87C511.265 1292.79 511.845 1291.8 512.616 1290.97L506.785 1208.21L523.583 1209.83L524.044 1290.88C525.355 1292.27 526.111 1294.09 526.169 1296C526.226 1297.91 525.582 1299.78 524.357 1301.24C523.132 1302.71 521.411 1303.67 519.522 1303.96C517.633 1304.24 515.706 1303.82 514.106 1302.77V1302.77Z" fill="#A0616A"/>
<path d="M510.588 1236.01C510.194 1235.73 509.869 1235.36 509.637 1234.94C509.405 1234.51 509.271 1234.04 509.245 1233.56L508.014 1211.25C507.892 1209.04 508.593 1206.86 509.981 1205.14C511.369 1203.42 513.346 1202.27 515.531 1201.92C517.716 1201.56 519.954 1202.03 521.814 1203.23C523.673 1204.43 525.023 1206.28 525.602 1208.41L531.009 1228.36C531.233 1229.19 531.119 1230.08 530.69 1230.82C530.261 1231.57 529.554 1232.12 528.722 1232.35L513.342 1236.52C512.874 1236.64 512.384 1236.66 511.908 1236.58C511.431 1236.49 510.98 1236.3 510.588 1236.01Z" fill="#3F3D56"/>
<path d="M481.956 1404.52L473.102 1404.52L468.887 1370.36H481.959L481.956 1404.52Z" fill="#A0616A"/>
<path d="M464.797 1401.99H483.855V1412.75H456.02V1410.77C456.02 1409.61 456.247 1408.47 456.688 1407.41C457.129 1406.34 457.776 1405.38 458.591 1404.56C459.406 1403.75 460.373 1403.1 461.438 1402.66C462.503 1402.22 463.644 1401.99 464.797 1401.99V1401.99Z" fill="#2F2E41"/>
<path d="M515.187 1404.52L506.333 1404.52L502.118 1370.36H515.19L515.187 1404.52Z" fill="#A0616A"/>
<path d="M498.028 1401.99H517.086V1412.75H489.251V1410.77C489.251 1409.61 489.478 1408.47 489.919 1407.41C490.36 1406.34 491.007 1405.38 491.822 1404.56C492.637 1403.75 493.604 1403.1 494.669 1402.66C495.734 1402.22 496.875 1401.99 498.028 1401.99V1401.99Z" fill="#2F2E41"/>
<path d="M481.539 1387.31L471.79 1386.85C470.959 1386.81 470.175 1386.45 469.599 1385.85C469.023 1385.25 468.699 1384.45 468.693 1383.62C466.123 1343.95 462.563 1301.4 468.013 1284.97C468.01 1284.5 468.108 1284.04 468.3 1283.61C468.493 1283.18 468.775 1282.8 469.128 1282.49C469.481 1282.19 469.896 1281.96 470.346 1281.83C470.795 1281.69 471.267 1281.66 471.731 1281.73L510.736 1287.39C511.507 1287.5 512.212 1287.88 512.724 1288.47C513.235 1289.05 513.518 1289.8 513.52 1290.58C518.499 1310.04 518.725 1345.33 518.536 1382C518.539 1382.43 518.458 1382.85 518.296 1383.25C518.134 1383.64 517.895 1384.01 517.593 1384.31C517.291 1384.62 516.931 1384.86 516.535 1385.02C516.139 1385.19 515.714 1385.27 515.285 1385.27H504.774C503.999 1385.27 503.248 1385 502.659 1384.5C502.069 1383.99 501.681 1383.29 501.563 1382.53L495.078 1341.3C494.983 1340.69 494.673 1340.15 494.206 1339.75C493.738 1339.36 493.144 1339.15 492.534 1339.16C491.923 1339.17 491.337 1339.41 490.885 1339.81C490.432 1340.22 490.142 1340.78 490.07 1341.39L484.922 1384.45C484.825 1385.24 484.443 1385.97 483.849 1386.49C483.255 1387.02 482.488 1387.31 481.694 1387.31C481.643 1387.31 481.591 1387.31 481.539 1387.31Z" fill="#2F2E41"/>
<path d="M488.403 1290.59C482.71 1287.24 476.4 1285.08 469.851 1284.23C469.421 1284.19 469.004 1284.06 468.625 1283.85C468.245 1283.65 467.912 1283.36 467.646 1283.02C467.373 1282.68 467.173 1282.29 467.057 1281.86C466.942 1281.44 466.913 1281 466.973 1280.57L476.319 1211.18C476.857 1207.12 478.425 1203.26 480.873 1199.98C483.322 1196.7 486.57 1194.1 490.307 1192.42C493.925 1190.76 497.909 1190.05 501.879 1190.36C505.849 1190.67 509.673 1191.99 512.988 1194.2C513.308 1194.41 513.622 1194.63 513.93 1194.85C517.748 1197.65 520.652 1201.52 522.276 1205.96C523.901 1210.41 524.173 1215.23 523.059 1219.83C517.328 1243.28 515.359 1281.72 515.023 1289.18C514.996 1289.82 514.782 1290.44 514.407 1290.95C514.032 1291.47 513.512 1291.86 512.915 1292.08C509.388 1293.36 505.667 1294.02 501.916 1294.04C497.19 1294.06 492.537 1292.88 488.403 1290.59V1290.59Z" fill="#3F3D56"/>
<path d="M496.22 1183C506.019 1183 513.963 1175.06 513.963 1165.26C513.963 1155.46 506.019 1147.51 496.22 1147.51C486.421 1147.51 478.477 1155.46 478.477 1165.26C478.477 1175.06 486.421 1183 496.22 1183Z" fill="#A0616A"/>
<path d="M508.776 1179.29C508.034 1180.09 507.079 1180.67 506.024 1180.94C504.968 1181.22 503.856 1181.19 502.817 1180.85C501.779 1180.52 500.858 1179.89 500.161 1179.05C499.465 1178.21 499.023 1177.19 498.887 1176.11C498.854 1175.74 498.856 1175.36 498.895 1174.99C499.541 1172.94 499.931 1170.81 500.055 1168.66C499.988 1168.1 499.779 1167.57 499.448 1167.11C496.81 1163.58 490.619 1168.69 488.129 1165.49C486.603 1163.53 488.397 1160.45 487.226 1158.25C485.68 1155.36 481.101 1156.79 478.229 1155.2C475.034 1153.44 475.225 1148.54 477.328 1145.56C478.697 1143.8 480.438 1142.36 482.426 1141.34C484.414 1140.33 486.601 1139.77 488.831 1139.7C493.296 1139.6 497.731 1140.46 501.829 1142.24C506.669 1143.81 510.939 1146.77 514.11 1150.75C515.751 1153.36 516.791 1156.31 517.154 1159.37C517.518 1162.43 517.196 1165.53 516.212 1168.45C514.477 1172.53 511.949 1176.21 508.776 1179.29Z" fill="#2F2E41"/>
<path d="M522.827 1196.55C522.517 1195.09 519.851 1193.09 516.037 1191.47C509.906 1188.98 503.275 1187.98 496.684 1188.55C490.094 1189.11 483.73 1191.23 478.111 1194.72C477.719 1194.74 477.345 1194.89 477.046 1195.14C476.747 1195.4 476.54 1195.74 476.456 1196.13L463.626 1252.87L461.958 1260.27L460.853 1265.16L459.184 1272.53L458.295 1276.46C458.238 1276.71 458.236 1276.98 458.288 1277.23C458.34 1277.48 458.446 1277.72 458.598 1277.93C458.75 1278.14 458.944 1278.31 459.169 1278.44C459.393 1278.57 459.642 1278.64 459.899 1278.67L515.3 1283.45C515.35 1283.45 515.408 1283.46 515.459 1283.46C515.916 1283.45 516.355 1283.28 516.688 1282.96C517.02 1282.65 517.221 1282.22 517.25 1281.77L517.778 1273.74L518.341 1265.16L518.587 1261.44L519.143 1252.87L522.835 1196.64V1196.59L522.827 1196.55Z" fill="#6C63FF"/>
<path d="M431.924 1200.12C432.012 1200.51 432.07 1200.9 432.097 1201.3L463.129 1219.21L470.672 1214.86L478.713 1225.39L462.577 1236.89L427.173 1208.96C425.729 1209.5 424.157 1209.58 422.665 1209.2C421.174 1208.82 419.833 1207.99 418.822 1206.83C417.812 1205.67 417.179 1204.23 417.007 1202.7C416.836 1201.16 417.134 1199.62 417.863 1198.26C418.591 1196.91 419.715 1195.8 421.086 1195.1C422.456 1194.4 424.008 1194.13 425.534 1194.33C427.061 1194.53 428.489 1195.2 429.631 1196.23C430.772 1197.26 431.572 1198.62 431.924 1200.12V1200.12Z" fill="#A0616A"/>
<path d="M464.237 1217.68C464.186 1217.2 464.243 1216.72 464.405 1216.26C464.566 1215.8 464.828 1215.39 465.172 1215.05L480.966 1199.25C482.531 1197.68 484.62 1196.75 486.83 1196.63C489.04 1196.52 491.215 1197.23 492.935 1198.62C494.655 1200.01 495.799 1201.99 496.146 1204.18C496.493 1206.36 496.018 1208.6 494.813 1210.46L483.565 1227.79C483.095 1228.51 482.358 1229.02 481.515 1229.2C480.672 1229.38 479.792 1229.21 479.069 1228.75L465.701 1220.07C465.294 1219.81 464.951 1219.46 464.698 1219.04C464.445 1218.63 464.287 1218.17 464.237 1217.68Z" fill="#3F3D56"/>
<path d="M519.142 1252.87L518.588 1261.44L461.956 1260.27L463.626 1252.87H519.142Z" fill="#CCCCCC"/>
<path d="M518.342 1265.16L517.777 1273.74L459.184 1272.53L460.854 1265.16H518.342Z" fill="#CCCCCC"/>
<path d="M496.568 1130.78C490.563 1130.78 484.794 1133.12 480.482 1137.3C476.171 1141.48 473.656 1147.18 473.469 1153.18H469.116C468.733 1153.18 468.366 1153.33 468.095 1153.6C467.824 1153.87 467.671 1154.24 467.671 1154.62V1160.4C467.671 1160.79 467.824 1161.15 468.095 1161.42C468.366 1161.69 468.733 1161.85 469.116 1161.85H518.24C518.623 1161.85 518.99 1161.69 519.261 1161.42C519.532 1161.15 519.684 1160.79 519.684 1160.4V1153.9C519.684 1150.86 519.087 1147.86 517.925 1145.05C516.763 1142.25 515.06 1139.7 512.914 1137.55C510.767 1135.41 508.219 1133.7 505.414 1132.54C502.609 1131.38 499.603 1130.78 496.568 1130.78Z" fill="#6C63FF"/>
<path d="M626.672 1365.98H621.717C621.686 1365.38 615.034 1349.76 615.034 1349.76L611.013 1340.04L608.355 1333.55L604.334 1323.83L599.731 1312.64C599.613 1312.14 599.328 1311.69 598.922 1311.36C598.516 1311.04 598.012 1310.87 597.494 1310.87C596.975 1310.87 596.472 1311.04 596.066 1311.36C595.66 1311.69 595.375 1312.14 595.257 1312.64L590.654 1323.83L586.633 1333.55L583.975 1340.04L579.954 1349.76C579.954 1349.76 573.302 1365.38 573.27 1365.98H568.315C567.026 1365.98 565.789 1366.49 564.877 1367.4C563.965 1368.31 563.452 1369.55 563.452 1370.84C563.452 1372.13 563.965 1373.37 564.877 1374.28C565.789 1375.19 567.026 1375.7 568.315 1375.7H626.672C627.962 1375.7 629.199 1375.19 630.111 1374.28C631.023 1373.37 631.535 1372.13 631.535 1370.84C631.535 1369.55 631.023 1368.31 630.111 1367.4C629.199 1366.49 627.962 1365.98 626.672 1365.98Z" fill="#FF6584"/>
<path d="M623.43 1450.27H621.51C621.686 1449.86 613.153 1428.03 613.153 1428.03L608.031 1415.55L604.594 1407.18L599.471 1394.7L593.896 1381.18C593.739 1380.54 593.372 1379.98 592.855 1379.57C592.338 1379.17 591.7 1378.94 591.042 1378.94C590.385 1378.94 589.747 1379.17 589.229 1379.57C588.712 1379.98 588.346 1380.54 588.189 1381.18L582.613 1394.7L577.491 1407.18L574.021 1415.55L568.9 1428.03C568.9 1428.03 560.399 1449.86 560.575 1450.27H558.589C557.3 1450.27 556.063 1450.79 555.151 1451.7C554.239 1452.61 553.726 1453.85 553.726 1455.14C553.726 1456.43 554.239 1457.66 555.151 1458.58C556.063 1459.49 557.3 1460 558.589 1460H623.43C624.72 1460 625.957 1459.49 626.869 1458.58C627.781 1457.66 628.293 1456.43 628.293 1455.14C628.293 1453.85 627.781 1452.61 626.869 1451.7C625.957 1450.79 624.72 1450.27 623.43 1450.27Z" fill="#FF6584"/>
<path d="M608.354 1333.55H586.632L590.652 1323.83H604.334L608.354 1333.55Z" fill="#F2F2F2"/>
<path d="M615.032 1349.76H579.953L583.974 1340.04H611.012L615.032 1349.76Z" fill="#F2F2F2"/>
<path d="M604.593 1407.18H577.489L582.612 1394.7H599.47L604.593 1407.18Z" fill="#F2F2F2"/>
<path d="M613.152 1428.03H568.898L574.021 1415.55H608.03L613.152 1428.03Z" fill="#F2F2F2"/>
<path d="M1338.9 1180.35C1339.4 1179.85 1339.79 1179.25 1340.03 1178.59C1340.28 1177.93 1340.37 1177.23 1340.31 1176.52C1340.26 1175.82 1340.04 1175.14 1339.69 1174.53C1339.34 1173.92 1338.87 1173.39 1338.29 1172.99L1335.86 1156.95L1325.87 1160.09L1331.34 1174.4C1330.72 1175.41 1330.5 1176.62 1330.71 1177.78C1330.92 1178.95 1331.55 1180 1332.48 1180.73C1333.41 1181.46 1334.58 1181.83 1335.76 1181.76C1336.95 1181.69 1338.06 1181.19 1338.9 1180.35V1180.35Z" fill="#FFB8B8"/>
<path d="M1328.61 1172.8L1322.44 1144.02C1321.84 1141.26 1321.96 1138.39 1322.79 1135.7C1323.61 1133 1325.11 1130.55 1327.15 1128.6C1335.04 1121 1345.18 1111.42 1348.68 1108.94C1351.97 1106.6 1355.95 1105.42 1359.98 1105.6L1360.06 1105.61L1365.36 1110.62L1353.82 1129.64L1336.28 1140.62L1338.23 1168.84L1328.61 1172.8Z" fill="#6C63FF"/>
<path d="M1350.19 1133.69H1324.33C1323.21 1133.69 1322.3 1134.59 1322.3 1135.71C1322.3 1136.83 1323.21 1137.74 1324.33 1137.74H1350.19C1351.31 1137.74 1352.22 1136.83 1352.22 1135.71C1352.22 1134.59 1351.31 1133.69 1350.19 1133.69Z" fill="#CCCCCC"/>
<path d="M1350.19 1177.81H1324.33C1323.21 1177.81 1322.3 1178.72 1322.3 1179.84C1322.3 1180.96 1323.21 1181.87 1324.33 1181.87H1350.19C1351.31 1181.87 1352.22 1180.96 1352.22 1179.84C1352.22 1178.72 1351.31 1177.81 1350.19 1177.81Z" fill="#CCCCCC"/>
<path d="M1337.51 1288.37C1337.26 1288.37 1337.02 1288.27 1336.83 1288.1C1336.64 1287.93 1336.53 1287.7 1336.5 1287.44L1323.57 1135.8C1323.56 1135.67 1323.58 1135.54 1323.61 1135.41C1323.65 1135.28 1323.72 1135.16 1323.8 1135.06C1323.89 1134.96 1323.99 1134.87 1324.11 1134.81C1324.23 1134.75 1324.36 1134.71 1324.49 1134.7C1324.63 1134.69 1324.76 1134.7 1324.89 1134.74C1325.01 1134.78 1325.13 1134.85 1325.24 1134.93C1325.34 1135.02 1325.42 1135.13 1325.48 1135.24C1325.54 1135.36 1325.58 1135.49 1325.59 1135.62L1337.5 1275.73L1349.07 1135.63C1349.08 1135.49 1349.11 1135.36 1349.17 1135.25C1349.24 1135.13 1349.32 1135.02 1349.42 1134.93C1349.52 1134.85 1349.64 1134.78 1349.77 1134.74C1349.9 1134.7 1350.03 1134.69 1350.16 1134.7C1350.3 1134.71 1350.43 1134.75 1350.54 1134.81C1350.66 1134.87 1350.77 1134.96 1350.85 1135.06C1350.94 1135.16 1351 1135.28 1351.04 1135.41C1351.08 1135.53 1351.1 1135.67 1351.09 1135.8L1338.52 1287.44C1338.5 1287.69 1338.39 1287.93 1338.2 1288.1C1338.01 1288.27 1337.77 1288.37 1337.51 1288.37L1337.51 1288.37Z" fill="#CCCCCC"/>
<path d="M1366.54 1099.53C1373.89 1099.53 1379.85 1093.58 1379.85 1086.23C1379.85 1078.88 1373.89 1072.92 1366.54 1072.92C1359.19 1072.92 1353.23 1078.88 1353.23 1086.23C1353.23 1093.58 1359.19 1099.53 1366.54 1099.53Z" fill="#FFB8B8"/>
<path d="M1326.88 1282.29L1320.55 1280.27L1325.32 1254.9L1334.66 1257.88L1326.88 1282.29Z" fill="#FFB8B8"/>
<path d="M1326.53 1287.9L1306.16 1281.41L1306.33 1280.88C1306.97 1278.85 1308.4 1277.17 1310.29 1276.19C1312.18 1275.22 1314.37 1275.03 1316.4 1275.67L1329.13 1279.73L1326.53 1287.9Z" fill="#2F2E41"/>
<path d="M1372.93 1282.16H1366.28L1363.12 1256.54H1372.93V1282.16Z" fill="#FFB8B8"/>
<path d="M1353.73 1288.07H1374.09V1280.51H1361.24C1359.25 1280.51 1357.34 1281.31 1355.93 1282.71C1354.52 1284.12 1353.73 1286.03 1353.73 1288.02V1288.07Z" fill="#2F2E41"/>
<path d="M1372.73 1273.84L1370.49 1273.51C1367.67 1273.34 1364.89 1272.82 1362.2 1271.96C1361.65 1271.72 1361.61 1268.06 1361.94 1247.49C1362.19 1232.39 1362.49 1213.59 1361.9 1203.5C1361.88 1203.11 1361.72 1202.73 1361.45 1202.43C1361.19 1202.13 1360.83 1201.93 1360.44 1201.86C1360.05 1201.79 1359.64 1201.86 1359.29 1202.05C1358.94 1202.24 1358.66 1202.54 1358.5 1202.9C1353.44 1214.59 1344.96 1240.73 1339.34 1258.04C1337.39 1264.05 1335.84 1268.81 1334.87 1271.66C1334.68 1272.2 1334.29 1272.64 1333.79 1272.92C1333.29 1273.19 1332.71 1273.26 1332.15 1273.13C1327.53 1271.97 1327.84 1271.48 1321.26 1269.78C1320.69 1269.63 1320.19 1269.27 1319.88 1268.77C1319.57 1268.27 1319.47 1267.67 1319.59 1267.1C1320.78 1261.48 1342.57 1170.43 1344.24 1161.78C1344.3 1161.48 1344.41 1161.2 1344.58 1160.95C1344.74 1160.7 1344.96 1160.48 1345.21 1160.31C1345.46 1160.14 1345.74 1160.03 1346.03 1159.97C1346.33 1159.91 1346.63 1159.91 1346.93 1159.97C1351.84 1160.96 1354.82 1162 1359.67 1163.02C1364.9 1164.11 1370.31 1165.24 1375.59 1166.3C1376.11 1166.41 1376.58 1166.69 1376.91 1167.11C1378.38 1168.69 1380.19 1169.9 1382.2 1170.67C1383.59 1171.33 1380.46 1171.27 1381.66 1172.22C1386.53 1176.08 1379.52 1254.43 1375.29 1272.12C1375.15 1272.68 1374.82 1273.16 1374.34 1273.48C1373.87 1273.8 1373.29 1273.93 1372.73 1273.84V1273.84Z" fill="#2F2E41"/>
<path d="M1372.21 1097.87C1371.43 1094.57 1375.36 1087.48 1374.58 1084.18C1374.06 1081.95 1368.81 1083.47 1367.58 1081.53C1367.01 1080.53 1366.21 1079.69 1365.24 1079.07C1364.27 1078.45 1363.16 1078.08 1362.01 1077.99C1359.38 1077.97 1356.78 1079.92 1354.29 1079.08C1353.7 1078.78 1353.17 1078.37 1352.74 1077.88C1352.3 1077.38 1351.98 1076.8 1351.77 1076.17C1351.56 1075.55 1351.48 1074.88 1351.54 1074.23C1351.59 1073.57 1351.77 1072.93 1352.07 1072.34C1353.41 1070.01 1355.48 1068.19 1357.97 1067.17C1361.88 1064.78 1366.57 1063.99 1371.05 1064.97C1373.62 1065.97 1375.97 1067.44 1377.98 1069.32C1379.99 1070.81 1381.76 1072.61 1383.22 1074.65C1384.46 1076.77 1385.13 1079.17 1385.17 1081.63C1385.21 1084.09 1384.62 1086.52 1383.45 1088.68C1381.02 1092.99 1377.16 1096.32 1372.53 1098.07" fill="#2F2E41"/>
<path d="M1339.54 1174.59C1340.97 1172.19 1343.15 1160.95 1345.84 1142.08C1347.67 1129.2 1349.27 1116.11 1350.06 1109.42C1350.12 1108.88 1350.32 1108.36 1350.63 1107.92C1350.95 1107.48 1351.37 1107.12 1351.87 1106.89C1352.38 1106.64 1352.89 1106.4 1353.4 1106.18C1359.49 1103.39 1366.25 1102.41 1372.89 1103.34C1379.53 1104.27 1385.76 1107.08 1390.84 1111.44L1390.9 1111.5L1390.92 1111.58C1390.95 1111.73 1393.7 1126.54 1388.07 1136.55C1382.51 1146.42 1382.45 1172.57 1382.45 1172.83V1173.17L1382.13 1173.08C1373.49 1170.61 1340.12 1174.93 1339.79 1174.97L1339.27 1175.04L1339.54 1174.59Z" fill="#6C63FF"/>
<path d="M1389.75 1140.28H1363.88C1362.76 1140.28 1361.86 1141.19 1361.86 1142.31C1361.86 1143.43 1362.76 1144.34 1363.88 1144.34H1389.75C1390.87 1144.34 1391.78 1143.43 1391.78 1142.31C1391.78 1141.19 1390.87 1140.28 1389.75 1140.28Z" fill="#CCCCCC"/>
<path d="M1389.75 1184.4H1363.88C1362.76 1184.4 1361.86 1185.31 1361.86 1186.43C1361.86 1187.55 1362.76 1188.46 1363.88 1188.46H1389.75C1390.87 1188.46 1391.78 1187.55 1391.78 1186.43C1391.78 1185.31 1390.87 1184.4 1389.75 1184.4Z" fill="#CCCCCC"/>
<path d="M1377.07 1288.88C1376.82 1288.88 1376.57 1288.78 1376.38 1288.61C1376.2 1288.44 1376.08 1288.2 1376.06 1287.95L1363.13 1142.4C1363.11 1142.13 1363.19 1141.86 1363.36 1141.66C1363.53 1141.45 1363.78 1141.32 1364.05 1141.3C1364.32 1141.27 1364.58 1141.36 1364.79 1141.53C1365 1141.7 1365.13 1141.95 1365.15 1142.22L1377.06 1276.23L1388.62 1142.22C1388.63 1142.09 1388.67 1141.96 1388.73 1141.84C1388.79 1141.72 1388.88 1141.61 1388.98 1141.53C1389.08 1141.44 1389.2 1141.38 1389.33 1141.34C1389.45 1141.3 1389.59 1141.28 1389.72 1141.29C1389.85 1141.3 1389.98 1141.34 1390.1 1141.4C1390.22 1141.46 1390.32 1141.55 1390.41 1141.65C1390.5 1141.75 1390.56 1141.87 1390.6 1142C1390.64 1142.13 1390.65 1142.26 1390.64 1142.39L1378.08 1287.95C1378.06 1288.2 1377.94 1288.44 1377.76 1288.61C1377.57 1288.78 1377.32 1288.88 1377.07 1288.88L1377.07 1288.88Z" fill="#CCCCCC"/>
<path d="M1368.72 1185.04C1368.57 1184.36 1368.57 1183.64 1368.72 1182.96C1368.88 1182.27 1369.18 1181.62 1369.61 1181.07C1370.04 1180.51 1370.59 1180.05 1371.21 1179.73C1371.84 1179.41 1372.53 1179.22 1373.23 1179.2L1383.99 1167.06L1390.66 1175.13L1378.3 1184.16C1378.26 1185.35 1377.8 1186.48 1376.99 1187.34C1376.18 1188.21 1375.08 1188.75 1373.9 1188.86C1372.72 1188.97 1371.54 1188.64 1370.58 1187.93C1369.63 1187.23 1368.97 1186.2 1368.72 1185.04H1368.72Z" fill="#FFB8B8"/>
<path d="M1374.98 1176.59L1391.95 1153.97L1383.2 1135.22L1383.83 1112.98L1391.01 1111.66L1391.08 1111.7C1394.57 1113.73 1397.27 1116.88 1398.75 1120.63C1400.35 1124.62 1403.65 1138.17 1406.14 1148.84C1406.8 1151.59 1406.73 1154.46 1405.96 1157.17C1405.18 1159.88 1403.72 1162.35 1401.72 1164.34L1380.91 1185.16L1374.98 1176.59Z" fill="#6C63FF"/>
<path d="M1303.86 1282.59L1327.07 1288.17C1327.52 1288.29 1328 1288.25 1328.42 1288.05C1328.84 1287.86 1329.18 1287.52 1329.38 1287.1L1349.32 1234.08C1349.41 1233.87 1349.45 1233.65 1349.45 1233.43C1349.45 1233.21 1349.41 1232.99 1349.32 1232.79C1349.22 1232.56 1349.07 1232.35 1348.89 1232.18C1348.71 1232.01 1348.49 1231.88 1348.26 1231.79L1330.81 1225.13C1330.53 1225.02 1330.23 1224.97 1329.94 1224.99C1329.64 1225.01 1329.36 1225.08 1329.09 1225.22C1328.87 1225.33 1328.66 1225.49 1328.5 1225.69C1328.34 1225.89 1328.23 1226.12 1328.16 1226.36L1328.16 1226.36L1315.84 1273.09L1315.66 1273.11C1311.84 1273.33 1308.2 1274.84 1305.35 1277.4C1304.76 1278.12 1304.32 1278.95 1304.06 1279.84C1303.8 1280.73 1303.73 1281.66 1303.86 1282.59Z" fill="#CCCCCC"/>
<path d="M1320.67 1252.86L1320.56 1253.87L1341.72 1256.11L1341.83 1255.11L1320.67 1252.86Z" fill="#B3B3B3"/>
<path d="M1318.82 1261.22L1318.41 1262.14L1335.44 1269.81L1335.85 1268.88L1318.82 1261.22Z" fill="#B3B3B3"/>
<path d="M1344.06 1248L1323.98 1241.35L1324.4 1240.43L1344.47 1247.07L1344.06 1248Z" fill="#B3B3B3"/>
<path d="M1346.09 1243.44L1326.01 1233.75L1326.43 1232.82L1346.5 1242.51L1346.09 1243.44Z" fill="#B3B3B3"/>
<path d="M1317.05 1269.16L1316.39 1269.93L1330.87 1282.3L1331.52 1281.53L1317.05 1269.16Z" fill="#B3B3B3"/>
<path d="M1312.94 1273.26L1312.02 1273.68L1317.83 1286.5L1318.75 1286.08L1312.94 1273.26Z" fill="#B3B3B3"/>
<path d="M1878.67 1184.59C1877.81 1184.39 1877.01 1184.01 1876.31 1183.46C1875.62 1182.92 1875.05 1182.23 1874.65 1181.44C1874.25 1180.65 1874.03 1179.78 1874 1178.9C1873.97 1178.02 1874.14 1177.14 1874.49 1176.33L1852.22 1126.02L1864.96 1122.81L1882.84 1173.27C1884.17 1173.95 1885.2 1175.08 1885.74 1176.47C1886.28 1177.85 1886.3 1179.39 1885.78 1180.78C1885.27 1182.18 1884.26 1183.34 1882.95 1184.04C1881.64 1184.74 1880.12 1184.94 1878.67 1184.59V1184.59Z" fill="#A0616A"/>
<path d="M1856.35 1141.78C1856 1141.62 1855.68 1141.39 1855.42 1141.1C1855.17 1140.81 1854.98 1140.46 1854.87 1140.09L1850.97 1127.06C1850.12 1125.26 1850.02 1123.19 1850.7 1121.31C1851.37 1119.44 1852.76 1117.9 1854.57 1117.05C1856.37 1116.2 1858.44 1116.1 1860.32 1116.78C1862.19 1117.45 1863.73 1118.84 1864.58 1120.65L1872.11 1132.02C1872.32 1132.34 1872.46 1132.71 1872.52 1133.09C1872.58 1133.48 1872.56 1133.87 1872.46 1134.25C1872.35 1134.62 1872.17 1134.97 1871.91 1135.27C1871.66 1135.56 1871.35 1135.8 1871 1135.97L1858.61 1141.77C1858.26 1141.93 1857.87 1142.02 1857.48 1142.02C1857.09 1142.02 1856.71 1141.94 1856.35 1141.78V1141.78Z" fill="#6C63FF"/>
<path d="M1901.68 1135.29L1888.02 1144.97C1887.85 1145.09 1887.64 1145.16 1887.42 1145.16C1887.2 1145.16 1886.99 1145.09 1886.82 1144.97L1883.13 1142.19C1883.01 1142.1 1882.9 1141.99 1882.83 1141.85C1882.76 1141.72 1882.72 1141.57 1882.71 1141.42C1882.71 1141.27 1882.74 1141.12 1882.8 1140.98C1882.86 1140.84 1882.95 1140.71 1883.06 1140.61L1893.57 1131.24C1893.71 1131.12 1893.88 1131.04 1894.06 1131C1894.24 1130.97 1894.42 1130.98 1894.6 1131.04L1901.44 1133.49C1901.61 1133.55 1901.77 1133.67 1901.88 1133.81C1902 1133.96 1902.08 1134.13 1902.1 1134.32C1902.13 1134.5 1902.1 1134.69 1902.03 1134.87C1901.95 1135.04 1901.83 1135.19 1901.68 1135.29V1135.29Z" fill="#3F3D56"/>
<path d="M1900.57 1134.38C1900.6 1134.29 1900.6 1134.19 1900.56 1134.1C1900.52 1134.01 1900.45 1133.94 1900.36 1133.91L1894.2 1131.7C1894.14 1131.68 1894.07 1131.68 1894 1131.69C1893.94 1131.7 1893.88 1131.73 1893.83 1131.77L1884.35 1140.23L1884.3 1140.28C1884.27 1140.32 1884.25 1140.36 1884.24 1140.41C1884.23 1140.45 1884.23 1140.5 1884.24 1140.55C1884.25 1140.59 1884.26 1140.64 1884.29 1140.68C1884.31 1140.72 1884.34 1140.75 1884.38 1140.78L1887.7 1143.27C1887.76 1143.31 1887.84 1143.34 1887.92 1143.34C1887.99 1143.34 1888.07 1143.31 1888.13 1143.26L1900.44 1134.55C1900.5 1134.51 1900.54 1134.45 1900.57 1134.38Z" fill="white"/>
<path d="M1851.9 1279.47H1858.79L1862.07 1252.88H1851.9V1279.47Z" fill="#A0616A"/>
<path d="M1850.14 1277.22L1863.72 1277.22H1863.72C1864.86 1277.22 1865.98 1277.44 1867.03 1277.88C1868.08 1278.31 1869.03 1278.95 1869.84 1279.75C1870.64 1280.56 1871.28 1281.51 1871.71 1282.56C1872.15 1283.61 1872.37 1284.73 1872.37 1285.87V1286.15L1850.14 1286.15L1850.14 1277.22Z" fill="#2F2E41"/>
<path d="M1828.85 1279.47H1835.74L1839.02 1252.88H1828.85V1279.47Z" fill="#A0616A"/>
<path d="M1827.09 1277.22L1840.67 1277.22H1840.67C1841.8 1277.22 1842.93 1277.44 1843.98 1277.88C1845.03 1278.31 1845.98 1278.95 1846.78 1279.75C1847.59 1280.56 1848.22 1281.51 1848.66 1282.56C1849.09 1283.61 1849.32 1284.73 1849.32 1285.87V1286.15L1827.09 1286.15L1827.09 1277.22Z" fill="#2F2E41"/>
<path d="M1827.39 1271.34C1826.91 1270.8 1826.65 1270.11 1826.64 1269.39C1825 1252.49 1829.47 1163.62 1839.8 1156.03L1839.86 1155.96L1870.1 1150.74L1870.66 1151.31C1870.71 1152.09 1876.2 1229.99 1861.02 1269.75C1860.84 1270.22 1860.51 1270.63 1860.09 1270.92C1859.67 1271.2 1859.17 1271.36 1858.66 1271.36H1852.63C1852.28 1271.36 1851.93 1271.28 1851.61 1271.14C1851.29 1271 1851.01 1270.8 1850.77 1270.54C1850.53 1270.29 1850.35 1269.98 1850.24 1269.66C1850.12 1269.33 1850.08 1268.98 1850.11 1268.63L1854.99 1194.18C1855.01 1193.97 1854.95 1193.76 1854.81 1193.59C1854.68 1193.42 1854.49 1193.31 1854.28 1193.28C1854.06 1193.25 1853.85 1193.3 1853.67 1193.42C1853.5 1193.55 1853.37 1193.73 1853.33 1193.94L1839.56 1269.49C1839.45 1270.03 1839.16 1270.51 1838.75 1270.86C1838.34 1271.22 1837.82 1271.44 1837.28 1271.48L1829.35 1272.07C1829.29 1272.07 1829.23 1272.07 1829.16 1272.07C1828.5 1272.07 1827.86 1271.81 1827.39 1271.34V1271.34Z" fill="#2F2E41"/>
<path d="M1867.17 1105.17C1874.8 1105.17 1880.98 1098.99 1880.98 1091.36C1880.98 1083.74 1874.8 1077.55 1867.17 1077.55C1859.55 1077.55 1853.36 1083.74 1853.36 1091.36C1853.36 1098.99 1859.55 1105.17 1867.17 1105.17Z" fill="#A0616A"/>
<path d="M1833.91 1168.12C1833.33 1167.53 1832.99 1166.73 1832.97 1165.9L1838.61 1139.5C1834.12 1120.38 1840.1 1116.8 1846.86 1113.17L1846.82 1113.15L1849.64 1105.51C1849.73 1105.17 1849.89 1104.86 1850.12 1104.59C1850.35 1104.32 1850.63 1104.1 1850.95 1103.95C1851.27 1103.81 1851.61 1103.73 1851.97 1103.73C1852.32 1103.73 1852.66 1103.81 1852.98 1103.97L1867.37 1111.61C1868.02 1111.98 1868.5 1112.58 1868.71 1113.29C1868.95 1114.05 1868.94 1114.87 1868.66 1115.62L1867.6 1118.49C1870.35 1122.16 1874.6 1136.69 1870.1 1142.31L1873.49 1161.05C1873.57 1161.74 1873.4 1162.43 1873.01 1163.01C1872.63 1163.58 1872.05 1164.01 1871.39 1164.2L1835.92 1168.75C1835.78 1168.78 1835.64 1168.79 1835.5 1168.79C1834.9 1168.79 1834.33 1168.54 1833.91 1168.12V1168.12Z" fill="#6C63FF"/>
<path d="M1885.54 1137.84C1885.32 1138.05 1885.11 1138.28 1884.92 1138.53L1857.1 1136.61L1854.11 1130.53L1844.35 1133.83L1848.58 1145.11C1848.93 1146.02 1849.56 1146.8 1850.38 1147.32C1851.2 1147.84 1852.17 1148.09 1853.14 1148.01L1884.77 1145.62C1885.47 1146.59 1886.45 1147.32 1887.58 1147.73C1888.71 1148.13 1889.93 1148.18 1891.09 1147.87C1892.25 1147.56 1893.28 1146.9 1894.06 1145.99C1894.83 1145.07 1895.31 1143.94 1895.43 1142.75C1895.55 1141.56 1895.3 1140.36 1894.72 1139.31C1894.14 1138.26 1893.26 1137.41 1892.18 1136.88C1891.11 1136.35 1889.9 1136.15 1888.71 1136.32C1887.53 1136.5 1886.42 1137.03 1885.54 1137.84V1137.84Z" fill="#A0616A"/>
<path d="M1856.06 1136.7L1843.94 1140.74C1843.59 1140.86 1843.23 1140.9 1842.86 1140.86C1842.5 1140.82 1842.15 1140.7 1841.84 1140.51C1841.53 1140.33 1841.26 1140.08 1841.05 1139.78C1840.85 1139.48 1840.71 1139.14 1840.65 1138.78L1838.44 1126.23C1837.86 1124.46 1838 1122.54 1838.84 1120.88C1839.68 1119.22 1841.15 1117.96 1842.91 1117.37C1844.68 1116.79 1846.61 1116.93 1848.27 1117.77C1849.93 1118.6 1851.2 1120.07 1851.78 1121.83L1857.52 1133.16C1857.68 1133.49 1857.78 1133.84 1857.79 1134.21C1857.8 1134.57 1857.74 1134.93 1857.6 1135.27C1857.46 1135.6 1857.25 1135.91 1856.99 1136.15C1856.72 1136.4 1856.41 1136.59 1856.06 1136.7V1136.7Z" fill="#6C63FF"/>
<path d="M1859.42 1080.46C1865.63 1080.46 1870.66 1075.42 1870.66 1069.21C1870.66 1063 1865.63 1057.97 1859.42 1057.97C1853.21 1057.97 1848.17 1063 1848.17 1069.21C1848.17 1075.42 1853.21 1080.46 1859.42 1080.46Z" fill="#2F2E41"/>
<path d="M1880.25 1093.07C1881.34 1093.29 1882.46 1093.19 1883.5 1092.8C1884.03 1092.5 1884.48 1092.08 1884.82 1091.57C1885.15 1091.06 1885.36 1090.48 1885.44 1089.88C1887.53 1075.96 1875.69 1077.1 1874.29 1076.5C1873.41 1075.98 1872.58 1075.38 1871.82 1074.69C1869.85 1073.6 1867.6 1073.11 1865.35 1073.27C1862.69 1073.03 1860.01 1073.35 1857.49 1074.23C1855.29 1075.26 1853.47 1076.94 1852.27 1079.05C1851.08 1081.14 1850.2 1083.4 1849.68 1085.76C1848.85 1088.42 1848.7 1091.25 1849.24 1093.98C1849.81 1096.02 1851.01 1097.84 1852.67 1099.16C1854.32 1100.49 1856.35 1101.27 1858.47 1101.38C1858.13 1099.74 1858.34 1098.04 1859.06 1096.53C1859.79 1095.03 1860.99 1093.8 1862.48 1093.05C1864.86 1091.88 1867.56 1091.56 1870.14 1092.13C1871.81 1092.47 1873.51 1092.68 1875.22 1092.77C1876.89 1092.83 1878.9 1092.93 1880.25 1093.07Z" fill="#2F2E41"/>
<path d="M2961.02 1282.21C2961.04 1267.46 2966.9 1253.32 2977.34 1242.89C2987.77 1232.46 3001.92 1226.6 3016.68 1226.6C3031.43 1226.6 3045.58 1232.46 3056.01 1242.89C3066.45 1253.32 3072.31 1267.46 3072.33 1282.21" fill="#F2F2F2"/>
<path d="M3016.68 1282.21C3016.28 1282.21 3015.89 1282.06 3015.61 1281.77C3015.33 1281.49 3015.17 1281.11 3015.17 1280.71V1251.38C3015.17 1250.98 3015.33 1250.6 3015.61 1250.32C3015.89 1250.03 3016.28 1249.88 3016.68 1249.88C3017.07 1249.88 3017.46 1250.03 3017.74 1250.32C3018.02 1250.6 3018.18 1250.98 3018.18 1251.38V1280.71C3018.18 1281.11 3018.02 1281.49 3017.74 1281.77C3017.46 1282.06 3017.07 1282.21 3016.68 1282.21V1282.21Z" fill="#CCCCCC"/>
<path d="M3016.67 1272.13C3016.32 1272.14 3015.97 1272.01 3015.7 1271.77L2997.65 1256.28C2997.49 1256.15 2997.37 1256 2997.28 1255.82C2997.19 1255.64 2997.13 1255.45 2997.12 1255.25C2997.1 1255.05 2997.12 1254.85 2997.19 1254.66C2997.25 1254.48 2997.35 1254.3 2997.47 1254.15C2997.6 1254 2997.76 1253.88 2997.94 1253.79C2998.12 1253.7 2998.31 1253.64 2998.51 1253.63C2998.71 1253.62 2998.91 1253.64 2999.09 1253.7C2999.28 1253.77 2999.46 1253.87 2999.61 1254L3017.65 1269.49C3017.89 1269.69 3018.05 1269.96 3018.13 1270.25C3018.21 1270.55 3018.19 1270.87 3018.09 1271.15C3017.98 1271.44 3017.79 1271.69 3017.53 1271.87C3017.28 1272.04 3016.98 1272.14 3016.67 1272.14L3016.67 1272.13Z" fill="#CCCCCC"/>
<path d="M3132.49 1282.21C3132.5 1267.46 3138.37 1253.32 3148.8 1242.89C3159.24 1232.46 3173.39 1226.6 3188.14 1226.6C3202.89 1226.6 3217.04 1232.46 3227.48 1242.89C3237.91 1253.32 3243.78 1267.46 3243.79 1282.21" fill="#F2F2F2"/>
<path d="M3188.14 1282.21C3187.74 1282.21 3187.36 1282.06 3187.08 1281.77C3186.79 1281.49 3186.64 1281.11 3186.64 1280.71V1251.38C3186.64 1250.98 3186.79 1250.6 3187.08 1250.32C3187.36 1250.03 3187.74 1249.88 3188.14 1249.88C3188.54 1249.88 3188.92 1250.03 3189.2 1250.32C3189.49 1250.6 3189.64 1250.98 3189.64 1251.38V1280.71C3189.64 1281.11 3189.49 1281.49 3189.2 1281.77C3188.92 1282.06 3188.54 1282.21 3188.14 1282.21V1282.21Z" fill="#CCCCCC"/>
<path d="M3188.14 1272.14C3187.78 1272.14 3187.43 1272.01 3187.16 1271.77L3169.11 1256.28C3168.96 1256.15 3168.83 1256 3168.74 1255.82C3168.65 1255.64 3168.6 1255.45 3168.58 1255.25C3168.56 1255.05 3168.59 1254.85 3168.65 1254.67C3168.71 1254.48 3168.81 1254.3 3168.94 1254.15C3169.07 1254 3169.23 1253.88 3169.4 1253.79C3169.58 1253.7 3169.77 1253.64 3169.97 1253.63C3170.17 1253.62 3170.37 1253.64 3170.56 1253.7C3170.75 1253.77 3170.92 1253.87 3171.07 1254L3189.12 1269.49C3189.35 1269.69 3189.52 1269.96 3189.6 1270.25C3189.67 1270.55 3189.66 1270.87 3189.55 1271.15C3189.44 1271.44 3189.25 1271.69 3189 1271.87C3188.75 1272.04 3188.45 1272.14 3188.14 1272.14V1272.14Z" fill="#CCCCCC"/>
<g clip-path="url(#clip1)">
<path d="M2067.95 1416.63L2121.84 1331.22L2067.93 1425.94L2067.9 1435.67C2064.06 1435.63 2060.25 1435.48 2056.49 1435.23L2060.88 1310.2L2060.82 1309.24L2060.92 1309.05L2061.34 1297.24L2005 1203.62L2061.4 1288.39L2061.57 1290.89L2064.89 1196.43L2016.45 1099.58L2065.27 1179.83L2067.54 984.042L2067.55 983.391L2067.55 984.032L2068.66 1138.4L2114.94 1076.64L2068.62 1151.7L2068.4 1236.25L2111.35 1154.59L2068.38 1248.68L2068.26 1295.69L2130.64 1181.99L2068.21 1312.09L2067.95 1416.63Z" fill="#D0CDE1"/>
<path d="M2824.27 1056.11H2809.12V1163.54H2824.27V1056.11Z" fill="#3F3D56"/>
<path d="M2263.73 827.469L2258.03 841.49L2818.61 1068.76L2824.3 1054.74L2263.73 827.469Z" fill="#3F3D56"/>
<path d="M3259 1430.85C3235.53 1470.01 2003.76 1466.72 2005.63 1430.85C2029.09 1391.7 3260.86 1394.99 3259 1430.85Z" fill="#D0CDE1"/>
<path d="M3104.52 1272.49H2972.73V1323.94H3104.52V1272.49Z" fill="#3F3D56"/>
<path d="M3092.4 1317.88H2442.53V1375.38H3092.4V1317.88Z" fill="#3F3D56"/>
<path d="M2985.61 1346.63H2829.57V1150.68H2946.22L2985.61 1249.51V1346.63Z" fill="#D0CDE1"/>
<path d="M2920.47 1162.78H2853.81V1229.36H2920.47V1162.78Z" fill="white"/>
<path d="M2970.46 1230.12H2928.04V1163.54H2946.22L2970.46 1230.12Z" fill="white"/>
<path d="M2871.99 1267.19H2856.84V1295.94H2871.99V1267.19Z" fill="#3F3D56"/>
<path d="M2940.92 1205.91H2941.67C2945.49 1205.91 2949.15 1207.42 2951.85 1210.12C2954.55 1212.82 2956.07 1216.47 2956.07 1220.28V1220.28C2956.07 1224.1 2954.55 1227.75 2951.85 1230.45C2949.15 1233.14 2945.49 1234.66 2941.67 1234.66H2940.92V1205.91Z" fill="#3F3D56"/>
<path d="M2377.39 1317.88H2378.15C2381.96 1317.88 2385.62 1319.4 2388.32 1322.09C2391.02 1324.79 2392.54 1328.45 2392.54 1332.26V1332.26C2392.54 1336.07 2391.02 1339.73 2388.32 1342.42C2385.62 1345.12 2381.96 1346.63 2378.15 1346.63H2377.39V1317.88Z" fill="#3F3D56"/>
<path d="M3046.2 1317.67C3069.28 1317.67 3090.05 1328.84 3104.46 1346.63H3134.06L3105.28 1266.55L2971.21 1240.14L2975 1346.63H2987.94C3002.35 1328.84 3023.12 1317.67 3046.2 1317.67Z" fill="#D0CDE1"/>
<path d="M3047.71 1431.37C3084.11 1431.37 3113.61 1401.9 3113.61 1365.55C3113.61 1329.19 3084.11 1299.73 3047.71 1299.73C3011.32 1299.73 2981.82 1329.19 2981.82 1365.55C2981.82 1401.9 3011.32 1431.37 3047.71 1431.37Z" fill="#3F3D56"/>
<path d="M3047.72 1400.19C3066.87 1400.19 3082.4 1384.68 3082.4 1365.55C3082.4 1346.41 3066.87 1330.9 3047.72 1330.9C3028.56 1330.9 3013.03 1346.41 3013.03 1365.55C3013.03 1384.68 3028.56 1400.19 3047.72 1400.19Z" fill="#D0CDE1"/>
<path d="M2452.37 1430.61C2484.17 1430.61 2509.94 1404.87 2509.94 1373.11C2509.94 1341.36 2484.17 1315.61 2452.37 1315.61C2420.58 1315.61 2394.81 1341.36 2394.81 1373.11C2394.81 1404.87 2420.58 1430.61 2452.37 1430.61Z" fill="#3F3D56"/>
<path d="M2452.37 1403.38C2469.11 1403.38 2482.67 1389.83 2482.67 1373.11C2482.67 1356.4 2469.11 1342.85 2452.37 1342.85C2435.64 1342.85 2422.08 1356.4 2422.08 1373.11C2422.08 1389.83 2435.64 1403.38 2452.37 1403.38Z" fill="#D0CDE1"/>
<path d="M2834.12 1123.44H2802.31V1352.69H2834.12V1123.44Z" fill="#3F3D56"/>
<path d="M2834.12 1311.07H2376.63V1324.69H2834.12V1311.07Z" fill="#3F3D56"/>
<path d="M2630.73 1225.47L2131.8 1361.05L2135.38 1374.19L2634.31 1238.61L2630.73 1225.47Z" fill="#3F3D56"/>
<path d="M2596.67 1241.99L2588.13 1248.26L2640.61 1319.6L2649.16 1313.33L2596.67 1241.99Z" fill="#3F3D56"/>
<path d="M2950.01 1233.15H2934.86V1239.2H2950.01V1233.15Z" fill="#3F3D56"/>
<path d="M2816.7 1278.54H2618.25C2617.89 1278.54 2617.54 1278.41 2617.26 1278.17C2616.99 1277.93 2616.8 1277.6 2616.75 1277.25C2616.7 1276.89 2616.78 1276.52 2616.98 1276.21C2617.17 1275.91 2617.47 1275.68 2617.82 1275.58L2811.72 1218.08C2811.94 1218.01 2812.17 1218 2812.39 1218.03C2812.61 1218.07 2812.83 1218.15 2813.01 1218.28C2813.2 1218.41 2813.35 1218.58 2813.47 1218.77C2813.58 1218.97 2813.65 1219.18 2813.66 1219.41L2818.21 1276.91C2818.23 1277.12 2818.2 1277.33 2818.13 1277.52C2818.06 1277.72 2817.95 1277.9 2817.81 1278.05C2817.67 1278.21 2817.5 1278.33 2817.31 1278.41C2817.11 1278.5 2816.91 1278.54 2816.7 1278.54V1278.54ZM2628.68 1275.51H2815.06L2810.79 1221.51L2628.68 1275.51Z" fill="#3F3D56"/>
<path d="M2279.32 1211.96H2279.3L2235.81 1211.55C2235.6 1211.55 2235.39 1211.5 2235.2 1211.42C2235.01 1211.33 2234.83 1211.2 2234.69 1211.04C2234.55 1210.88 2234.45 1210.7 2234.38 1210.49C2234.32 1210.29 2234.3 1210.08 2234.32 1209.87L2256.92 1012.93C2256.96 1012.56 2257.14 1012.22 2257.41 1011.97C2257.69 1011.73 2258.05 1011.59 2258.42 1011.59H2258.43C2258.8 1011.59 2259.16 1011.73 2259.44 1011.98C2259.72 1012.23 2259.89 1012.57 2259.93 1012.95L2280.82 1210.29C2280.84 1210.5 2280.82 1210.71 2280.76 1210.92C2280.69 1211.12 2280.58 1211.3 2280.44 1211.46C2280.3 1211.62 2280.13 1211.74 2279.93 1211.83C2279.74 1211.92 2279.53 1211.96 2279.32 1211.96V1211.96ZM2237.52 1208.54L2277.63 1208.92L2258.36 1026.92L2237.52 1208.54Z" fill="#3F3D56"/>
<path d="M3115.18 1294.61L3114.47 1294.87C3110.9 1296.22 3106.94 1296.1 3103.47 1294.53C3099.99 1292.96 3097.27 1290.08 3095.92 1286.51V1286.51C3094.57 1282.95 3094.7 1278.99 3096.27 1275.52C3097.84 1272.04 3100.72 1269.33 3104.29 1267.98L3105 1267.71L3115.18 1294.61Z" fill="#3F3D56"/>
<path d="M2193.73 1303.43L2151.47 1315.24L2153.35 1321.94L2195.61 1310.13L2193.73 1303.43Z" fill="#3F3D56"/>
<path d="M2499.72 1219.68L2491.57 1224.13L2160.22 1316.77L2155.3 1310.67C2146.78 1300.22 2141.33 1287.62 2139.56 1274.25C2138.31 1264.28 2139.23 1253.76 2146.19 1247.36L2133.54 1145.42L2316.79 1093.94L2403.71 1131.29C2403.71 1131.29 2437 1121.36 2461.5 1138.89C2469.26 1144.44 2476.14 1152.75 2480.79 1165.01L2484.79 1176.57L2499.72 1219.68Z" fill="#6C63FF"/>
<path d="M2426.48 1280.8C2449.94 1280.8 2468.97 1261.8 2468.97 1238.36C2468.97 1214.92 2449.94 1195.92 2426.48 1195.92C2403.01 1195.92 2383.99 1214.92 2383.99 1238.36C2383.99 1261.8 2403.01 1280.8 2426.48 1280.8Z" fill="#3F3D56"/>
<path d="M2426.48 1260.69C2438.83 1260.69 2448.84 1250.69 2448.84 1238.36C2448.84 1226.02 2438.83 1216.02 2426.48 1216.02C2414.13 1216.02 2404.12 1226.02 2404.12 1238.36C2404.12 1250.69 2414.13 1260.69 2426.48 1260.69Z" fill="#D0CDE1"/>
<path d="M2224.58 1337.24C2248.05 1337.24 2267.07 1318.24 2267.07 1294.8C2267.07 1271.36 2248.05 1252.36 2224.58 1252.36C2201.12 1252.36 2182.1 1271.36 2182.1 1294.8C2182.1 1318.24 2201.12 1337.24 2224.58 1337.24Z" fill="#3F3D56"/>
<path d="M2224.58 1317.14C2236.93 1317.14 2246.95 1307.14 2246.95 1294.8C2246.95 1282.47 2236.93 1272.47 2224.58 1272.47C2212.23 1272.47 2202.22 1282.47 2202.22 1294.8C2202.22 1307.14 2212.23 1317.14 2224.58 1317.14Z" fill="#D0CDE1"/>
<path d="M2373.66 1132.47L2242.2 1169.23L2231.12 1129.7L2314.96 1106.25L2373.66 1132.47Z" fill="white"/>
<path d="M2215.02 1134.2L2162.7 1148.82L2173.78 1188.35L2226.1 1173.73L2215.02 1134.2Z" fill="white"/>
<path d="M2257.16 1196.83L2250.46 1198.71L2254.02 1211.43L2260.73 1209.56L2257.16 1196.83Z" fill="#3F3D56"/>
<path d="M2364.65 1154.5L2362.77 1147.8L2350.02 1151.36L2351.9 1158.06L2364.65 1154.5Z" fill="#3F3D56"/>
<path d="M2347.7 1124.99L2348.43 1124.78C2352.15 1123.74 2356.13 1124.22 2359.5 1126.11C2362.86 1128 2365.34 1131.15 2366.38 1134.87C2367.42 1138.58 2366.94 1142.56 2365.05 1145.92C2363.15 1149.28 2360 1151.75 2356.28 1152.79L2355.54 1153L2347.7 1124.99Z" fill="#3F3D56"/>
<path d="M2484.79 1176.57C2479.87 1178.54 2474.42 1178.71 2469.39 1177.05C2464.35 1175.39 2460.07 1172.02 2457.29 1167.51C2454.5 1163.01 2453.4 1157.67 2454.17 1152.43C2454.94 1147.2 2457.54 1142.4 2461.5 1138.89C2469.26 1144.44 2476.14 1152.75 2480.79 1165.01L2484.79 1176.57Z" fill="#3F3D56"/>
<path d="M2265.29 827.619H2250.14V1048.54H2265.29V827.619Z" fill="#3F3D56"/>
<path d="M2257.71 856.369C2269.43 856.369 2278.92 846.884 2278.92 835.184C2278.92 823.485 2269.43 814 2257.71 814C2246 814 2236.51 823.485 2236.51 835.184C2236.51 846.884 2246 856.369 2257.71 856.369Z" fill="#3F3D56"/>
<path d="M2816.7 1080.32C2828.41 1080.32 2837.91 1070.83 2837.91 1059.13C2837.91 1047.43 2828.41 1037.95 2816.7 1037.95C2804.99 1037.95 2795.49 1047.43 2795.49 1059.13C2795.49 1070.83 2804.99 1080.32 2816.7 1080.32Z" fill="#3F3D56"/>
</g>
</g>
<defs>
<clipPath id="clip0">
<rect width="3397" height="1460" fill="white"/>
</clipPath>
<clipPath id="clip1">
<rect width="1254" height="645" fill="white" transform="translate(2005 814)"/>
</clipPath>
</defs>
</svg>
