<svg width="1190" height="823" viewBox="0 0 1190 823" fill="none" xmlns="http://www.w3.org/2000/svg">
<path d="M610.5 134C632.315 134 650 116.315 650 94.5C650 72.6848 632.315 55 610.5 55C588.685 55 571 72.6848 571 94.5C571 116.315 588.685 134 610.5 134Z" fill="#FF6584"/>
<path d="M609.413 129.336L618.619 121.973C611.468 121.184 608.529 125.084 607.327 128.171C601.74 125.851 595.657 128.892 595.657 128.892L614.076 135.579C613.147 133.097 611.53 130.931 609.413 129.336V129.336Z" fill="#3F3D56"/>
<path d="M685.413 109.336L694.619 101.973C687.468 101.184 684.529 105.084 683.327 108.171C677.74 105.851 671.657 108.892 671.657 108.892L690.076 115.579C689.147 113.097 687.53 110.931 685.413 109.336V109.336Z" fill="#3F3D56"/>
<path d="M702.413 189.336L711.619 181.973C704.468 181.184 701.529 185.084 700.327 188.171C694.74 185.851 688.657 188.892 688.657 188.892L707.076 195.579C706.147 193.097 704.53 190.931 702.413 189.336V189.336Z" fill="#3F3D56"/>
<path d="M983 425.911C868.859 425.911 776 333.051 776 218.911C776 104.771 868.859 11.9106 983 11.9106C1097.14 11.9106 1190 104.771 1190 218.911C1190 333.051 1097.14 425.911 983 425.911ZM983 13.9106C869.963 13.9106 778 105.873 778 218.911C778 331.948 869.963 423.911 983 423.911C1096.04 423.911 1188 331.948 1188 218.911C1188 105.873 1096.04 13.9106 983 13.9106Z" fill="black"/>
<path d="M983 367.911C900.841 367.911 834 301.07 834 218.911C834 136.752 900.841 69.9106 983 69.9106C1065.16 69.9106 1132 136.752 1132 218.911C1132 301.07 1065.16 367.911 983 367.911ZM983 71.9106C901.944 71.9106 836 137.855 836 218.911C836 299.967 901.944 365.911 983 365.911C1064.06 365.911 1130 299.967 1130 218.911C1130 137.855 1064.06 71.9106 983 71.9106Z" fill="black"/>
<path d="M983 309.253C965.132 309.252 947.666 303.954 932.809 294.027C917.953 284.1 906.373 269.991 899.536 253.483C892.698 236.975 890.909 218.811 894.395 201.286C897.88 183.762 906.485 167.664 919.119 155.03C931.754 142.395 947.851 133.791 965.375 130.305C982.9 126.819 1001.06 128.608 1017.57 135.446C1034.08 142.284 1048.19 153.863 1058.12 168.72C1068.04 183.576 1073.34 201.043 1073.34 218.911C1073.31 242.863 1063.79 265.826 1046.85 282.762C1029.91 299.699 1006.95 309.225 983 309.253V309.253ZM983 130.569C965.528 130.569 948.448 135.751 933.92 145.458C919.392 155.165 908.07 168.962 901.383 185.104C894.697 201.247 892.948 219.009 896.356 236.146C899.765 253.282 908.179 269.023 920.534 281.378C932.888 293.733 948.629 302.146 965.766 305.555C982.903 308.964 1000.67 307.214 1016.81 300.528C1032.95 293.841 1046.75 282.518 1056.45 267.991C1066.16 253.463 1071.34 236.383 1071.34 218.911C1071.32 195.489 1062 173.035 1045.44 156.473C1028.88 139.912 1006.42 130.596 983 130.569V130.569Z" fill="black"/>
<path d="M983 264.784C1008.34 264.784 1028.87 244.246 1028.87 218.911C1028.87 193.576 1008.34 173.038 983 173.038C957.665 173.038 937.126 193.576 937.126 218.911C937.126 244.246 957.665 264.784 983 264.784Z" fill="#6C63FF"/>
<path d="M1015.82 29.0904C1023.85 29.0904 1030.36 22.5783 1030.36 14.5452C1030.36 6.51212 1023.85 0 1015.82 0C1007.79 0 1001.27 6.51212 1001.27 14.5452C1001.27 22.5783 1007.79 29.0904 1015.82 29.0904Z" fill="#6C63FF"/>
<path d="M833.443 374.819C841.476 374.819 847.988 368.307 847.988 360.274C847.988 352.241 841.476 345.729 833.443 345.729C825.41 345.729 818.898 352.241 818.898 360.274C818.898 368.307 825.41 374.819 833.443 374.819Z" fill="#6C63FF"/>
<path d="M835.443 249.819C843.476 249.819 849.988 243.307 849.988 235.274C849.988 227.241 843.476 220.729 835.443 220.729C827.41 220.729 820.898 227.241 820.898 235.274C820.898 243.307 827.41 249.819 835.443 249.819Z" fill="#6C63FF"/>
<path d="M1065.82 210.09C1073.86 210.09 1080.37 203.578 1080.37 195.545C1080.37 187.512 1073.86 181 1065.82 181C1057.79 181 1051.28 187.512 1051.28 195.545C1051.28 203.578 1057.79 210.09 1065.82 210.09Z" fill="#6C63FF"/>
<path d="M1107.44 151.819C1115.48 151.819 1121.99 145.307 1121.99 137.274C1121.99 129.241 1115.48 122.729 1107.44 122.729C1099.41 122.729 1092.9 129.241 1092.9 137.274C1092.9 145.307 1099.41 151.819 1107.44 151.819Z" fill="#6C63FF"/>
<path d="M1122.11 268.527C1130.14 268.527 1136.66 262.015 1136.66 253.982C1136.66 245.949 1130.14 239.437 1122.11 239.437C1114.08 239.437 1107.56 245.949 1107.56 253.982C1107.56 262.015 1114.08 268.527 1122.11 268.527Z" fill="#6C63FF"/>
<path d="M803.234 129.788C811.267 129.788 817.779 123.276 817.779 115.243C817.779 107.21 811.267 100.698 803.234 100.698C795.201 100.698 788.689 107.21 788.689 115.243C788.689 123.276 795.201 129.788 803.234 129.788Z" fill="#6C63FF"/>
<path d="M1037.08 433C1045.11 433 1051.62 426.488 1051.62 418.455C1051.62 410.422 1045.11 403.91 1037.08 403.91C1029.04 403.91 1022.53 410.422 1022.53 418.455C1022.53 426.488 1029.04 433 1037.08 433Z" fill="#6C63FF"/>
<g clip-path="url(#clip0)">
<path d="M932.137 263.365H288.275V675.723H932.137V263.365Z" fill="#E6E6E6"/>
<path d="M913.726 315.085H306.686V651.328H913.726V315.085Z" fill="white"/>
<path d="M931.862 263H288V290.354H931.862V263Z" fill="#6C63FF"/>
<path d="M308.327 282.054C311.127 282.054 313.397 279.785 313.397 276.985C313.397 274.185 311.127 271.915 308.327 271.915C305.527 271.915 303.257 274.185 303.257 276.985C303.257 279.785 305.527 282.054 308.327 282.054Z" fill="white"/>
<path d="M327.571 282.054C330.37 282.054 332.64 279.785 332.64 276.985C332.64 274.185 330.37 271.915 327.571 271.915C324.771 271.915 322.501 274.185 322.501 276.985C322.501 279.785 324.771 282.054 327.571 282.054Z" fill="white"/>
<path d="M346.814 282.054C349.614 282.054 351.884 279.785 351.884 276.985C351.884 274.185 349.614 271.915 346.814 271.915C344.014 271.915 341.744 274.185 341.744 276.985C341.744 279.785 344.014 282.054 346.814 282.054Z" fill="white"/>
<path d="M517.824 349.973H361.844V616.44H517.824V349.973Z" fill="#E6E6E6"/>
<path d="M674.733 349.973H544.75V423.321H674.733V349.973Z" fill="#6C63FF"/>
<path d="M674.733 443.747H544.75V522.666H674.733V443.747Z" fill="#E6E6E6"/>
<path d="M674.733 543.092H544.75V616.44H674.733V543.092Z" fill="#E6E6E6"/>
<path d="M858.568 349.973H702.587V466.098H858.568V349.973Z" fill="#E6E6E6"/>
<path d="M858.568 500.315H702.587V616.44H858.568V500.315Z" fill="#E6E6E6"/>
<path d="M798.479 474.44V449.44C798.479 440.555 802.008 432.034 808.29 425.752C814.573 419.469 823.094 415.94 831.979 415.94C840.863 415.94 849.384 419.469 855.667 425.752C861.949 432.034 865.479 440.555 865.479 449.44V474.44C865.477 475.633 865.003 476.777 864.159 477.62C863.315 478.464 862.172 478.939 860.979 478.94H802.979C801.785 478.939 800.642 478.464 799.798 477.62C798.954 476.777 798.48 475.633 798.479 474.44Z" fill="#2F2E41"/>
<path d="M881.514 799.786L869.698 803.056L851.462 759.038L868.901 754.212L881.514 799.786Z" fill="#FFB8B8"/>
<path d="M860.324 802.016L883.111 795.71L887.082 810.057L849.947 820.334C849.426 818.45 849.281 816.482 849.52 814.542C849.759 812.601 850.378 810.727 851.342 809.026C852.305 807.325 853.595 805.831 855.136 804.628C856.677 803.425 858.44 802.538 860.324 802.016V802.016Z" fill="#2F2E41"/>
<path d="M758.328 808.875H746.068L740.235 761.587H758.33L758.328 808.875Z" fill="#FFB8B8"/>
<path d="M737.311 805.372H760.955V820.258H722.424C722.424 818.304 722.809 816.368 723.557 814.562C724.305 812.755 725.402 811.114 726.784 809.732C728.166 808.349 729.808 807.253 731.614 806.505C733.42 805.757 735.356 805.372 737.311 805.372V805.372Z" fill="#2F2E41"/>
<path d="M743.544 544.598C744.42 545.779 745.543 546.754 746.836 547.454C748.128 548.154 749.559 548.563 751.026 548.65C752.494 548.738 753.963 548.502 755.329 547.961C756.696 547.419 757.927 546.584 758.936 545.515L791.527 560.173L788.562 541.842L758.069 530.733C756.16 529.156 753.74 528.335 751.267 528.423C748.793 528.512 746.438 529.505 744.648 531.214C742.858 532.923 741.757 535.23 741.553 537.696C741.35 540.163 742.058 542.619 743.545 544.598H743.544Z" fill="#FFB8B8"/>
<path d="M811.259 654.836C801.02 654.836 790.42 653.311 781.51 648.775C776.78 646.414 772.589 643.103 769.198 639.048C765.806 634.993 763.288 630.282 761.801 625.209C757.159 610.51 763.012 596.069 768.673 582.104C772.18 573.45 775.493 565.277 776.353 557.22L776.653 554.36C777.992 541.512 779.148 530.417 785.55 526.255C788.869 524.098 793.33 523.975 799.191 525.878L854.236 543.759L852.212 648.25L851.877 648.361C851.589 648.458 832.185 654.836 811.259 654.836Z" fill="#2F2E41"/>
<path d="M798.229 493.348C798.229 493.348 825.229 485.348 846.229 488.348C846.229 488.348 834.229 554.348 838.229 576.348C842.229 598.348 768.729 584.848 783.729 563.848L788.729 538.848C788.729 538.848 778.729 528.848 787.729 516.848L798.229 493.348Z" fill="#6C63FF"/>
<path d="M784.948 652.855L751.672 646.616L763.29 557.209C764.071 554.713 782.068 498.066 790.241 495.001C796.176 492.911 802.245 491.225 808.407 489.954L809.591 489.717L802.919 499.726L776.354 563.38L784.948 652.855Z" fill="#2F2E41"/>
<path d="M767.61 797.918L724.615 790.753L748.743 692.229L784.646 557.492L785 559.884C785.029 560.062 788.383 577.664 838.151 569.854L838.589 569.786L838.71 570.212L898.862 782.75L849.871 790.914L805.188 635.848L767.61 797.918Z" fill="#2F2E41"/>
<path d="M827.202 669.587L827.229 668.83C827.259 667.99 830.217 584.458 829.229 550.863C828.237 517.154 839.151 487.962 839.261 487.671L839.35 487.437L839.591 487.367C853.711 483.334 865.96 495.373 866.082 495.495L866.254 495.667L862.233 528.843L879.449 649.484L827.202 669.587Z" fill="#2F2E41"/>
<path d="M825.095 478.358C838.659 478.358 849.656 467.362 849.656 453.797C849.656 440.232 838.659 429.236 825.095 429.236C811.53 429.236 800.534 440.232 800.534 453.797C800.534 467.362 811.53 478.358 825.095 478.358Z" fill="#FFB8B8"/>
<path d="M790.553 451.44C790.561 444.414 793.356 437.678 798.324 432.71C803.292 427.742 810.027 424.948 817.053 424.94H822.053C829.079 424.948 835.815 427.742 840.783 432.71C845.751 437.678 848.545 444.414 848.553 451.44V451.94H837.987L834.383 441.848L833.662 451.94H828.201L826.383 446.848L826.019 451.94H790.553V451.44Z" fill="#2F2E41"/>
<path d="M822.678 481.751C822.182 481.079 821.885 480.281 821.823 479.448C821.761 478.616 821.935 477.782 822.325 477.044C827.624 466.966 835.043 448.344 825.195 436.86L824.488 436.034H853.075V478.954L827.106 483.536C826.843 483.583 826.576 483.606 826.309 483.607C825.6 483.607 824.901 483.438 824.27 483.116C823.639 482.793 823.093 482.326 822.678 481.751Z" fill="#2F2E41"/>
<path d="M707.58 304.546C687.576 287.667 663.097 276.965 637.122 273.744C611.147 270.523 584.795 274.921 561.274 286.404C537.753 297.886 518.077 315.957 504.639 338.418C491.201 360.88 484.581 386.762 485.585 412.917C486.59 439.072 495.174 464.371 510.294 485.736C525.415 507.101 546.419 523.61 570.751 533.256C595.083 542.901 621.694 545.266 647.346 540.063C672.998 534.86 696.584 522.313 715.235 503.949L880.853 643.697C883.373 645.827 886.636 646.87 889.925 646.594C893.213 646.319 896.257 644.748 898.388 642.229C900.518 639.709 901.56 636.446 901.285 633.157C901.009 629.869 899.439 626.825 896.919 624.694L896.901 624.679L731.283 484.931C750.522 457.318 758.757 423.515 754.372 390.147C749.988 356.78 733.3 326.252 707.58 304.546V304.546ZM696.903 471.474C684.001 486.765 666.854 497.887 647.631 503.432C628.408 508.978 607.972 508.699 588.907 502.63C569.843 496.562 553.006 484.976 540.526 469.338C528.046 453.701 520.483 434.714 518.794 414.778C517.106 394.842 521.366 374.853 531.037 357.339C540.709 339.825 555.357 325.572 573.128 316.382C590.9 307.193 610.998 303.48 630.88 305.713C650.762 307.945 669.536 316.024 684.827 328.926H684.827C694.979 337.493 703.346 347.976 709.447 359.776C715.549 371.576 719.266 384.462 720.388 397.699C721.509 410.936 720.012 424.264 715.983 436.922C711.953 449.581 705.47 461.321 696.903 471.474V471.474Z" fill="#3F3D56"/>
<path opacity="0.3" d="M554.355 483.551C534.949 467.174 522.411 444.099 519.231 418.906C516.051 393.714 522.462 368.247 537.19 347.562C535.256 349.51 533.386 351.55 531.58 353.682C523.013 363.834 516.53 375.575 512.501 388.234C508.471 400.892 506.975 414.22 508.096 427.457C509.217 440.694 512.935 453.58 519.037 465.38C525.138 477.18 533.504 487.663 543.657 496.23C553.81 504.796 565.55 511.28 578.209 515.309C590.867 519.339 604.195 520.835 617.432 519.714C630.669 518.593 643.555 514.875 655.355 508.773C667.155 502.672 677.638 494.306 686.205 484.153C688.006 482.018 689.702 479.832 691.294 477.594C673.381 495.592 649.356 506.195 623.987 507.299C598.619 508.402 573.763 499.925 554.355 483.551V483.551Z" fill="black"/>
<path d="M832.98 587.536C834.408 587.885 835.896 587.917 837.337 587.629C838.779 587.341 840.14 586.741 841.324 585.87C842.509 584.999 843.488 583.879 844.193 582.589C844.898 581.299 845.311 579.87 845.404 578.403L879.837 568.846L865.84 556.642L835.288 567.589C832.813 567.596 830.427 568.511 828.581 570.161C826.735 571.81 825.559 574.079 825.275 576.538C824.99 578.996 825.617 581.474 827.038 583.501C828.458 585.528 830.572 586.964 832.98 587.536V587.536Z" fill="#FFB8B8"/>
<path d="M847.292 582.477L845.197 562.571L873.959 546.702L855.207 524.001L858.266 498.502L865.886 495.236L866.123 495.541C869.716 500.161 901.228 540.822 901.228 545.848C901.228 551.011 895.2 566.171 886.952 570.295C878.996 574.273 849.121 582.005 847.853 582.332L847.292 582.477Z" fill="#2F2E41"/>
<path d="M996.533 821.594H615.533C615.267 821.594 615.013 821.488 614.826 821.301C614.638 821.113 614.533 820.859 614.533 820.594C614.533 820.329 614.638 820.074 614.826 819.887C615.013 819.699 615.267 819.594 615.533 819.594H996.533C996.798 819.594 997.052 819.699 997.24 819.887C997.427 820.074 997.533 820.329 997.533 820.594C997.533 820.859 997.427 821.113 997.24 821.301C997.052 821.488 996.798 821.594 996.533 821.594Z" fill="#CCCCCC"/>
</g>
<path d="M0 526.546C0 459.38 54.4483 300 121.614 300C188.779 300 243.227 459.38 243.227 526.546C243.227 558.8 230.415 589.733 207.608 612.54C184.801 635.347 153.868 648.159 121.614 648.159C89.3597 648.159 58.4268 635.347 35.6198 612.54C12.8128 589.733 0 558.8 0 526.546V526.546Z" fill="#6C63FF"/>
<path d="M121.614 822.418C121.349 822.418 121.094 822.313 120.907 822.125C120.719 821.938 120.614 821.683 120.614 821.418V402.134C120.614 401.869 120.719 401.614 120.907 401.427C121.094 401.239 121.349 401.134 121.614 401.134C121.879 401.134 122.133 401.239 122.321 401.427C122.508 401.614 122.614 401.869 122.614 402.134V821.418C122.614 821.683 122.508 821.938 122.321 822.125C122.133 822.313 121.879 822.418 121.614 822.418Z" fill="#3F3D56"/>
<path d="M121.614 483.08C121.482 483.08 121.352 483.054 121.231 483.004C121.109 482.953 120.999 482.88 120.906 482.787L72.772 434.652C72.5864 434.464 72.4828 434.211 72.4836 433.946C72.4845 433.682 72.5898 433.429 72.7766 433.243C72.9633 433.056 73.2164 432.951 73.4805 432.95C73.7446 432.949 73.9984 433.053 74.1863 433.238L122.321 481.372C122.461 481.512 122.556 481.69 122.594 481.884C122.633 482.078 122.613 482.279 122.537 482.462C122.462 482.645 122.334 482.801 122.169 482.911C122.005 483.021 121.811 483.079 121.614 483.079V483.08Z" fill="#3F3D56"/>
<path d="M121.614 566.41C121.416 566.41 121.223 566.351 121.058 566.241C120.894 566.131 120.766 565.975 120.69 565.792C120.614 565.61 120.594 565.409 120.633 565.215C120.672 565.021 120.767 564.843 120.907 564.703L201.517 484.092C201.705 483.907 201.958 483.803 202.222 483.804C202.486 483.805 202.739 483.91 202.926 484.097C203.113 484.284 203.218 484.537 203.219 484.801C203.22 485.065 203.116 485.318 202.931 485.506L122.321 566.117C122.228 566.21 122.118 566.283 121.997 566.334C121.875 566.384 121.745 566.41 121.614 566.41V566.41Z" fill="#3F3D56"/>
<defs>
<clipPath id="clip0">
<rect width="709.533" height="558.594" fill="white" transform="translate(288 263)"/>
</clipPath>
</defs>
</svg>
