<svg width="579" height="622" viewBox="0 0 579 622" fill="none" xmlns="http://www.w3.org/2000/svg">
<g clip-path="url(#clip0)">
<path d="M366.643 352.86L116.794 417.199C108.319 419.371 99.3282 418.093 91.7943 413.645C84.2605 409.196 78.7987 401.941 76.6073 393.471L1.04641 100.044C-1.12584 91.5686 0.152406 82.5778 4.60073 75.0439C9.04905 67.5101 16.3042 62.0483 24.7744 59.8569L257.218 0L316.713 26.6338L390.371 312.673C392.543 321.148 391.265 330.139 386.817 337.673C382.368 345.207 375.113 350.669 366.643 352.86V352.86Z" fill="#F2F2F2"/>
<path d="M27.1434 69.0566C21.1115 70.6171 15.945 74.5065 12.7772 79.8716C9.60949 85.2366 8.69923 91.6391 10.2461 97.6745L85.807 391.102C87.3676 397.134 91.257 402.3 96.622 405.468C101.987 408.636 108.39 409.546 114.425 407.999L364.274 343.66C370.306 342.099 375.472 338.21 378.64 332.845C381.808 327.48 382.718 321.077 381.171 315.042L308.654 33.4348L256.369 10.0283L27.1434 69.0566Z" fill="white"/>
<path d="M316.078 28.1475L277.41 38.1048C274.587 38.8318 271.591 38.4075 269.081 36.9255C266.571 35.4434 264.753 33.025 264.026 30.2021L256.672 1.64288C256.639 1.51785 256.643 1.38627 256.682 1.26324C256.721 1.14021 256.794 1.03071 256.893 0.947295C256.992 0.863877 257.112 0.809918 257.239 0.79161C257.367 0.773302 257.498 0.791381 257.616 0.84378L316.185 26.8545C316.316 26.9124 316.425 27.0094 316.497 27.1321C316.57 27.2548 316.603 27.3971 316.591 27.5392C316.579 27.6813 316.523 27.8163 316.432 27.9253C316.34 28.0343 316.216 28.112 316.078 28.1475V28.1475Z" fill="#F2F2F2"/>
<path d="M295.735 278.728L181.982 308.021C181.283 308.201 180.556 308.241 179.841 308.14C179.127 308.039 178.439 307.798 177.818 307.431C177.196 307.064 176.653 306.578 176.22 306.002C175.786 305.425 175.47 304.768 175.29 304.069C175.11 303.37 175.07 302.643 175.171 301.928C175.272 301.214 175.513 300.526 175.88 299.905C176.247 299.283 176.732 298.74 177.309 298.307C177.886 297.873 178.543 297.557 179.241 297.377L292.994 268.084C293.693 267.905 294.421 267.864 295.135 267.965C295.85 268.066 296.537 268.307 297.159 268.674C297.78 269.041 298.323 269.527 298.757 270.104C299.191 270.68 299.506 271.337 299.686 272.036C299.866 272.735 299.907 273.462 299.806 274.177C299.705 274.891 299.464 275.579 299.097 276.2C298.73 276.822 298.244 277.365 297.667 277.798C297.09 278.232 296.434 278.548 295.735 278.728Z" fill="#CCCCCC"/>
<path d="M322.313 291.036L186.607 325.982C185.196 326.345 183.698 326.133 182.443 325.392C181.188 324.651 180.279 323.442 179.915 322.03C179.552 320.619 179.764 319.121 180.505 317.866C181.246 316.611 182.455 315.702 183.867 315.338L319.572 280.393C320.983 280.031 322.48 280.244 323.733 280.985C324.987 281.726 325.896 282.935 326.259 284.345C326.622 285.756 326.411 287.253 325.671 288.508C324.931 289.762 323.723 290.672 322.313 291.036V291.036Z" fill="#CCCCCC"/>
<path d="M135.555 343.301C146.282 343.301 154.978 334.605 154.978 323.878C154.978 313.151 146.282 304.455 135.555 304.455C124.828 304.455 116.132 313.151 116.132 323.878C116.132 334.605 124.828 343.301 135.555 343.301Z" fill="#E6E6E6"/>
<path d="M283.64 227.896L132.565 266.786C128.199 267.904 123.567 267.245 119.686 264.953C115.805 262.661 112.992 258.924 111.864 254.56L80.204 131.57C79.0853 127.204 79.7442 122.572 82.0361 118.691C84.328 114.81 88.0658 111.997 92.4294 110.868L243.504 71.9794C247.87 70.8607 252.502 71.5196 256.383 73.8115C260.264 76.1034 263.077 79.8412 264.206 84.2048L295.865 207.195C296.984 211.561 296.325 216.193 294.033 220.074C291.741 223.955 288.003 226.768 283.64 227.896Z" fill="white"/>
<path d="M283.64 227.896L132.565 266.786C128.199 267.904 123.567 267.245 119.686 264.953C115.805 262.661 112.992 258.924 111.864 254.56L80.204 131.57C79.0853 127.204 79.7442 122.572 82.0361 118.691C84.328 114.81 88.0658 111.997 92.4294 110.868L243.504 71.9794C247.87 70.8607 252.502 71.5196 256.383 73.8115C260.264 76.1034 263.077 79.8412 264.206 84.2048L295.865 207.195C296.984 211.561 296.325 216.193 294.033 220.074C291.741 223.955 288.003 226.768 283.64 227.896ZM92.928 112.805C89.0778 113.801 85.7798 116.283 83.7575 119.708C81.7352 123.132 81.1538 127.219 82.1409 131.071L113.801 254.062C114.796 257.912 117.279 261.21 120.703 263.232C124.127 265.254 128.214 265.836 132.066 264.849L283.141 225.96C286.992 224.964 290.29 222.482 292.312 219.057C294.334 215.633 294.916 211.546 293.928 207.694L262.269 84.7033C261.273 80.8531 258.791 77.5551 255.366 75.5329C251.942 73.5106 247.855 72.9292 244.003 73.9162L92.928 112.805Z" fill="#E6E6E6"/>
<path d="M235.84 113.333L159.594 132.96C158.928 133.146 158.215 133.072 157.601 132.753C156.987 132.434 156.517 131.894 156.286 131.242C156.178 130.901 156.141 130.542 156.177 130.186C156.213 129.831 156.321 129.486 156.494 129.174C156.668 128.861 156.903 128.587 157.186 128.369C157.468 128.15 157.793 127.992 158.139 127.902L235.752 107.924C238.887 109.512 238.062 112.761 235.839 113.334L235.84 113.333Z" fill="#F2F2F2"/>
<path d="M239.283 126.707L163.037 146.334C162.37 146.52 161.658 146.446 161.044 146.127C160.43 145.808 159.96 145.268 159.729 144.616C159.621 144.275 159.584 143.916 159.62 143.56C159.656 143.205 159.764 142.86 159.937 142.548C160.11 142.235 160.346 141.961 160.628 141.743C160.911 141.524 161.235 141.366 161.581 141.276L239.195 121.298C242.33 122.886 241.505 126.135 239.282 126.708L239.283 126.707Z" fill="#F2F2F2"/>
<path d="M148.515 158.192L125.245 164.182C124.485 164.377 123.679 164.262 123.004 163.863C122.328 163.464 121.838 162.814 121.642 162.054L114.574 134.594C114.379 133.834 114.493 133.028 114.892 132.352C115.291 131.677 115.942 131.187 116.702 130.991L139.971 125.001C140.731 124.806 141.537 124.921 142.212 125.32C142.888 125.719 143.378 126.37 143.574 127.129L150.643 154.589C150.838 155.349 150.723 156.155 150.324 156.831C149.925 157.506 149.274 157.996 148.515 158.192V158.192Z" fill="#E6E6E6"/>
<path d="M246.11 154.148L129.745 184.102C129.079 184.288 128.366 184.214 127.752 183.895C127.138 183.576 126.668 183.036 126.437 182.384C126.329 182.043 126.292 181.684 126.328 181.328C126.364 180.972 126.472 180.628 126.645 180.315C126.818 180.003 127.054 179.729 127.336 179.511C127.619 179.292 127.943 179.133 128.289 179.044L246.023 148.738C249.158 150.326 248.333 153.576 246.11 154.148L246.11 154.148Z" fill="#F2F2F2"/>
<path d="M249.554 167.526L133.189 197.48C132.522 197.666 131.81 197.592 131.196 197.273C130.582 196.954 130.111 196.414 129.88 195.761C129.773 195.421 129.736 195.061 129.772 194.706C129.807 194.35 129.915 194.006 130.089 193.693C130.262 193.381 130.497 193.107 130.78 192.888C131.063 192.67 131.387 192.511 131.733 192.422L249.467 162.116C252.602 163.704 251.777 166.954 249.554 167.526V167.526Z" fill="#F2F2F2"/>
<path d="M252.995 180.895L136.63 210.849C135.964 211.035 135.251 210.961 134.637 210.642C134.023 210.323 133.553 209.783 133.322 209.131C133.214 208.79 133.177 208.431 133.213 208.075C133.249 207.72 133.357 207.375 133.53 207.063C133.704 206.75 133.939 206.476 134.222 206.258C134.504 206.039 134.829 205.88 135.175 205.791L252.908 175.485C256.043 177.073 255.218 180.323 252.995 180.895V180.895Z" fill="#F2F2F2"/>
<path d="M256.438 194.272L140.074 224.226C139.407 224.412 138.695 224.338 138.081 224.019C137.466 223.7 136.996 223.16 136.765 222.507C136.658 222.167 136.621 221.808 136.657 221.452C136.692 221.096 136.8 220.752 136.974 220.439C137.147 220.127 137.382 219.853 137.665 219.635C137.948 219.416 138.272 219.257 138.618 219.168L256.351 188.862C259.487 190.45 258.662 193.7 256.438 194.272L256.438 194.272Z" fill="#F2F2F2"/>
<path d="M259.88 207.642L143.515 237.596C142.849 237.782 142.136 237.708 141.522 237.389C140.908 237.07 140.438 236.53 140.207 235.878C140.099 235.537 140.062 235.178 140.098 234.822C140.134 234.467 140.242 234.122 140.415 233.81C140.589 233.497 140.824 233.223 141.107 233.005C141.389 232.786 141.714 232.627 142.06 232.538L259.793 202.232C262.928 203.821 262.103 207.07 259.88 207.642V207.642Z" fill="#F2F2F2"/>
<path d="M136.988 330.686C136.565 330.796 136.118 330.765 135.714 330.598L135.689 330.588L130.398 328.345C130.152 328.241 129.929 328.09 129.742 327.9C129.555 327.709 129.408 327.484 129.308 327.237C129.208 326.99 129.157 326.725 129.16 326.459C129.162 326.192 129.217 325.929 129.322 325.683C129.426 325.438 129.578 325.215 129.768 325.029C129.958 324.842 130.184 324.695 130.431 324.595C130.678 324.495 130.943 324.446 131.21 324.448C131.476 324.451 131.74 324.507 131.985 324.611L135.414 326.07L139.907 315.5C140.011 315.255 140.162 315.033 140.352 314.847C140.542 314.66 140.767 314.513 141.014 314.413C141.261 314.314 141.525 314.264 141.792 314.266C142.058 314.269 142.321 314.324 142.566 314.428L142.567 314.428L142.54 314.497L142.568 314.428C143.062 314.639 143.453 315.037 143.654 315.536C143.855 316.035 143.85 316.593 143.64 317.088L138.354 329.515C138.232 329.802 138.045 330.056 137.808 330.259C137.571 330.461 137.291 330.607 136.989 330.683L136.988 330.686Z" fill="white"/>
<path d="M462.475 464.677H204.475C195.726 464.668 187.338 461.188 181.152 455.001C174.965 448.815 171.485 440.427 171.475 431.677V128.677C171.485 119.928 174.965 111.54 181.152 105.354C187.338 99.1673 195.726 95.6874 204.475 95.6775H444.502L495.475 136.306V431.677C495.465 440.427 491.985 448.815 485.799 455.001C479.612 461.188 471.224 464.668 462.475 464.677V464.677Z" fill="#E6E6E6"/>
<path d="M204.475 105.177C198.245 105.185 192.271 107.663 187.866 112.068C183.46 116.474 180.982 122.447 180.975 128.677V431.677C180.982 437.908 183.46 443.881 187.866 448.287C192.271 452.692 198.245 455.17 204.475 455.177H462.475C468.706 455.17 474.679 452.692 479.084 448.287C483.49 443.881 485.968 437.908 485.975 431.677V140.883L441.179 105.177H204.475Z" fill="white"/>
<path d="M412.294 193.282H294.83C293.373 193.282 291.975 192.703 290.945 191.672C289.914 190.642 289.335 189.244 289.335 187.786C289.335 186.329 289.914 184.931 290.945 183.901C291.975 182.87 293.373 182.291 294.83 182.291H412.294C413.752 182.291 415.149 182.87 416.18 183.901C417.211 184.931 417.79 186.329 417.79 187.786C417.79 189.244 417.211 190.642 416.18 191.672C415.149 192.703 413.752 193.282 412.294 193.282V193.282Z" fill="#6C63FF"/>
<path d="M434.963 211.829H294.83C293.374 211.827 291.978 211.247 290.949 210.216C289.92 209.186 289.342 207.789 289.342 206.333C289.342 204.877 289.92 203.48 290.949 202.45C291.978 201.42 293.374 200.84 294.83 200.838H434.963C435.685 200.837 436.4 200.978 437.068 201.254C437.735 201.53 438.342 201.934 438.853 202.445C439.364 202.955 439.77 203.561 440.046 204.229C440.323 204.896 440.465 205.611 440.465 206.333C440.465 207.056 440.323 207.771 440.046 208.438C439.77 209.105 439.364 209.711 438.853 210.222C438.342 210.732 437.735 211.137 437.068 211.412C436.4 211.688 435.685 211.83 434.963 211.829V211.829Z" fill="#6C63FF"/>
<path d="M412.295 265.406H294.835C293.377 265.406 291.98 265.984 290.949 267.015C289.919 268.045 289.34 269.443 289.34 270.901C289.34 272.358 289.919 273.756 290.949 274.786C291.98 275.817 293.377 276.396 294.835 276.396H412.295C413.752 276.396 415.15 275.817 416.18 274.786C417.211 273.756 417.79 272.358 417.79 270.901C417.79 269.443 417.211 268.045 416.18 267.015C415.15 265.984 413.752 265.406 412.295 265.406V265.406Z" fill="#CCCCCC"/>
<path d="M434.965 283.956H294.835C293.378 283.956 291.98 284.535 290.949 285.565C289.919 286.596 289.34 287.993 289.34 289.451C289.34 290.908 289.919 292.306 290.949 293.336C291.98 294.367 293.378 294.946 294.835 294.946H434.965C436.422 294.946 437.82 294.367 438.85 293.336C439.881 292.306 440.46 290.908 440.46 289.451C440.46 287.993 439.881 286.596 438.85 285.565C437.82 284.535 436.422 283.956 434.965 283.956Z" fill="#CCCCCC"/>
<path d="M412.294 359.517H294.83C293.373 359.517 291.975 358.938 290.945 357.908C289.914 356.877 289.335 355.479 289.335 354.022C289.335 352.564 289.914 351.167 290.945 350.136C291.975 349.105 293.373 348.526 294.83 348.526H412.294C413.752 348.526 415.149 349.105 416.18 350.136C417.211 351.167 417.79 352.564 417.79 354.022C417.79 355.479 417.211 356.877 416.18 357.908C415.149 358.938 413.752 359.517 412.294 359.517V359.517Z" fill="#CCCCCC"/>
<path d="M434.963 378.064H294.83C293.374 378.062 291.978 377.482 290.949 376.452C289.92 375.421 289.342 374.025 289.342 372.569C289.342 371.112 289.92 369.716 290.949 368.685C291.978 367.655 293.374 367.075 294.83 367.073H434.963C435.685 367.072 436.4 367.214 437.068 367.489C437.735 367.765 438.342 368.17 438.853 368.68C439.364 369.191 439.77 369.797 440.046 370.464C440.323 371.131 440.465 371.846 440.465 372.569C440.465 373.291 440.323 374.006 440.046 374.673C439.77 375.341 439.364 375.947 438.853 376.457C438.342 376.967 437.735 377.372 437.068 377.648C436.4 377.924 435.685 378.065 434.963 378.064Z" fill="#CCCCCC"/>
<path d="M245.916 216.483C256.643 216.483 265.339 207.787 265.339 197.06C265.339 186.333 256.643 177.637 245.916 177.637C235.188 177.637 226.492 186.333 226.492 197.06C226.492 207.787 235.188 216.483 245.916 216.483Z" fill="#6C63FF"/>
<path d="M243.991 204.469C243.554 204.47 243.129 204.329 242.779 204.066L242.757 204.05L238.193 200.558C237.98 200.397 237.802 200.194 237.669 199.964C237.535 199.733 237.448 199.478 237.412 199.214C237.377 198.949 237.395 198.68 237.463 198.423C237.532 198.165 237.651 197.923 237.813 197.712C237.976 197.5 238.178 197.322 238.409 197.189C238.64 197.056 238.895 196.969 239.16 196.935C239.424 196.9 239.693 196.918 239.951 196.987C240.208 197.056 240.45 197.176 240.661 197.339L243.618 199.606L250.604 190.491C250.766 190.28 250.968 190.102 251.199 189.969C251.429 189.836 251.684 189.749 251.948 189.714C252.212 189.68 252.48 189.697 252.737 189.766C252.995 189.835 253.236 189.954 253.447 190.116L253.448 190.116L253.404 190.176L253.449 190.116C253.875 190.444 254.154 190.927 254.224 191.46C254.295 191.993 254.151 192.532 253.824 192.959L245.606 203.676C245.416 203.923 245.172 204.122 244.892 204.26C244.612 204.397 244.304 204.468 243.993 204.467L243.991 204.469Z" fill="white"/>
<path d="M267.335 280.176C267.336 282.727 266.834 285.253 265.859 287.61C264.883 289.967 263.453 292.109 261.65 293.913C259.846 295.718 257.705 297.149 255.349 298.126C252.992 299.102 250.466 299.605 247.915 299.606C247.748 299.609 247.581 299.602 247.415 299.586C243.596 299.488 239.891 298.266 236.763 296.072C233.635 293.879 231.223 290.812 229.829 287.255C228.436 283.698 228.122 279.809 228.928 276.074C229.733 272.34 231.623 268.926 234.359 266.26C237.095 263.594 240.557 261.794 244.311 261.085C248.065 260.376 251.944 260.791 255.464 262.276C258.984 263.761 261.988 266.252 264.099 269.436C266.21 272.619 267.336 276.355 267.335 280.176V280.176Z" fill="#CCCCCC"/>
<path d="M245.916 382.718C256.643 382.718 265.339 374.022 265.339 363.295C265.339 352.568 256.643 343.872 245.916 343.872C235.188 343.872 226.492 352.568 226.492 363.295C226.492 374.022 235.188 382.718 245.916 382.718Z" fill="#CCCCCC"/>
<path d="M494.483 137.614H454.554C451.639 137.614 448.843 136.456 446.782 134.395C444.721 132.334 443.563 129.538 443.563 126.623V97.1322C443.563 97.0031 443.6 96.8766 443.668 96.7672C443.737 96.6579 443.835 96.57 443.951 96.5138C444.067 96.4576 444.197 96.4353 444.325 96.4494C444.454 96.4636 444.575 96.5136 444.677 96.5938L494.91 136.389C495.021 136.477 495.103 136.598 495.143 136.735C495.182 136.872 495.179 137.018 495.132 137.153C495.085 137.288 494.997 137.404 494.881 137.487C494.765 137.57 494.626 137.614 494.483 137.614Z" fill="#CCCCCC"/>
<path d="M267.335 280.176C267.336 282.727 266.834 285.253 265.859 287.61C264.883 289.967 263.453 292.109 261.65 293.913C259.846 295.718 257.705 297.149 255.349 298.126C252.992 299.102 250.466 299.605 247.915 299.606C247.748 299.609 247.581 299.602 247.415 299.586C244.906 293.327 243.938 286.557 244.595 279.846C245.251 273.135 247.511 266.68 251.185 261.026C255.703 261.8 259.802 264.147 262.757 267.651C265.713 271.155 267.334 275.592 267.335 280.176V280.176Z" fill="#6C63FF"/>
<path d="M289.335 270.906C289.338 269.448 289.918 268.05 290.949 267.019C291.98 265.988 293.377 265.408 294.835 265.406H324.105C325.815 268.883 327.03 272.582 327.715 276.396H294.835C293.378 276.395 291.981 275.817 290.95 274.788C289.919 273.759 289.338 272.362 289.335 270.906V270.906Z" fill="#6C63FF"/>
<path d="M328.395 283.956C328.397 287.667 327.906 291.363 326.935 294.946H294.835C293.377 294.946 291.98 294.367 290.949 293.336C289.919 292.306 289.34 290.908 289.34 289.451C289.34 287.993 289.919 286.596 290.949 285.565C291.98 284.535 293.377 283.956 294.835 283.956H328.395Z" fill="#6C63FF"/>
<path d="M400.817 351.733C399.988 353.091 398.654 354.065 397.107 354.44C395.56 354.814 393.928 354.559 392.57 353.731L322.565 311.031C321.892 310.62 321.307 310.081 320.843 309.445C320.378 308.808 320.044 308.087 319.858 307.321C319.673 306.555 319.64 305.76 319.761 304.982C319.883 304.203 320.157 303.456 320.567 302.784C320.977 302.111 321.516 301.526 322.153 301.061C322.789 300.597 323.511 300.262 324.277 300.077C325.042 299.891 325.837 299.858 326.616 299.98C327.394 300.102 328.141 300.376 328.814 300.786L398.819 343.486C400.177 344.315 401.151 345.649 401.526 347.196C401.9 348.742 401.645 350.374 400.817 351.733V351.733Z" fill="#3F3D56"/>
<path d="M330.812 309.033C325.868 317.137 318.632 323.594 310.019 327.587C301.406 331.579 291.802 332.928 282.422 331.462C273.043 329.996 264.308 325.782 257.324 319.352C250.339 312.922 245.418 304.566 243.183 295.339C240.948 286.113 241.498 276.43 244.766 267.517C248.033 258.603 253.871 250.859 261.539 245.263C269.208 239.667 278.364 236.471 287.85 236.078C297.335 235.686 306.724 238.115 314.829 243.059C325.686 249.698 333.466 260.373 336.462 272.741C339.458 285.109 337.426 298.161 330.812 309.033ZM259.099 265.291C255.392 271.369 253.57 278.411 253.864 285.525C254.158 292.639 256.556 299.506 260.753 305.258C264.95 311.009 270.758 315.387 277.443 317.838C284.128 320.289 291.39 320.702 298.31 319.025C305.23 317.349 311.497 313.658 316.319 308.42C321.142 303.181 324.302 296.63 325.402 289.596C326.501 282.561 325.49 275.358 322.495 268.898C319.501 262.438 314.658 257.011 308.58 253.304C300.426 248.343 290.637 246.819 281.361 249.066C272.085 251.313 264.079 257.148 259.099 265.291V265.291Z" fill="#3F3D56"/>
<path d="M484.603 291.734C498.168 291.734 509.164 280.737 509.164 267.173C509.164 253.608 498.168 242.612 484.603 242.612C471.038 242.612 460.042 253.608 460.042 267.173C460.042 280.737 471.038 291.734 484.603 291.734Z" fill="#FBBEBE"/>
<path d="M483.016 404.864C482.542 403.388 482.386 401.829 482.556 400.288C482.727 398.748 483.222 397.261 484.008 395.925C484.794 394.588 485.853 393.434 487.116 392.535C488.379 391.637 489.818 391.016 491.338 390.713C491.82 390.619 492.307 390.559 492.797 390.533L518.669 349.01L495.037 326.543C494.134 325.684 493.41 324.656 492.906 323.516C492.403 322.376 492.131 321.148 492.105 319.902C492.079 318.657 492.3 317.418 492.756 316.259C493.211 315.099 493.892 314.041 494.758 313.146C495.625 312.251 496.66 311.536 497.805 311.043C498.949 310.551 500.18 310.29 501.425 310.275C502.671 310.261 503.907 310.493 505.063 310.959C506.218 311.425 507.27 312.115 508.157 312.99L540.787 345.164L540.852 345.244C541.862 346.78 542.349 348.6 542.242 350.435C542.135 352.269 541.439 354.021 540.258 355.428L504.008 398.301C504.116 398.645 504.206 398.994 504.278 399.347C504.581 400.868 504.559 402.435 504.215 403.946C503.87 405.457 503.21 406.879 502.278 408.117C501.345 409.355 500.162 410.383 498.805 411.132C497.448 411.881 495.948 412.335 494.403 412.464C494.091 412.491 493.78 412.505 493.471 412.505C491.145 412.495 488.882 411.751 487.005 410.379C485.127 409.007 483.731 407.077 483.016 404.864V404.864Z" fill="#FBBEBE"/>
<path d="M444.151 609.001L431.891 609L426.059 561.712L444.153 561.713L444.151 609.001Z" fill="#FBBEBE"/>
<path d="M447.277 620.885L407.747 620.883V620.383C407.747 618.363 408.145 616.362 408.918 614.495C409.691 612.628 410.825 610.932 412.253 609.503C413.682 608.075 415.378 606.941 417.245 606.168C419.112 605.395 421.113 604.997 423.133 604.997H423.134L447.278 604.998L447.277 620.885Z" fill="#2F2E41"/>
<path d="M566.007 592.05L555.473 598.322L526.268 560.676L541.815 551.419L566.007 592.05Z" fill="#FBBEBE"/>
<path d="M574.773 600.662L540.807 620.885L540.551 620.455C539.518 618.719 538.836 616.797 538.545 614.797C538.254 612.797 538.36 610.76 538.857 608.802C539.354 606.843 540.231 605.001 541.44 603.382C542.648 601.763 544.164 600.397 545.9 599.363L545.901 599.363L566.646 587.011L574.773 600.662Z" fill="#2F2E41"/>
<path d="M424.513 588.176C416.3 491.469 411.414 401.631 441.437 364.982L441.669 364.698L492.195 384.909L492.278 385.09C492.448 385.461 509.252 422.423 505.332 447.284L517.795 504.612L558.43 572.653C558.758 573.201 558.964 573.812 559.038 574.446C559.111 575.079 559.048 575.721 558.854 576.329C558.66 576.937 558.339 577.497 557.913 577.971C557.486 578.446 556.964 578.824 556.38 579.081L538.72 586.85C537.724 587.284 536.605 587.344 535.567 587.02C534.53 586.696 533.644 586.009 533.072 585.085L488.868 513.005L463.9 457.719C463.764 457.418 463.534 457.171 463.244 457.015C462.954 456.859 462.62 456.803 462.295 456.855C461.97 456.907 461.671 457.065 461.444 457.304C461.218 457.543 461.076 457.85 461.041 458.178L447.201 588.274C447.085 589.38 446.564 590.403 445.737 591.147C444.911 591.89 443.838 592.3 442.727 592.299H428.998C427.872 592.292 426.788 591.866 425.959 591.104C425.13 590.341 424.614 589.297 424.513 588.176V588.176Z" fill="#2F2E41"/>
<path d="M441.607 365.749L441.366 365.633L441.329 365.369C439.441 352.159 441.675 337.481 447.968 321.744C451.07 314.042 456.836 307.71 464.215 303.903C471.594 300.095 480.096 299.065 488.17 301.001V301.001C492.822 302.147 497.184 304.246 500.982 307.167C504.779 310.087 507.929 313.764 510.231 317.965C512.504 322.122 513.888 326.707 514.297 331.428C514.705 336.149 514.129 340.903 512.604 345.389C504.67 368.59 494.378 390.297 494.275 390.513L494.059 390.966L441.607 365.749Z" fill="#6C63FF"/>
<path d="M386.481 332.845C387.697 331.885 389.103 331.192 390.606 330.813C392.109 330.433 393.675 330.376 395.202 330.644C396.728 330.912 398.181 331.5 399.465 332.369C400.749 333.237 401.834 334.367 402.651 335.685C402.907 336.103 403.134 336.539 403.33 336.989L451.284 346.681L464.052 316.678C464.54 315.531 465.25 314.493 466.142 313.622C467.033 312.752 468.088 312.067 469.246 311.606C470.403 311.146 471.641 310.919 472.886 310.94C474.132 310.96 475.362 311.227 476.503 311.726C477.645 312.224 478.677 312.943 479.54 313.843C480.402 314.742 481.077 315.803 481.527 316.965C481.977 318.127 482.192 319.366 482.16 320.612C482.129 321.857 481.85 323.084 481.342 324.221L462.632 366.052L462.58 366.141C461.495 367.624 459.96 368.718 458.204 369.26C456.448 369.803 454.564 369.764 452.832 369.151L399.979 350.21C399.695 350.432 399.4 350.638 399.094 350.829C397.776 351.646 396.301 352.174 394.765 352.381C393.228 352.587 391.666 352.466 390.179 352.027C388.693 351.587 387.316 350.838 386.139 349.829C384.962 348.821 384.012 347.574 383.35 346.173C383.215 345.89 383.094 345.604 382.985 345.314C382.18 343.132 382.085 340.752 382.712 338.513C383.34 336.274 384.659 334.29 386.481 332.845V332.845Z" fill="#FBBEBE"/>
<path d="M573.332 293.475C570.966 289.283 567.519 285.444 562.962 283.895C557.078 281.894 550.706 284.024 544.655 285.447C539.994 286.543 535.124 287.213 530.425 286.289C525.727 285.364 521.194 282.629 519.057 278.345C515.912 272.041 518.561 264.524 518.37 257.482C518.271 253.649 517.304 249.888 515.541 246.482C513.777 243.077 511.264 240.117 508.19 237.824C505.117 235.531 501.563 233.966 497.796 233.247C494.029 232.528 490.149 232.673 486.446 233.671C480.653 231.999 475.407 231.845 471.824 236.299C467.315 236.299 462.991 238.09 459.803 241.278C456.615 244.466 454.824 248.79 454.824 253.299H471.079C470.308 257.443 471.189 261.725 473.533 265.23C476.403 269.445 481.393 272.495 482.353 277.504C483.284 282.357 479.985 286.962 476.524 290.49C473.063 294.018 469.049 297.514 467.968 302.337C467.306 305.997 468.058 309.773 470.072 312.901C472.082 315.991 474.576 318.738 477.458 321.037C490.443 332.162 505.876 340.057 522.496 344.077C534.2 346.895 547.001 347.626 557.867 342.442C562.213 340.368 566.087 337.423 569.247 333.789C572.407 330.155 574.786 325.91 576.236 321.318C577.687 316.726 578.177 311.885 577.677 307.095C577.178 302.305 575.698 297.669 573.332 293.475V293.475Z" fill="#2F2E41"/>
<path d="M577.001 621.926H387.001C386.736 621.926 386.482 621.82 386.294 621.633C386.107 621.445 386.001 621.191 386.001 620.926C386.001 620.66 386.107 620.406 386.294 620.218C386.482 620.031 386.736 619.926 387.001 619.926H577.001C577.267 619.926 577.521 620.031 577.708 620.218C577.896 620.406 578.001 620.66 578.001 620.926C578.001 621.191 577.896 621.445 577.708 621.633C577.521 621.82 577.267 621.926 577.001 621.926Z" fill="#CCCCCC"/>
</g>
<defs>
<clipPath id="clip0">
<rect width="578.001" height="621.926" fill="white"/>
</clipPath>
</defs>
</svg>
