<?xml version="1.0" standalone="no"?><svg xmlns="http://www.w3.org/2000/svg" viewBox="0 0 1440 320"><path fill="rgb(236, 248, 255)" fill-opacity="1" d="M0,224L30,208C60,192,120,160,180,149.3C240,139,300,149,360,165.3C420,181,480,203,540,181.3C600,160,660,96,720,69.3C780,43,840,53,900,85.3C960,117,1020,171,1080,176C1140,181,1200,139,1260,133.3C1320,128,1380,160,1410,176L1440,192L1440,320L1410,320C1380,320,1320,320,1260,320C1200,320,1140,320,1080,320C1020,320,960,320,900,320C840,320,780,320,720,320C660,320,600,320,540,320C480,320,420,320,360,320C300,320,240,320,180,320C120,320,60,320,30,320L0,320Z"></path></svg>
