<?xml version="1.0" standalone="no"?><svg xmlns="http://www.w3.org/2000/svg" viewBox="0 0 1440 320"><path fill="rgb(236, 248, 255)" fill-opacity="1" d="M0,256L20,266.7C40,277,80,299,120,309.3C160,320,200,320,240,277.3C280,235,320,149,360,106.7C400,64,440,64,480,85.3C520,107,560,149,600,144C640,139,680,85,720,64C760,43,800,53,840,53.3C880,53,920,43,960,64C1000,85,1040,139,1080,176C1120,213,1160,235,1200,213.3C1240,192,1280,128,1320,101.3C1360,75,1400,85,1420,90.7L1440,96L1440,0L1420,0C1400,0,1360,0,1320,0C1280,0,1240,0,1200,0C1160,0,1120,0,1080,0C1040,0,1000,0,960,0C920,0,880,0,840,0C800,0,760,0,720,0C680,0,640,0,600,0C560,0,520,0,480,0C440,0,400,0,360,0C320,0,280,0,240,0C200,0,160,0,120,0C80,0,40,0,20,0L0,0Z"></path></svg>